<svg width="24" height="24" viewBox="0 0 24 24" fill="none" xmlns="http://www.w3.org/2000/svg">
<path d="M5 17.001H4C3.46957 17.001 2.96086 16.7903 2.58579 16.4152C2.21071 16.0401 2 15.5314 2 15.001V5.00098C2 4.47054 2.21071 3.96184 2.58579 3.58676C2.96086 3.21169 3.46957 3.00098 4 3.00098H20C20.5304 3.00098 21.0391 3.21169 21.4142 3.58676C21.7893 3.96184 22 4.47054 22 5.00098V15.001C22 15.5314 21.7893 16.0401 21.4142 16.4152C21.0391 16.7903 20.5304 17.001 20 17.001H19" stroke="currentColor" stroke-width="2" stroke-linecap="round" stroke-linejoin="round"/>
<path d="M12 15.001L17 21.001H7L12 15.001Z" stroke="currentColor" stroke-width="2" stroke-linecap="round" stroke-linejoin="round"/>
</svg>
