<svg width="24" height="24" viewBox="0 0 24 24" fill="none" xmlns="http://www.w3.org/2000/svg">
<path d="M10.29 3.861L1.81999 18.001C1.64536 18.3034 1.55296 18.6463 1.55198 18.9955C1.551 19.3447 1.64148 19.6881 1.81442 19.9915C1.98735 20.2949 2.23672 20.5477 2.5377 20.7248C2.83868 20.902 3.18079 20.9972 3.52999 21.001H20.47C20.8192 20.9972 21.1613 20.902 21.4623 20.7248C21.7633 20.5477 22.0126 20.2949 22.1856 19.9915C22.3585 19.6881 22.449 19.3447 22.448 18.9955C22.447 18.6463 22.3546 18.3034 22.18 18.001L13.71 3.861C13.5317 3.5671 13.2807 3.32412 12.9812 3.15548C12.6817 2.98685 12.3437 2.89825 12 2.89825C11.6563 2.89825 11.3183 2.98685 11.0188 3.15548C10.7193 3.32412 10.4683 3.5671 10.29 3.861V3.861Z" stroke="currentColor" stroke-width="2" stroke-linecap="round" stroke-linejoin="round"/>
<path d="M12 9.00098V13.001" stroke="currentColor" stroke-width="2" stroke-linecap="round" stroke-linejoin="round"/>
<path d="M12 17.001H12.01" stroke="currentColor" stroke-width="2" stroke-linecap="round" stroke-linejoin="round"/>
</svg>
