<svg width="24" height="24" viewBox="0 0 24 24" fill="none" xmlns="http://www.w3.org/2000/svg">
<g clip-path="url(#clip0_3545_218)">
<path d="M13.0914 4.08651C13.2364 3.46207 13.5495 2.88502 13.9955 2.36648L13.9956 2.36654L14.004 2.35652C14.3557 1.93662 14.8695 1.56435 15.4038 1.31579C15.2872 1.78498 15.0464 2.33805 14.5655 2.92529C14.0803 3.50619 13.5835 3.88655 13.0914 4.08651Z" stroke="currentColor" stroke-width="2"/>
<path d="M17.0625 22.9152C15.495 22.9152 14.4855 21.8942 12.8404 21.8942C11.4301 21.8942 9.84478 23.3659 7.94654 22.9152C4.34527 22.0602 3 15.9467 3 12.8339C3 10.9011 3.5866 9.43064 4.59502 8.43214C5.46174 7.57812 6.58539 7.00101 8.0625 7.00101C9.75 7.00101 10.875 8.06659 12.5625 8.06659C14.25 8.06659 14.8125 7.001 17.625 7.53377C17.625 7.53377 19.1974 7.9377 19.875 8.59935C19.875 8.59935 17.9659 10.8251 17.7803 12.5385C17.5819 14.3705 17.8304 15.7495 19.1974 17.0591C19.791 17.6277 21 18.1896 21 18.1896C21 18.1896 19.1974 22.9152 17.0625 22.9152Z" stroke="currentColor" stroke-width="2"/>
</g>
<defs>
<clipPath id="clip0_3545_218">
<rect width="24" height="24" fill="white" transform="translate(0 0.00100708)"/>
</clipPath>
</defs>
</svg>
