<svg width="24" height="24" viewBox="0 0 24 24" fill="none" xmlns="http://www.w3.org/2000/svg">
<path d="M12 16.001C14.2091 16.001 16 14.2101 16 12.001C16 9.79187 14.2091 8.00101 12 8.00101C9.79086 8.00101 8 9.79187 8 12.001C8 14.2101 9.79086 16.001 12 16.001Z" stroke="currentColor" stroke-width="2" stroke-linecap="round" stroke-linejoin="round"/>
<path d="M16 8.001V13.001C16 13.7966 16.3161 14.5597 16.8787 15.1223C17.4413 15.6849 18.2044 16.001 19 16.001C19.7957 16.001 20.5587 15.6849 21.1213 15.1223C21.6839 14.5597 22 13.7966 22 13.001V12.001C21.9999 9.74403 21.2362 7.55347 19.8333 5.78553C18.4303 4.01758 16.4706 2.77622 14.2726 2.26329C12.0747 1.75037 9.76794 1.99604 7.72735 2.96036C5.68676 3.92469 4.0324 5.55095 3.03326 7.57472C2.03412 9.59849 1.74897 11.9007 2.22417 14.1071C2.69937 16.3135 3.90698 18.2942 5.65063 19.7273C7.39429 21.1603 9.57143 21.9613 11.8281 22.0001C14.0847 22.039 16.2881 21.3132 18.08 19.941" stroke="currentColor" stroke-width="2" stroke-linecap="round" stroke-linejoin="round"/>
</svg>
