<svg width="24" height="24" viewBox="0 0 24 24" fill="none" xmlns="http://www.w3.org/2000/svg">
<path d="M5 18.001H3C2.46957 18.001 1.96086 17.7903 1.58579 17.4152C1.21071 17.0401 1 16.5314 1 16.001V8.00098C1 7.47054 1.21071 6.96184 1.58579 6.58676C1.96086 6.21169 2.46957 6.00098 3 6.00098H6.19M15 6.00098H17C17.5304 6.00098 18.0391 6.21169 18.4142 6.58676C18.7893 6.96184 19 7.47054 19 8.00098V16.001C19 16.5314 18.7893 17.0401 18.4142 17.4152C18.0391 17.7903 17.5304 18.001 17 18.001H13.81" stroke="currentColor" stroke-width="2" stroke-linecap="round" stroke-linejoin="round"/>
<path d="M23 13.001V11.001" stroke="currentColor" stroke-width="2" stroke-linecap="round" stroke-linejoin="round"/>
<path d="M11 6.00098L7 12.001H13L9 18.001" stroke="currentColor" stroke-width="2" stroke-linecap="round" stroke-linejoin="round"/>
</svg>
