<svg width="24" height="24" viewBox="0 0 24 24" fill="none" xmlns="http://www.w3.org/2000/svg">
<g clip-path="url(#clip0_3545_459)">
<path d="M13.73 21.001C13.5542 21.3041 13.3018 21.5556 12.9982 21.7305C12.6946 21.9054 12.3504 21.9974 12 21.9974C11.6496 21.9974 11.3054 21.9054 11.0018 21.7305C10.6982 21.5556 10.4458 21.3041 10.27 21.001" stroke="currentColor" stroke-width="2" stroke-linecap="round" stroke-linejoin="round"/>
<path d="M6.26 6.26099C6.08627 6.8246 5.99861 7.41121 6 8.00099C6 15.001 3 17.001 3 17.001H17" stroke="currentColor" stroke-width="2" stroke-linecap="round" stroke-linejoin="round"/>
<path d="M18.63 13.001C18.1851 11.3724 17.973 9.68905 18 8.001C18.0033 5.79618 16.9584 3.84203 14.8341 2.70364C12.7099 1.56525 10.5041 1.77732 8.67 3.001" stroke="currentColor" stroke-width="2" stroke-linecap="round" stroke-linejoin="round"/>
<path d="M1 1.00098L23 23.001" stroke="currentColor" stroke-width="2" stroke-linecap="round" stroke-linejoin="round"/>
</g>
<defs>
<clipPath id="clip0_3545_459">
<rect width="24" height="24" fill="white" transform="translate(0 0.000976562)"/>
</clipPath>
</defs>
</svg>
