<svg width="24" height="24" viewBox="0 0 24 24" fill="none" xmlns="http://www.w3.org/2000/svg">
<path d="M18 8.00098C18 6.40968 17.3679 4.88355 16.2426 3.75834C15.1174 2.63312 13.5913 2.00098 12 2.00098C10.4087 2.00098 8.88258 2.63312 7.75736 3.75834C6.63214 4.88355 6 6.40968 6 8.00098C6 15.001 3 17.001 3 17.001H21C21 17.001 18 15.001 18 8.00098Z" stroke="currentColor" stroke-width="2" stroke-linecap="round" stroke-linejoin="round"/>
<path d="M13.73 21.001C13.5542 21.3041 13.3018 21.5556 12.9982 21.7305C12.6946 21.9054 12.3504 21.9974 12 21.9974C11.6496 21.9974 11.3054 21.9054 11.0018 21.7305C10.6982 21.5556 10.4458 21.3041 10.27 21.001" stroke="currentColor" stroke-width="2" stroke-linecap="round" stroke-linejoin="round"/>
</svg>
