<svg width="24" height="24" viewBox="0 0 24 24" fill="none" xmlns="http://www.w3.org/2000/svg">
<path d="M6 4.00098H14C15.0609 4.00098 16.0783 4.4224 16.8284 5.17255C17.5786 5.92269 18 6.94011 18 8.00098C18 9.06184 17.5786 10.0793 16.8284 10.8294C16.0783 11.5795 15.0609 12.001 14 12.001H6V4.00098Z" stroke="currentColor" stroke-width="2" stroke-linecap="round" stroke-linejoin="round"/>
<path d="M6 12.001H15C16.0609 12.001 17.0783 12.4224 17.8284 13.1725C18.5786 13.9227 19 14.9401 19 16.001C19 17.0618 18.5786 18.0793 17.8284 18.8294C17.0783 19.5795 16.0609 20.001 15 20.001H6V12.001Z" stroke="currentColor" stroke-width="2" stroke-linecap="round" stroke-linejoin="round"/>
</svg>
