<svg width="24" height="24" viewBox="0 0 24 24" fill="none" xmlns="http://www.w3.org/2000/svg">
<path d="M2 3.00098H8C9.06087 3.00098 10.0783 3.4224 10.8284 4.17255C11.5786 4.92269 12 5.94011 12 7.00098V21.001C12 20.2053 11.6839 19.4423 11.1213 18.8797C10.5587 18.317 9.79565 18.001 9 18.001H2V3.00098Z" stroke="currentColor" stroke-width="2" stroke-linecap="round" stroke-linejoin="round"/>
<path d="M22 3.00098H16C14.9391 3.00098 13.9217 3.4224 13.1716 4.17255C12.4214 4.92269 12 5.94011 12 7.00098V21.001C12 20.2053 12.3161 19.4423 12.8787 18.8797C13.4413 18.317 14.2044 18.001 15 18.001H22V3.00098Z" stroke="currentColor" stroke-width="2" stroke-linecap="round" stroke-linejoin="round"/>
</svg>
