<svg width="24" height="24" viewBox="0 0 24 24" fill="none" xmlns="http://www.w3.org/2000/svg">
<path d="M20 7.00098H4C2.89543 7.00098 2 7.89641 2 9.00098V19.001C2 20.1055 2.89543 21.001 4 21.001H20C21.1046 21.001 22 20.1055 22 19.001V9.00098C22 7.89641 21.1046 7.00098 20 7.00098Z" stroke="currentColor" stroke-width="2" stroke-linecap="round" stroke-linejoin="round"/>
<path d="M16 20.001V5.00098C16 4.47054 15.7893 3.96184 15.4142 3.58676C15.0391 3.21169 14.5304 3.00098 14 3.00098H10C9.46957 3.00098 8.96086 3.21169 8.58579 3.58676C8.21071 3.96184 8 4.47054 8 5.00098V20.001" stroke="currentColor" stroke-width="2" stroke-linecap="round" stroke-linejoin="round"/>
</svg>
