<svg width="24" height="24" viewBox="0 0 24 24" fill="none" xmlns="http://www.w3.org/2000/svg">
<path d="M6.5 13.501L9.50097 10.5M10.5 17.5L13.5 14.5M9.50097 10.5L17 3.00097C17.2626 2.73833 17.5744 2.52999 17.9176 2.38785C18.2608 2.24571 18.6286 2.17255 19 2.17255C19.3714 2.17255 19.7392 2.24571 20.0824 2.38785C20.4256 2.52999 20.7374 2.73833 21 3.00097C21.2626 3.26362 21.471 3.57542 21.6131 3.91858C21.7553 4.26174 21.8284 4.62954 21.8284 5.00097C21.8284 5.37241 21.7553 5.74021 21.6131 6.08337C21.471 6.42653 21.2626 6.73833 21 7.00097L13.5 14.5M9.50097 10.5L13.5 14.5" stroke="currentColor" stroke-width="2" stroke-linecap="round" stroke-linejoin="round"/>
<path d="M2 22.0001H1C1 22.5523 1.44772 23.0001 2 23.0001V22.0001ZM6 21.0001H2V23.0001H6V21.0001ZM3 22.0001V18H1V22.0001H3ZM9 18.0001C9 19.6569 7.65685 21.0001 6 21.0001V23.0001C8.76142 23.0001 11 20.7615 11 18.0001H9ZM6 15.0001C7.65685 15.0001 9 16.3432 9 18.0001H11C11 15.2386 8.76142 13.0001 6 13.0001V15.0001ZM6 13.0001C3.2386 13.0001 1 15.2386 1 18H3C3 16.3432 4.34313 15.0001 6 15.0001V13.0001Z" fill="currentColor"/>
</svg>
