<svg width="46" height="46" viewBox="0 0 46 46" fill="none" xmlns="http://www.w3.org/2000/svg">
<path d="M41 23L38.4677 23.9379C36.6661 24.6051 34.654 24.3694 33.0556 23.3037L32.644 23.0293C30.7747 21.7831 28.3658 21.6856 26.4019 22.7767L25.4449 23.3084C23.5621 24.3544 21.2631 24.311 19.4212 23.1947L18.9816 22.9283C17.0572 21.762 14.6187 21.8751 12.8105 23.2144V23.2144C11.3066 24.3285 9.34201 24.6082 7.58696 23.9581L5 23" stroke="currentColor" stroke-width="2" stroke-linecap="round"/>
<path d="M41 11L38.4677 11.9379C36.6661 12.6051 34.654 12.3694 33.0556 11.3037L32.644 11.0293C30.7747 9.78314 28.3658 9.68564 26.4019 10.7767L25.4449 11.3084C23.5621 12.3544 21.2631 12.311 19.4212 11.1947L18.9816 10.9283C17.0572 9.76197 14.6187 9.87506 12.8105 11.2144V11.2144C11.3066 12.3285 9.34201 12.6082 7.58696 11.9581L5 11" stroke="currentColor" stroke-width="2" stroke-linecap="round"/>
<path d="M41 35L38.4677 35.9379C36.6661 36.6051 34.654 36.3694 33.0556 35.3037L32.644 35.0293C30.7747 33.7831 28.3658 33.6856 26.4019 34.7767L25.4449 35.3084C23.5621 36.3544 21.2631 36.311 19.4212 35.1947L18.9816 34.9283C17.0572 33.762 14.6187 33.8751 12.8105 35.2144V35.2144C11.3066 36.3285 9.34201 36.6082 7.58696 35.9581L5 35" stroke="currentColor" stroke-width="2" stroke-linecap="round"/>
</svg>
