<svg width="56" height="56" viewBox="0 0 56 56" fill="none" xmlns="http://www.w3.org/2000/svg">
<g clip-path="url(#clip0_6172_74658)">
<path d="M19 1H16C13.7909 1 12 2.79086 12 5V51C12 53.2091 13.7909 55 16 55H40C42.2091 55 44 53.2091 44 51V5C44 2.79086 42.2091 1 40 1H37M19 1L22.4142 4.41421C22.7893 4.78929 23.298 5 23.8284 5H32.1716C32.702 5 33.2107 4.78929 33.5858 4.41421L37 1M19 1H37M33 50H24M22 31H24M35 31H33M33 31V24.5C33 22.0147 30.9853 20 28.5 20V20C26.0147 20 24 22.0147 24 24.5V31M33 31H24M27 35H30M20 21C20 21 22 15 28.5 15C35 15 37 21 37 21" stroke="currentColor" stroke-width="2" stroke-linecap="round" stroke-linejoin="round"/>
</g>
<defs>
<clipPath id="clip0_6172_74658">
<rect width="56" height="56" fill="white" transform="translate(0 0.00100708)"/>
</clipPath>
</defs>
</svg>
