<svg width="24" height="24" viewBox="0 0 24 24" fill="none" xmlns="http://www.w3.org/2000/svg">
<g clip-path="url(#clip0_4148_126837)">
<path d="M3 12.001V10.001C3 7.61403 3.94821 5.32484 5.63604 3.63702C7.32387 1.94919 9.61305 1.00098 12 1.00098C14.3869 1.00098 16.6761 1.94919 18.364 3.63702C20.0518 5.32484 21 7.61403 21 10.001V12.001V18C21 20.7614 18.7614 23 16 23H15M15 23H12V22H14L15 23Z" stroke="currentColor" stroke-width="2" stroke-linecap="round" stroke-linejoin="round"/>
<path d="M21 16.001C21 16.5314 20.7893 17.0401 20.4142 17.4152C20.0391 17.7903 19.5304 18.001 19 18.001H18C17.4696 18.001 16.9609 17.7903 16.5858 17.4152C16.2107 17.0401 16 16.5314 16 16.001V14.001C16 13.4705 16.2107 12.9618 16.5858 12.5868C16.9609 12.2117 17.4696 12.001 18 12.001H21V16.001ZM3 16.001C3 16.5314 3.21071 17.0401 3.58579 17.4152C3.96086 17.7903 4.46957 18.001 5 18.001H6C6.53043 18.001 7.03914 17.7903 7.41421 17.4152C7.78929 17.0401 8 16.5314 8 16.001V14.001C8 13.4705 7.78929 12.9618 7.41421 12.5868C7.03914 12.2117 6.53043 12.001 6 12.001H3V16.001Z" stroke="currentColor" stroke-width="2" stroke-linecap="round" stroke-linejoin="round"/>
</g>
<defs>
<clipPath id="clip0_4148_126837">
<rect width="24" height="24" fill="white" transform="translate(0 0.000976562)"/>
</clipPath>
</defs>
</svg>
