<svg width="24" height="24" viewBox="0 0 24 24" fill="none" xmlns="http://www.w3.org/2000/svg">
<path d="M23 19.001C23 19.5314 22.7893 20.0401 22.4142 20.4152C22.0391 20.7903 21.5304 21.001 21 21.001H3C2.46957 21.001 1.96086 20.7903 1.58579 20.4152C1.21071 20.0401 1 19.5314 1 19.001V8.00098C1 7.47054 1.21071 6.96184 1.58579 6.58676C1.96086 6.21169 2.46957 6.00098 3 6.00098H7L9 3.00098H15L17 6.00098H21C21.5304 6.00098 22.0391 6.21169 22.4142 6.58676C22.7893 6.96184 23 7.47054 23 8.00098V19.001Z" stroke="currentColor" stroke-width="2" stroke-linecap="round" stroke-linejoin="round"/>
<path d="M12 17.001C14.2091 17.001 16 15.2101 16 13.001C16 10.7918 14.2091 9.00098 12 9.00098C9.79086 9.00098 8 10.7918 8 13.001C8 15.2101 9.79086 17.001 12 17.001Z" stroke="currentColor" stroke-width="2" stroke-linecap="round" stroke-linejoin="round"/>
</svg>
