<svg width="24" height="24" viewBox="0 0 24 24" fill="none" xmlns="http://www.w3.org/2000/svg">
<g clip-path="url(#clip0_3545_1111)">
<path d="M1 1.00098L23 23.001" stroke="currentColor" stroke-width="2" stroke-linecap="round" stroke-linejoin="round"/>
<path d="M15.28 15.281C14.9481 15.766 14.5134 16.172 14.0068 16.4699C13.5002 16.7679 12.9342 16.9506 12.3489 17.005C11.7637 17.0594 11.1737 16.9841 10.6209 16.7846C10.0681 16.585 9.56601 16.2661 9.15042 15.8506C8.73483 15.435 8.41593 14.9329 8.2164 14.3801C8.01688 13.8272 7.94163 13.2372 7.99601 12.652C8.05039 12.0668 8.23306 11.5008 8.53103 10.9942C8.829 10.4876 9.23495 10.0529 9.72 9.72098M21 21.001H3C2.46957 21.001 1.96086 20.7903 1.58579 20.4152C1.21071 20.0401 1 19.5314 1 19.001V8.00098C1 7.47054 1.21071 6.96184 1.58579 6.58676C1.96086 6.21169 2.46957 6.00098 3 6.00098H6L21 21.001ZM9 3.00098H15L17 6.00098H21C21.5304 6.00098 22.0391 6.21169 22.4142 6.58676C22.7893 6.96184 23 7.47054 23 8.00098V17.341L9 3.00098Z" stroke="currentColor" stroke-width="2" stroke-linecap="round" stroke-linejoin="round"/>
</g>
<defs>
<clipPath id="clip0_3545_1111">
<rect width="24" height="24" fill="white" transform="translate(0 0.000976562)"/>
</clipPath>
</defs>
</svg>
