<svg width="24" height="24" viewBox="0 0 24 24" fill="none" xmlns="http://www.w3.org/2000/svg">
<path d="M2 16.101C2.96089 16.2969 3.84294 16.7712 4.53638 17.4646C5.22982 18.158 5.70403 19.0401 5.9 20.001M2 12.051C4.03079 12.2768 5.92428 13.187 7.36911 14.6319C8.81395 16.0767 9.72414 17.9702 9.95 20.001M2 8.00098V6.00098C2 5.47054 2.21071 4.96184 2.58579 4.58676C2.96086 4.21169 3.46957 4.00098 4 4.00098H20C20.5304 4.00098 21.0391 4.21169 21.4142 4.58676C21.7893 4.96184 22 5.47054 22 6.00098V18.001C22 18.5314 21.7893 19.0401 21.4142 19.4152C21.0391 19.7903 20.5304 20.001 20 20.001H14" stroke="currentColor" stroke-width="2" stroke-linecap="round" stroke-linejoin="round"/>
<path d="M2 20.001H2.01" stroke="currentColor" stroke-width="2" stroke-linecap="round" stroke-linejoin="round"/>
</svg>
