<svg width="72" height="72" viewBox="0 0 72 72" fill="none" xmlns="http://www.w3.org/2000/svg">
<path d="M48 57C48 59.2091 46.2091 61 44 61H10C7.79086 61 6 59.2091 6 57V15C6 12.7909 7.79086 11 10 11H44C46.2091 11 48 12.7909 48 15M48 41V35" stroke="currentColor" stroke-width="2"/>
<path d="M43.9999 18C43.9999 16.3431 45.343 15 46.9999 15H62.9999C64.6567 15 65.9999 16.3431 65.9999 18V31C65.9999 32.6569 64.6567 34 62.9999 34H46.9999C45.343 34 43.9999 32.6569 43.9999 31V18Z" stroke="currentColor" stroke-width="2"/>
<path d="M55 19V29M55 29L60 24M55 29L50 24M51 30H59" stroke="currentColor" stroke-width="2" stroke-linecap="round" stroke-linejoin="round"/>
<path d="M44 44C44 42.3431 45.3431 41 47 41H63C64.6569 41 66 42.3431 66 44V54C66 55.6569 64.6569 57 63 57H47C45.3431 57 44 55.6569 44 54V44Z" stroke="currentColor" stroke-width="2"/>
<path d="M55 45C51 45 48 47.5 48 49C48 50.5 51 53 55 53C59 53 62 50.5 62 49C62 47.5 59 45 55 45Z" stroke="currentColor" stroke-width="2" stroke-linecap="round" stroke-linejoin="round"/>
<path d="M13 33L17 37L22 31M28 34H38M28 38H33M13 46L17 50L22 44M28 47H38M28 51H33M13 20L17 24L22 18M28 21H38M28 25H33M20 20.3542C20.6224 21.0593 21 21.9856 21 23C21 25.2092 19.2091 27 17 27C14.7909 27 13 25.2092 13 23C13 22.2714 13.1948 21.5884 13.5351 21M20 33.3542C20.6224 34.0593 21 34.9856 21 36C21 38.2092 19.2091 40 17 40C14.7909 40 13 38.2092 13 36C13 35.2969 13.1814 34.6361 13.5 34.062M20 46.3542C20.6224 47.0593 21 47.9856 21 49C21 51.2092 19.2091 53 17 53C14.7909 53 13 51.2092 13 49C13 48.2714 13.1948 47.5884 13.5351 47" stroke="currentColor" stroke-width="2" stroke-linecap="round" stroke-linejoin="round"/>
</svg>
