<svg width="24" height="24" viewBox="0 0 24 24" fill="none" xmlns="http://www.w3.org/2000/svg">
<g clip-path="url(#clip0_3545_200)">
<path d="M22 11.081V12.001C21.9988 14.1574 21.3005 16.2557 20.0093 17.9828C18.7182 19.71 16.9033 20.9735 14.8354 21.5849C12.7674 22.1963 10.5573 22.1229 8.53447 21.3756C6.51168 20.6283 4.78465 19.2471 3.61096 17.4381C2.43727 15.629 1.87979 13.4891 2.02168 11.3373C2.16356 9.18556 2.99721 7.13732 4.39828 5.49807C5.79935 3.85881 7.69279 2.71638 9.79619 2.24114C11.8996 1.7659 14.1003 1.98333 16.07 2.86099" stroke="currentColor" stroke-width="2" stroke-linecap="round" stroke-linejoin="round"/>
<path d="M22 4.00101L12 14.011L9 11.011" stroke="currentColor" stroke-width="2" stroke-linecap="round" stroke-linejoin="round"/>
</g>
<defs>
<clipPath id="clip0_3545_200">
<rect width="24" height="24" fill="white" transform="translate(0 0.00100708)"/>
</clipPath>
</defs>
</svg>
