<svg width="24" height="24" viewBox="0 0 24 24" fill="none" xmlns="http://www.w3.org/2000/svg">
<path d="M12 22.001C17.5228 22.001 22 17.5238 22 12.001C22 6.47813 17.5228 2.00098 12 2.00098C6.47715 2.00098 2 6.47813 2 12.001C2 17.5238 6.47715 22.001 12 22.001Z" stroke="currentColor" stroke-width="2" stroke-linecap="round" stroke-linejoin="round"/>
<path d="M12 16.001C14.2091 16.001 16 14.2101 16 12.001C16 9.79184 14.2091 8.00098 12 8.00098C9.79086 8.00098 8 9.79184 8 12.001C8 14.2101 9.79086 16.001 12 16.001Z" stroke="currentColor" stroke-width="2" stroke-linecap="round" stroke-linejoin="round"/>
<path d="M20.5 8.00098H12" stroke="currentColor" stroke-width="2" stroke-linecap="round" stroke-linejoin="round"/>
<path d="M4.5 6.50098L8.54001 14.001" stroke="currentColor" stroke-width="2" stroke-linecap="round" stroke-linejoin="round"/>
<path d="M11.5 21.501L15.46 14.001" stroke="currentColor" stroke-width="2" stroke-linecap="round" stroke-linejoin="round"/>
</svg>
