<svg width="24" height="24" viewBox="0 0 24 24" fill="none" xmlns="http://www.w3.org/2000/svg">
<path d="M17 4.00098H18C18.5304 4.00098 19.0391 4.21169 19.4142 4.58676C19.7893 4.96184 20 5.47054 20 6.00098V20.001C20 20.5314 19.7893 21.0401 19.4142 21.4152C19.0391 21.7903 18.5304 22.001 18 22.001H6C5.46957 22.001 4.96086 21.7903 4.58579 21.4152C4.21071 21.0401 4 20.5314 4 20.001V6.00098C4 5.47054 4.21071 4.96184 4.58579 4.58676C4.96086 4.21169 5.46957 4.00098 6 4.00098H7" stroke="currentColor" stroke-width="2" stroke-linecap="round" stroke-linejoin="round"/>
<path d="M15 2.00098H9C8.44772 2.00098 8 2.44869 8 3.00098V5.00098C8 5.55326 8.44772 6.00098 9 6.00098H15C15.5523 6.00098 16 5.55326 16 5.00098V3.00098C16 2.44869 15.5523 2.00098 15 2.00098Z" stroke="currentColor" stroke-width="2" stroke-linecap="round" stroke-linejoin="round"/>
<path d="M8 10H9M12 10H16M8 14H9M12 14H16M8 18H9M12 18H16" stroke="currentColor" stroke-width="2" stroke-linecap="round"/>
</svg>
