<svg width="24" height="24" viewBox="0 0 24 24" fill="none" xmlns="http://www.w3.org/2000/svg">
<path d="M12 3.00098H19C19.5304 3.00098 20.0391 3.21169 20.4142 3.58676C20.7893 3.96184 21 4.47054 21 5.00098V19.001C21 19.5314 20.7893 20.0401 20.4142 20.4152C20.0391 20.7903 19.5304 21.001 19 21.001H12M12 3.00098V21.001M12 3.00098H5C4.46957 3.00098 3.96086 3.21169 3.58579 3.58676C3.21071 3.96184 3 4.47054 3 5.00098V19.001C3 19.5314 3.21071 20.0401 3.58579 20.4152C3.96086 20.7903 4.46957 21.001 5 21.001H12" stroke="currentColor" stroke-width="2" stroke-linecap="round" stroke-linejoin="round"/>
</svg>
