<svg width="24" height="24" viewBox="0 0 24 24" fill="none" xmlns="http://www.w3.org/2000/svg">
<path d="M18 3.00098C17.2044 3.00098 16.4413 3.31705 15.8787 3.87966C15.3161 4.44227 15 5.20533 15 6.00098V18.001C15 18.7966 15.3161 19.5597 15.8787 20.1223C16.4413 20.6849 17.2044 21.001 18 21.001C18.7956 21.001 19.5587 20.6849 20.1213 20.1223C20.6839 19.5597 21 18.7966 21 18.001C21 17.2053 20.6839 16.4423 20.1213 15.8797C19.5587 15.317 18.7956 15.001 18 15.001H6C5.20435 15.001 4.44129 15.317 3.87868 15.8797C3.31607 16.4423 3 17.2053 3 18.001C3 18.7966 3.31607 19.5597 3.87868 20.1223C4.44129 20.6849 5.20435 21.001 6 21.001C6.79565 21.001 7.55871 20.6849 8.12132 20.1223C8.68393 19.5597 9 18.7966 9 18.001V6.00098C9 5.20533 8.68393 4.44227 8.12132 3.87966C7.55871 3.31705 6.79565 3.00098 6 3.00098C5.20435 3.00098 4.44129 3.31705 3.87868 3.87966C3.31607 4.44227 3 5.20533 3 6.00098C3 6.79663 3.31607 7.55969 3.87868 8.1223C4.44129 8.68491 5.20435 9.00098 6 9.00098H18C18.7956 9.00098 19.5587 8.68491 20.1213 8.1223C20.6839 7.55969 21 6.79663 21 6.00098C21 5.20533 20.6839 4.44227 20.1213 3.87966C19.5587 3.31705 18.7956 3.00098 18 3.00098Z" stroke="currentColor" stroke-width="2" stroke-linecap="round" stroke-linejoin="round"/>
</svg>
