<svg width="56" height="56" viewBox="0 0 56 56" fill="none" xmlns="http://www.w3.org/2000/svg">
<path d="M41 49L17.4142 25.4142C16.6332 24.6332 16.6332 23.3669 17.4142 22.5858L20 20M41 49L44 52V52C45.6569 53.6569 48.3431 53.6569 50 52L52 50C53.6569 48.3431 53.6569 45.6569 52 44V44L49 41M41 49L44 46M49 41L25.4142 17.4142C24.6332 16.6332 23.3668 16.6332 22.5858 17.4142L20 20M49 41L45 45L44 46M20 20L16 16H7V4M44 46L41 43M38 40L33 35" stroke="currentColor" stroke-width="2" stroke-linecap="round" stroke-linejoin="round"/>
<path d="M15.0001 49L7.00005 41M15.0001 49L28.0001 36M15.0001 49L12.0001 52V52C10.3432 53.6568 7.65691 53.6568 6.00006 52L4.00005 50C2.3432 48.3431 2.3432 45.6568 4.00005 44V44L7.00005 41M7.00005 41L16 32M36.0001 20L33.4143 17.4142C32.6332 16.6332 31.3669 16.6332 30.5858 17.4142L28.0001 20M36.0001 20L38.5858 22.5858C39.3669 23.3668 39.3669 24.6332 38.5858 25.4142L36.0001 28M36.0001 20L41.0001 15M41.0001 15C43.4853 17.4853 47.5148 17.4853 50.0001 15C52.4853 12.5147 52.4853 8.48529 50.0001 6.00001C48.1075 4.1075 45.3196 3.65611 43 4.64584M41.0001 15C40.4073 14.4072 39.9559 13.7266 39.6459 13" stroke="currentColor" stroke-width="2" stroke-linecap="round" stroke-linejoin="round"/>
<path d="M34 7.00002C36 6.00002 36 6.00002 37 4L37 4.00001C38 6.00002 38 6.00002 40 7.00002C38 8.00002 38 8.00002 37 10C36 8.00002 36 8.00002 34 7.00002Z" stroke="currentColor" stroke-width="2" stroke-linecap="round" stroke-linejoin="round"/>
</svg>
