<svg width="24" height="24" viewBox="0 0 24 24" fill="none" xmlns="http://www.w3.org/2000/svg">
<path d="M15 22.001H5C4.46957 22.001 3.96086 21.7903 3.58579 21.4152C3.21071 21.0401 3 20.5314 3 20.001V4.00098C3 3.47054 3.21071 2.96184 3.58579 2.58676C3.96086 2.21169 4.46957 2.00098 5 2.00098H17C18.1046 2.00098 19 2.89641 19 4.00098V5.00098" stroke="currentColor" stroke-width="2" stroke-linecap="round" stroke-linejoin="round"/>
<path d="M17 7C17 6.46957 17.2107 5.96086 17.5858 5.58579C17.9609 5.21071 18.4696 5 19 5C19.5304 5 20.0391 5.21071 20.4142 5.58579C20.7893 5.96086 21 6.46957 21 7L21 17.6667L19 21L17 17.6667L17 7Z" stroke="currentColor" stroke-width="2" stroke-linecap="round" stroke-linejoin="round"/>
<path d="M13 14.001H7" stroke="currentColor" stroke-width="2" stroke-linecap="round" stroke-linejoin="round"/>
<path d="M9 10H7" stroke="currentColor" stroke-width="2" stroke-linecap="round" stroke-linejoin="round"/>
<path d="M13 6H7" stroke="currentColor" stroke-width="2" stroke-linecap="round" stroke-linejoin="round"/>
<path d="M11 18.001H7" stroke="currentColor" stroke-width="2" stroke-linecap="round" stroke-linejoin="round"/>
</svg>
