<svg width="24" height="24" viewBox="0 0 24 24" fill="none" xmlns="http://www.w3.org/2000/svg">
<path d="M5 9.99279C2 9.99279 1 9.04422 1 8.00094C1 6.95766 2 6.00006 5 6.0091" stroke="currentColor" stroke-width="2" stroke-linecap="round" stroke-linejoin="round"/>
<path d="M1 12C1 13.0456 2 14 5 13.992" stroke="currentColor" stroke-width="2" stroke-linecap="round" stroke-linejoin="round"/>
<path d="M1 8V16.2353C1 17.1579 2 18 5 17.9929" stroke="currentColor" stroke-width="2" stroke-linecap="round" stroke-linejoin="round"/>
<path d="M21 2.00098H11C9.89543 2.00098 9 2.89641 9 4.00098V20.001C9 21.1055 9.89543 22.001 11 22.001H21C22.1046 22.001 23 21.1055 23 20.001V4.00098C23 2.89641 22.1046 2.00098 21 2.00098Z" stroke="currentColor" stroke-width="2" stroke-linecap="round" stroke-linejoin="round"/>
<path d="M10 6H22" stroke="currentColor" stroke-width="2" stroke-linecap="round" stroke-linejoin="round"/>
<path d="M13 10H19" stroke="currentColor" stroke-width="2" stroke-linecap="round" stroke-linejoin="round"/>
<path d="M13 18H16" stroke="currentColor" stroke-width="2" stroke-linecap="round" stroke-linejoin="round"/>
<path d="M13 14H16" stroke="currentColor" stroke-width="2" stroke-linecap="round" stroke-linejoin="round"/>
</svg>
