<svg width="24" height="24" viewBox="0 0 24 24" fill="none" xmlns="http://www.w3.org/2000/svg">
<g clip-path="url(#clip0_5318_73133)">
<path d="M18.9991 4L19 7M18.9991 4C18.9991 5 18.5 6 17 6H4C2.5 6 2 5 2 4M18.9991 4C18.9991 3 18.5 2 17 2H15M2 4C2 10.3082 2 20.8463 2 20.8463C2 21.4175 2.22691 21.9653 2.63082 22.3692C3.03472 22.7731 3.58253 23 4.15374 23H8M2 4C2 3 2.5 2 4 2H6M6 2V3H7M6 2H15M6 2V1H7M15 2V3H13.9991M15 2V1H14M15.9991 15V17L18 18M21.9991 17C21.9991 20.3137 19.3129 23.0002 15.9991 23C12.6857 22.9998 10 20.3135 10 17C10 13.6863 12.6863 10.9998 16 11C19.3135 11.0002 21.9991 13.6865 21.9991 17Z" stroke="currentColor" stroke-width="2" stroke-linecap="round" stroke-linejoin="round"/>
</g>
<defs>
<clipPath id="clip0_5318_73133">
<rect width="24" height="24" fill="white" transform="translate(0 0.000999451)"/>
</clipPath>
</defs>
</svg>
