<svg width="24" height="24" viewBox="0 0 24 24" fill="none" xmlns="http://www.w3.org/2000/svg">
<path d="M4.5 6.00098L5.5 3.00098H16V16.001H1L2.38462 12.001M1 6.00098H8M5 9.00098H10M3 12.001H2.38462M6 12.001H2.38462" stroke="currentColor" stroke-width="2" stroke-linecap="round" stroke-linejoin="round"/>
<path d="M16 8.00098H20L23 11.001L22 16.001H16V8.00098Z" stroke="currentColor" stroke-width="2" stroke-linecap="round" stroke-linejoin="round"/>
<path d="M5.35297 20.9159C6.4199 21.2018 7.57451 20.3524 7.93187 19.0187C8.28922 17.685 7.71399 16.3721 6.64706 16.0862C5.58013 15.8004 4.42552 16.6498 4.06816 17.9834C3.71081 19.3171 4.28603 20.63 5.35297 20.9159Z" stroke="currentColor" stroke-width="2" stroke-linecap="round" stroke-linejoin="round"/>
<path d="M16.353 20.9159C17.4199 21.2018 18.5745 20.3524 18.9319 19.0187C19.2892 17.685 18.714 16.3721 17.6471 16.0862C16.5801 15.8004 15.4255 16.6498 15.0682 17.9834C14.7108 19.3171 15.286 20.63 16.353 20.9159Z" stroke="currentColor" stroke-width="2" stroke-linecap="round" stroke-linejoin="round"/>
</svg>
