<svg width="24" height="24" viewBox="0 0 24 24" fill="none" xmlns="http://www.w3.org/2000/svg">
<g clip-path="url(#clip0_5318_72205)">
<path d="M14.5 15.6526L13.5275 15.8857C13.6076 16.2198 13.8536 16.4894 14.179 16.5997L14.5 15.6526ZM9.5 15.6526L9.821 16.5997C10.1464 16.4894 10.3924 16.2198 10.4725 15.8857L9.5 15.6526ZM18 8C18 7.44772 17.5523 7 17 7C16.4477 7 16 7.44772 16 8H18ZM14 13.5659L13.5996 12.6495L14 13.5659ZM21 24C21 24.5523 21.4477 25 22 25C22.5523 25 23 24.5523 23 24H21ZM1 24C1 24.5523 1.44772 25 2 25C2.55228 25 3 24.5523 3 24H1ZM20 17.5569L20.4716 16.6751L20 17.5569ZM4 17.5569L3.52843 16.6751L4 17.5569ZM9 24C9 24.5523 9.44772 25 10 25C10.5523 25 11 24.5523 11 24H9ZM17 24C17 24.5523 17.4477 25 18 25C18.5523 25 19 24.5523 19 24H17ZM14 24C14 24.5523 14.4477 25 15 25C15.5523 25 16 24.5523 16 24H14ZM15 23V22C14.4477 22 14 22.4477 14 23H15ZM18 23H19C19 22.4477 18.5523 22 18 22V23ZM18 9C18.5523 9 19 8.55228 19 8C19 7.44772 18.5523 7 18 7V9ZM9.98639 2.1644C10.0772 1.61963 9.70917 1.1044 9.1644 1.01361C8.61963 0.922811 8.1044 1.29083 8.01361 1.8356L9.98639 2.1644ZM10.1644 6.74741C10.5771 6.38049 10.6143 5.74842 10.2474 5.33564C9.88049 4.92285 9.24842 4.88567 8.83564 5.25259L10.1644 6.74741ZM4.33564 9.25259C3.92285 9.61951 3.88567 10.2516 4.25259 10.6644C4.61951 11.0771 5.25158 11.1143 5.66436 10.7474L4.33564 9.25259ZM8 8.22222C8 7.66994 7.55228 7.22222 7 7.22222C6.44772 7.22222 6 7.66994 6 8.22222H8ZM15 14.6526H14.5V16.6526H15V14.6526ZM9.5 14.6526H9V16.6526H9.5V14.6526ZM18 11C18 11.8954 17.6328 12.8358 17.0359 13.5489C16.4361 14.2654 15.6952 14.6526 15 14.6526V16.6526C16.4453 16.6526 17.7044 15.8661 18.5695 14.8326C19.4375 13.7957 20 12.4098 20 11H18ZM9 14.6526C8.30477 14.6526 7.5639 14.2654 6.96412 13.5489C6.36722 12.8358 6 11.8954 6 11H4C4 12.4098 4.56251 13.7957 5.43048 14.8326C6.29557 15.8661 7.55469 16.6526 9 16.6526V14.6526ZM6 8C6 4.50599 8.89882 2.04395 11.9999 2.04395V0.0439529C7.90604 0.0439529 4 3.29285 4 8H6ZM12 15C12.8999 15 13.6548 14.808 14.4004 14.4822L13.5996 12.6495C13.067 12.8822 12.5842 13 12 13V15ZM13.0275 13.7989L13.5275 15.8857L15.4725 15.4196L14.9725 13.3329L13.0275 13.7989ZM21 21V24H23V21H21ZM9.59963 14.4822C10.3452 14.808 11.1001 15 12 15V13C11.4158 13 10.933 12.8822 10.4004 12.6495L9.59963 14.4822ZM9.02753 13.3329L8.52753 15.4196L10.4725 15.8857L10.9725 13.7989L9.02753 13.3329ZM14.179 16.5997L16.679 17.4471L17.321 15.5529L14.821 14.7056L14.179 16.5997ZM16.4592 15.6588L9.45924 20.1588L10.5408 21.8412L17.5408 17.3412L16.4592 15.6588ZM9.179 14.7056L6.679 15.5529L7.321 17.4471L9.821 16.5997L9.179 14.7056ZM10.8321 20.4453L7.83205 15.9453L6.16795 17.0547L9.16795 21.5547L10.8321 20.4453ZM1 21V24H3V21H1ZM20 11V8H18V11H20ZM6 11V8H4V11H6ZM16.6838 17.4487C18.3156 17.9926 18.5126 17.8955 19.5284 18.4387L20.4716 16.6751C19.2678 16.0313 18.5746 15.9708 17.3162 15.5513L16.6838 17.4487ZM19.5284 18.4387C20.0604 18.7232 20.3944 18.9875 20.6134 19.3191C20.8272 19.6428 21 20.136 21 21H23C23 19.864 22.7698 18.955 22.2822 18.2167C21.7997 17.4864 21.1337 17.0291 20.4716 16.6751L19.5284 18.4387ZM6.68377 15.5513C5.42544 15.9708 4.73215 16.0313 3.52843 16.6751L4.47157 18.4387C5.48743 17.8955 5.68435 17.9926 7.31623 17.4487L6.68377 15.5513ZM3.52843 16.6751C2.8663 17.0291 2.20026 17.4864 1.71782 18.2167C1.23017 18.955 1 19.864 1 21H3C3 20.136 3.17278 19.6428 3.3866 19.3191C3.60564 18.9875 3.9396 18.7232 4.47157 18.4387L3.52843 16.6751ZM9 21V24H11V21H9ZM14.4004 14.4822C15.8535 13.8473 16.7952 12.9152 17.3445 11.7319C17.8744 10.5904 18 9.29665 18 8H16C16 9.20335 15.8756 10.1464 15.5305 10.8898C15.2048 11.5913 14.6465 12.1921 13.5996 12.6495L14.4004 14.4822ZM14 23V24H16V23H14ZM19 24V23H17V24H19ZM18 22H15V24H18V22ZM20 8C20 5.87474 19.0147 3.89043 17.5608 2.45034C16.1071 1.01049 14.1138 0.0439529 11.9999 0.0439529V2.04395C13.5049 2.04395 15.0117 2.74056 16.1533 3.87131C17.2947 5.00181 18 6.49552 18 8H20ZM18 7H13V9H18V7ZM13 7C11.9661 7 11.3441 6.69715 10.9439 6.3277C10.5241 5.94022 10.2535 5.39087 10.0951 4.75746C9.93727 4.12596 9.90735 3.47417 9.92149 2.96527C9.92846 2.71436 9.94587 2.50657 9.96111 2.36435C9.96871 2.29342 9.97571 2.23934 9.98048 2.20495C9.98287 2.18777 9.98469 2.17556 9.98575 2.16867C9.98628 2.16523 9.98661 2.16312 9.98673 2.16239C9.98678 2.16203 9.98679 2.16201 9.98673 2.16234C9.98671 2.16251 9.98667 2.16276 9.98661 2.1631C9.98658 2.16328 9.98653 2.1636 9.98651 2.16368C9.98646 2.16403 9.98639 2.1644 9 2C8.01361 1.8356 8.01354 1.83602 8.01346 1.83645C8.01344 1.83663 8.01336 1.83709 8.0133 1.83744C8.01318 1.83815 8.01305 1.83895 8.01291 1.83985C8.01261 1.84163 8.01227 1.84379 8.01186 1.84631C8.01105 1.85135 8.01003 1.85784 8.00882 1.86575C8.0064 1.88157 8.00322 1.90305 7.9995 1.92981C7.99207 1.98332 7.98247 2.05814 7.97249 2.15128C7.95257 2.33718 7.93092 2.59814 7.92226 2.90973C7.90515 3.52583 7.93773 4.37404 8.15486 5.24254C8.37151 6.10913 8.78836 7.05978 9.58735 7.7973C10.4059 8.55285 11.5339 9 13 9V7ZM8.83564 5.25259L4.33564 9.25259L5.66436 10.7474L10.1644 6.74741L8.83564 5.25259ZM6 8.22222C6 9.71025 6.24076 11.0046 6.84101 12.0798C7.45254 13.1752 8.38605 13.952 9.59963 14.4822L10.4004 12.6495C9.51839 12.2642 8.95191 11.758 8.58732 11.1049C8.21146 10.4317 8 9.51198 8 8.22222H6Z" fill="currentColor"/>
</g>
<defs>
<clipPath id="clip0_5318_72205">
<rect width="24" height="24" fill="white" transform="translate(0 0.000999451)"/>
</clipPath>
</defs>
</svg>
