<svg width="24" height="24" viewBox="0 0 24 24" fill="none" xmlns="http://www.w3.org/2000/svg">
<g clip-path="url(#clip0_3545_1303)">
<path d="M8 17.001L12 21.001L16 17.001" stroke="currentColor" stroke-width="2" stroke-linecap="round" stroke-linejoin="round"/>
<path d="M12 12.001V19.001" stroke="currentColor" stroke-width="2" stroke-linecap="round" stroke-linejoin="round"/>
<path d="M20.88 18.0909C21.7494 17.4796 22.4014 16.6071 22.7413 15.6001C23.0812 14.5931 23.0914 13.5039 22.7704 12.4907C22.4494 11.4775 21.8139 10.593 20.9561 9.96547C20.0983 9.33794 19.0628 9.00008 18 9.00091H16.74C16.4392 7.82878 15.8765 6.74016 15.0941 5.81699C14.3117 4.89382 13.3301 4.16017 12.2232 3.67126C11.1163 3.18236 9.91284 2.95094 8.70352 2.99443C7.4942 3.03792 6.31051 3.35518 5.24155 3.92234C4.17259 4.48949 3.24622 5.29176 2.53218 6.26874C1.81814 7.24572 1.33505 8.37196 1.11925 9.56266C0.903464 10.7534 0.960604 11.9775 1.28637 13.1429C1.61214 14.3084 2.19805 15.3847 2.99999 16.2909" stroke="currentColor" stroke-width="2" stroke-linecap="round" stroke-linejoin="round"/>
</g>
<defs>
<clipPath id="clip0_3545_1303">
<rect width="24" height="24" fill="white" transform="translate(0 0.000976562)"/>
</clipPath>
</defs>
</svg>
