<svg width="24" height="24" viewBox="0 0 24 24" fill="none" xmlns="http://www.w3.org/2000/svg">
<g clip-path="url(#clip0_3545_241)">
<path d="M11 4.00101H4C3.46957 4.00101 2.96086 4.21172 2.58579 4.58679C2.21071 4.96187 2 5.47057 2 6.00101V20.001C2 20.5314 2.21071 21.0401 2.58579 21.4152C2.96086 21.7903 3.46957 22.001 4 22.001H18C18.5304 22.001 19.0391 21.7903 19.4142 21.4152C19.7893 21.0401 20 20.5314 20 20.001V13.001" stroke="currentColor" stroke-width="2" stroke-linecap="round" stroke-linejoin="round"/>
<path d="M18.5 2.50102C18.8978 2.1032 19.4374 1.8797 20 1.8797C20.5626 1.8797 21.1022 2.1032 21.5 2.50102C21.8978 2.89884 22.1213 3.43841 22.1213 4.00102C22.1213 4.56363 21.8978 5.1032 21.5 5.50102L12 15.001L8 16.001L9 12.001L18.5 2.50102Z" stroke="currentColor" stroke-width="2" stroke-linecap="round" stroke-linejoin="round"/>
</g>
<defs>
<clipPath id="clip0_3545_241">
<rect width="24" height="24" fill="white" transform="translate(0 0.00100708)"/>
</clipPath>
</defs>
</svg>
