<svg width="24" height="24" viewBox="0 0 24 24" fill="none" xmlns="http://www.w3.org/2000/svg">
<path d="M17 3.001C17.2626 2.73836 17.5744 2.53002 17.9176 2.38788C18.2608 2.24574 18.6286 2.17258 19 2.17258C19.3714 2.17258 19.7392 2.24574 20.0824 2.38788C20.4256 2.53002 20.7374 2.73836 21 3.001C21.2626 3.26365 21.471 3.57545 21.6131 3.91861C21.7553 4.26177 21.8284 4.62957 21.8284 5.001C21.8284 5.37244 21.7553 5.74024 21.6131 6.0834C21.471 6.42656 21.2626 6.73836 21 7.001L7.5 20.501L2 22.001L3.5 16.501L17 3.001Z" stroke="currentColor" stroke-width="2" stroke-linecap="round" stroke-linejoin="round"/>
</svg>
