<svg width="72" height="72" viewBox="0 0 72 72" fill="none" xmlns="http://www.w3.org/2000/svg">
<g clip-path="url(#clip0_6147_74525)">
<g clip-path="url(#clip1_6147_74525)">
<path d="M69 30V20C69 17.51 67.49 16 65 16H36C34.5062 16 33 16.5 33 18.5C33 20.5 34.5062 21 36 21H37V23C37 24.5 37.5 25 39 25H47C48.5 25 49 24.5 49 23V21H63C63.5 21 64 21.5 64 22V31C63.6304 31.4009 63.19 31.9264 62.973 32.4521L58.5826 43.1184C58.1345 44.2024 57.1736 45 56 45H34.0645V41H40.5C42.99 41 45.0161 39.2642 45.0161 36.7742V36H35C36.174 34.852 37 33.4782 37 31.7097V29H23V31.7097C23 33.4782 23.826 34.8833 25 36.0312L21 36V25.0323C21 24.0369 21.5037 23 22.5 23C23.4954 23 24 24.0369 24 25.0323V27H25.8065V25.0323C25.8065 23.0397 25 21 22.5 21C20 21 19 23.0397 19 25.0323V36.0312H16V36.7742C16 39.2642 18.0261 41 20.5161 41H27V48.3402L17.2644 58.5517C16.4029 59.4719 16 60.6564 16 61.9035C16 64.4836 18.0971 66.5806 20.6771 66.5806C21.9737 66.5806 23.2232 66.0351 24.1039 65.0869L32.0781 56.4996C32.8045 57.1029 33.7113 57.4646 34.6625 57.5303L32 65H29.0592C26.5692 65 25 66.51 25 69L25.0323 72H62.9677L63 69C63 66.51 61.4308 65 58.9408 65H56L53.3339 57.5175C55.3772 57.3804 57.0571 55.8963 57.4562 53.9355H61.3068C63.2368 53.9355 64.9458 52.7787 65.6611 50.9863L71.6639 35.9803C72.6223 33.5902 71.2713 31.0657 69 30ZM47 22C47 22.4984 46.4984 23 46 23H40C39.4839 23 39 22.5 39 22V21H47V22ZM41 55C41 53.3431 42.3431 52 44 52C45.6569 52 47 53.3431 47 55C47 56.6569 45.6569 58 44 58C42.3431 58 41 56.6569 41 55Z" fill="#E0EEF8"/>
</g>
<g clip-path="url(#clip2_6147_74525)">
<path d="M46 8L53.8009 6.69985C54.4929 6.58452 55 5.98586 55 5.28438V5.28438C55 4.55318 54.4502 3.93891 53.7235 3.85816L46 3M46 8V3M46 8V8C46 9.10457 45.1046 10 44 10H42M46 3V3C46 1.89543 45.1046 1 44 1H42M42 1H32.5C30.0147 1 28 3.01472 28 5.5V5.5C28 7.98528 30.0147 10 32.5 10H33M42 1V4M42 10V4M42 10H39M42 4H37M34 4H33M39 10V20L37 23M39 10H33M37 23L32.5 18.5M37 23L39 25L35.9444 28.5M33 10V17.5L32.5 18.5M32.5 18.5L31 17L27.5714 20M3 41.5L2.35504 42.0643C0.563811 43.6317 0.529222 46.4069 2.28084 48.0184L8.47857 53.7203C10.1344 55.2436 12.7204 55.1021 14.2001 53.4072L14.5556 53M3 41.5L14.5556 53M3 41.5L7 38M14.5556 53L35.9444 28.5M7 38L8.75038 39.1669C11.1998 40.7999 14.4722 40.4146 16.4753 38.2573L22.6017 31.6597C24.5032 29.6119 24.4584 26.4309 22.5 24.4375V24.4375M7 38L22.5 24.4375M22.5 24.4375L27.5714 20M35.9444 28.5L27.5714 20M15 46L17 43.8333M21 39.5L19 41.6667" stroke="url(#paint0_linear_6147_74525)" stroke-width="2" stroke-linecap="round" stroke-linejoin="round"/>
</g>
</g>
<defs>
<linearGradient id="paint0_linear_6147_74525" x1="27" y1="0.999323" x2="27" y2="56.5" gradientUnits="userSpaceOnUse">
<stop stop-color="#00BDD6"/>
<stop offset="1" stop-color="#06A8BD"/>
</linearGradient>
<clipPath id="clip0_6147_74525">
<rect width="72" height="72" fill="white" transform="translate(0 0.000976562)"/>
</clipPath>
<clipPath id="clip1_6147_74525">
<rect width="56" height="56" fill="white" transform="translate(16 16.001)"/>
</clipPath>
<clipPath id="clip2_6147_74525">
<rect width="56" height="56" fill="white" transform="translate(0 0.000976562)"/>
</clipPath>
</defs>
</svg>
