<svg width="24" height="24" viewBox="0 0 24 24" fill="none" xmlns="http://www.w3.org/2000/svg">
<g clip-path="url(#clip0_3545_1352)">
<path d="M14.12 14.121C13.8454 14.4157 13.5141 14.6522 13.1462 14.8161C12.7782 14.9801 12.3809 15.0683 11.9781 15.0754C11.5753 15.0825 11.1752 15.0084 10.8016 14.8575C10.4281 14.7066 10.0887 14.482 9.80385 14.1972C9.51897 13.9123 9.29439 13.5729 9.14351 13.1994C8.99262 12.8258 8.91853 12.4257 8.92563 12.0229C8.93274 11.6201 9.02091 11.2228 9.18488 10.8548C9.34884 10.4869 9.58525 10.1557 9.88 9.881M17.94 17.941C16.2306 19.244 14.1491 19.9659 12 20.001C5 20.001 1 12.001 1 12.001C2.24389 9.6829 3.96914 7.65761 6.06 6.061L17.94 17.941ZM9.9 4.241C10.5883 4.07988 11.2931 3.99934 12 4.001C19 4.001 23 12.001 23 12.001C22.393 13.1366 21.6691 14.2057 20.84 15.191L9.9 4.241Z" stroke="currentColor" stroke-width="2" stroke-linecap="round" stroke-linejoin="round"/>
<path d="M1 1.00098L23 23.001" stroke="currentColor" stroke-width="2" stroke-linecap="round" stroke-linejoin="round"/>
</g>
<defs>
<clipPath id="clip0_3545_1352">
<rect width="24" height="24" fill="white" transform="translate(0 0.000976562)"/>
</clipPath>
</defs>
</svg>
