<svg width="72" height="72" viewBox="0 0 72 72" fill="none" xmlns="http://www.w3.org/2000/svg">
<path d="M61 58H62C64.2091 58 66 56.2091 66 54V38C66 35.7909 64.2091 34 62 34H60H54M61 58L62.1422 63.815C62.3085 64.6617 61.3965 65.3074 60.6532 64.8692L49.47 58.2771C49.1623 58.0957 48.8116 58 48.4544 58H38C35.7909 58 34 56.2091 34 54V43M61 58H58" stroke="currentColor" stroke-width="2" stroke-linecap="round"/>
<path d="M44 46C44 47.1046 43.1046 48 42 48C40.8954 48 40 47.1046 40 46C40 44.8954 40.8954 44 42 44C43.1046 44 44 44.8954 44 46Z" stroke="currentColor" stroke-width="2"/>
<path d="M52 46C52 47.1046 51.1046 48 50 48C48.8954 48 48 47.1046 48 46C48 44.8954 48.8954 44 50 44C51.1046 44 52 44.8954 52 46Z" stroke="currentColor" stroke-width="2"/>
<path d="M60 46C60 47.1046 59.1046 48 58 48C56.8954 48 56 47.1046 56 46C56 44.8954 56.8954 44 58 44C59.1046 44 60 44.8954 60 46Z" stroke="currentColor" stroke-width="2"/>
<path d="M16 39C16.5523 39 17 38.5523 17 38C17 37.4477 16.5523 37 16 37V39ZM26.5272 38.2814L26.0157 37.4221L26.5272 38.2814ZM10.5884 45.8421L9.60424 45.6649L10.5884 45.8421ZM10 7H45V5H10V7ZM48 10V34H50V10H48ZM7 34V10H5V34H7ZM12 37H10V39H12V37ZM11.5726 46.0192L12.9842 38.1772L11.0158 37.8228L9.60424 45.6649L11.5726 46.0192ZM45 37H27.5502V39H45V37ZM26.0157 37.4221L11.5726 46.0192L12.5956 47.7378L27.0387 39.1407L26.0157 37.4221ZM12 39H16V37H12V39ZM27.5502 37C27.01 37 26.4799 37.1458 26.0157 37.4221L27.0387 39.1407C27.1934 39.0486 27.3701 39 27.5502 39V37ZM5 34C5 36.7614 7.23858 39 10 39V37C8.34315 37 7 35.6569 7 34H5ZM48 34C48 35.6569 46.6569 37 45 37V39C47.7614 39 50 36.7614 50 34H48ZM45 7C46.6569 7 48 8.34315 48 10H50C50 7.23858 47.7614 5 45 5V7ZM9.60424 45.6649C9.30048 47.3525 11.1221 48.6149 12.5956 47.7378L11.5726 46.0192H11.5726L9.60424 45.6649ZM10 5C7.23858 5 5 7.23858 5 10H7C7 8.34315 8.34315 7 10 7V5Z" fill="currentColor"/>
<path d="M14 26V21M18 17H14V21M14 21H18M21 26L22.3333 23M29 26L27.6667 23M27.6667 23L25 17L22.3333 23M27.6667 23H22.3333M37.5 23L41 27M36.5 17C34.0147 17 32 19.0147 32 21.5C32 23.9853 34.0147 26 36.5 26C38.9853 26 41 23.9853 41 21.5C41 19.0147 38.9853 17 36.5 17Z" stroke="currentColor" stroke-width="2" stroke-linecap="round" stroke-linejoin="round"/>
</svg>
