<svg width="24" height="24" viewBox="0 0 24 24" fill="none" xmlns="http://www.w3.org/2000/svg">
<path d="M5 5.50098C5 4.57272 5.36875 3.68248 6.02513 3.0261C6.6815 2.36973 7.57174 2.00098 8.5 2.00098H12V9.00098H8.5C7.57174 9.00098 6.6815 8.63223 6.02513 7.97585C5.36875 7.31947 5 6.42923 5 5.50098Z" stroke="currentColor" stroke-width="2" stroke-linecap="round" stroke-linejoin="round"/>
<path d="M12 2.00098H15.5C15.9596 2.00098 16.4148 2.09151 16.8394 2.2674C17.264 2.44329 17.6499 2.7011 17.9749 3.0261C18.2999 3.35111 18.5577 3.73694 18.7336 4.16158C18.9095 4.58622 19 5.04135 19 5.50098C19 5.9606 18.9095 6.41573 18.7336 6.84037C18.5577 7.26501 18.2999 7.65085 17.9749 7.97585C17.6499 8.30086 17.264 8.55866 16.8394 8.73456C16.4148 8.91045 15.9596 9.00098 15.5 9.00098H12V2.00098Z" stroke="currentColor" stroke-width="2" stroke-linecap="round" stroke-linejoin="round"/>
<path d="M12 12.501C12 12.0414 12.0905 11.5862 12.2664 11.1616C12.4423 10.7369 12.7001 10.3511 13.0251 10.0261C13.3501 9.7011 13.736 9.44329 14.1606 9.2674C14.5852 9.09151 15.0404 9.00098 15.5 9.00098C15.9596 9.00098 16.4148 9.09151 16.8394 9.2674C17.264 9.44329 17.6499 9.7011 17.9749 10.0261C18.2999 10.3511 18.5577 10.7369 18.7336 11.1616C18.9095 11.5862 19 12.0414 19 12.501C19 12.9606 18.9095 13.4157 18.7336 13.8404C18.5577 14.265 18.2999 14.6508 17.9749 14.9759C17.6499 15.3009 17.264 15.5587 16.8394 15.7346C16.4148 15.9104 15.9596 16.001 15.5 16.001C15.0404 16.001 14.5852 15.9104 14.1606 15.7346C13.736 15.5587 13.3501 15.3009 13.0251 14.9759C12.7001 14.6508 12.4423 14.265 12.2664 13.8404C12.0905 13.4157 12 12.9606 12 12.501V12.501Z" stroke="currentColor" stroke-width="2" stroke-linecap="round" stroke-linejoin="round"/>
<path d="M5 19.501C5 18.5727 5.36875 17.6825 6.02513 17.0261C6.6815 16.3697 7.57174 16.001 8.5 16.001H12V19.501C12 20.4292 11.6313 21.3195 10.9749 21.9759C10.3185 22.6322 9.42826 23.001 8.5 23.001C7.57174 23.001 6.6815 22.6322 6.02513 21.9759C5.36875 21.3195 5 20.4292 5 19.501Z" stroke="currentColor" stroke-width="2" stroke-linecap="round" stroke-linejoin="round"/>
<path d="M5 12.501C5 11.5727 5.36875 10.6825 6.02513 10.0261C6.6815 9.36973 7.57174 9.00098 8.5 9.00098H12V16.001H8.5C7.57174 16.001 6.6815 15.6322 6.02513 14.9759C5.36875 14.3195 5 13.4292 5 12.501Z" stroke="currentColor" stroke-width="2" stroke-linecap="round" stroke-linejoin="round"/>
</svg>
