<svg width="24" height="24" viewBox="0 0 24 24" fill="none" xmlns="http://www.w3.org/2000/svg">
<g clip-path="url(#clip0_3644_91605)">
<path d="M17 8.00032L17.651 7.24125L16.6785 6.40719L16.1056 7.5531L17 8.00032ZM14.4349 9.97454L13.8195 10.7628L14.0835 10.9689L14.4184 10.9744L14.4349 9.97454ZM14 7.00032L13.0736 6.62373L14 7.00032ZM11 2.00043L11.3162 1.05174L9.06887 0.302621L10.0996 2.43554L11 2.00043ZM9 6.00032L9.55902 6.82947L9 6.00032ZM5 10.0003L5.70711 9.29321L4.6343 8.2204L4.07138 9.62929L5 10.0003ZM11.9665 23L11.9572 24L11.9665 23ZM13 13.0001L13.7071 12.2929L12.7261 11.3119L12.1056 12.5528L13 13.0001ZM11 19L10.4 19.8C10.727 20.0452 11.1702 20.0668 11.5195 19.8545C11.8687 19.6422 12.0536 19.2387 11.9864 18.8356L11 19ZM9 16.0001H10V13.9195L8.37532 15.2192L9 16.0001ZM7 21.0976L6.34979 21.8574L7 21.0976ZM17 18L16.075 18.3801L17 18ZM14.4349 9.97454C15.0502 9.18631 15.0507 9.1867 15.0512 9.18708C15.0514 9.18721 15.0519 9.18759 15.0522 9.18784C15.0528 9.18835 15.0535 9.18883 15.0541 9.18931C15.0553 9.19026 15.0564 9.19117 15.0575 9.19202C15.0596 9.19373 15.0615 9.19524 15.0631 9.19656C15.0664 9.1992 15.0686 9.20107 15.0699 9.20216C15.0724 9.20435 15.0713 9.20353 15.0673 9.19973C15.0591 9.19203 15.0397 9.17307 15.0142 9.1431C14.9627 9.0825 14.8911 8.98297 14.8325 8.84537C14.7273 8.59859 14.6195 8.13173 14.9264 7.3769L13.0736 6.62373C12.5674 7.8689 12.6771 8.88915 12.9926 9.62948C13.1443 9.98544 13.3339 10.2545 13.4909 10.439C13.5697 10.5316 13.6415 10.6044 13.6984 10.6578C13.7268 10.6846 13.7518 10.7066 13.7722 10.7241C13.7825 10.7328 13.7916 10.7404 13.7995 10.7468C13.8034 10.75 13.8071 10.753 13.8104 10.7556C13.8121 10.757 13.8137 10.7582 13.8152 10.7594C13.816 10.76 13.8167 10.7606 13.8174 10.7611C13.8178 10.7614 13.8183 10.7618 13.8185 10.762C13.819 10.7624 13.8195 10.7628 14.4349 9.97454ZM17 8.00032C16.1056 7.5531 16.1057 7.55283 16.1058 7.55257C16.1059 7.5525 16.106 7.55224 16.1061 7.55209C16.1062 7.55178 16.1064 7.5515 16.1065 7.55125C16.1068 7.55075 16.1069 7.55036 16.1071 7.55009C16.1074 7.54954 16.1074 7.54945 16.1072 7.5498C16.1069 7.5505 16.1056 7.55295 16.1035 7.55703C16.0992 7.5652 16.0914 7.57983 16.0801 7.59999C16.0576 7.64044 16.0219 7.70231 15.9739 7.77829C15.8765 7.93238 15.7356 8.13351 15.56 8.32934C15.1772 8.756 14.7935 8.98031 14.4513 8.97467L14.4184 10.9744C15.6413 10.9945 16.5402 10.2317 17.0487 9.66485C17.3187 9.3639 17.5256 9.06664 17.6647 8.84653C17.7349 8.73542 17.7895 8.64124 17.8278 8.57242C17.847 8.53794 17.8622 8.50963 17.8733 8.48851C17.8789 8.47795 17.8834 8.46917 17.8869 8.4623C17.8887 8.45887 17.8902 8.45591 17.8914 8.45344C17.8921 8.45221 17.8926 8.4511 17.8931 8.45011C17.8934 8.44962 17.8936 8.44916 17.8938 8.44873C17.8939 8.44851 17.8941 8.44821 17.8941 8.4481C17.8943 8.44781 17.8944 8.44753 17 8.00032ZM8 11.0003C8.02626 11.0003 7.90717 10.9919 7.60551 10.8196C7.34068 10.6682 7.04228 10.4535 6.7497 10.2194C6.46102 9.98851 6.19821 9.75507 6.00641 9.57801C5.91103 9.48997 5.83447 9.41704 5.78249 9.36685C5.75652 9.34178 5.73676 9.32246 5.72394 9.30985C5.71754 9.30355 5.71287 9.29893 5.71003 9.29611C5.70861 9.2947 5.70765 9.29375 5.70716 9.29326C5.70691 9.29302 5.70679 9.29289 5.70678 9.29288C5.70677 9.29287 5.7068 9.2929 5.70685 9.29295C5.70688 9.29298 5.70694 9.29305 5.70696 9.29306C5.70703 9.29313 5.70711 9.29321 5 10.0003C4.29289 10.7074 4.29299 10.7075 4.29309 10.7076C4.29313 10.7077 4.29324 10.7078 4.29333 10.7079C4.29351 10.708 4.29372 10.7082 4.29395 10.7085C4.29443 10.709 4.29503 10.7096 4.29575 10.7103C4.29719 10.7117 4.29911 10.7136 4.30151 10.716C4.3063 10.7207 4.31298 10.7274 4.32147 10.7357C4.33843 10.7524 4.36262 10.776 4.3933 10.8057C4.45459 10.8648 4.54209 10.9482 4.64984 11.0476C4.86429 11.2456 5.16398 11.5121 5.5003 11.7812C5.83272 12.0471 6.22182 12.3324 6.61324 12.5561C6.96783 12.7587 7.47374 13.0003 8 13.0003V11.0003ZM11 2.00043C10.0996 2.43554 10.0993 2.43485 10.099 2.43416C10.0989 2.43394 10.0985 2.43326 10.0983 2.43282C10.0979 2.43194 10.0975 2.43108 10.0971 2.43025C10.0963 2.4286 10.0956 2.42704 10.0949 2.42559C10.0935 2.4227 10.0924 2.42021 10.0915 2.41814C10.0896 2.41399 10.0885 2.41145 10.0881 2.41047C10.0873 2.40852 10.0891 2.41266 10.0925 2.42243C10.0995 2.44214 10.1125 2.48327 10.1245 2.54246C10.1484 2.66051 10.1672 2.84672 10.1269 3.08061C10.0522 3.51468 9.74109 4.29462 8.44098 5.17116L9.55902 6.82947C11.2254 5.70601 11.9143 4.48601 12.0979 3.42013C12.1868 2.90405 12.1494 2.46529 12.0848 2.14586C12.0525 1.98631 12.0133 1.85557 11.979 1.7581C11.9618 1.70928 11.9457 1.6685 11.9322 1.63628C11.9254 1.62016 11.9193 1.60615 11.9139 1.59431C11.9112 1.58839 11.9087 1.58301 11.9065 1.57817C11.9054 1.57575 11.9043 1.57347 11.9033 1.57133C11.9027 1.57026 11.9023 1.56922 11.9018 1.56822C11.9015 1.56771 11.9012 1.56699 11.9011 1.56674C11.9007 1.56602 11.9004 1.56531 11 2.00043ZM21 14.5437C21 12.9456 20.7641 11.6082 20.1989 10.4039C19.6342 9.20068 18.7762 8.20627 17.651 7.24125L16.349 8.75938C17.3401 9.60944 17.9822 10.3882 18.3884 11.2536C18.7941 12.118 19 13.1448 19 14.5437H21ZM5 10.0003C4.07138 9.62929 4.07132 9.62942 4.07127 9.62957C4.07124 9.62963 4.07118 9.62979 4.07113 9.62991C4.07103 9.63016 4.07092 9.63045 4.07079 9.63077C4.07053 9.63142 4.07021 9.63222 4.06983 9.63317C4.06908 9.63507 4.06808 9.63759 4.06686 9.64069C4.06441 9.64691 4.06103 9.65551 4.05679 9.6664C4.04832 9.68819 4.03639 9.71917 4.02149 9.75862C3.99172 9.83748 3.95003 9.95038 3.90041 10.0914C3.80134 10.3731 3.66973 10.7696 3.538 11.2337C3.27939 12.1449 3 13.3854 3 14.5437H5C5 13.6614 5.22061 12.6303 5.462 11.7799C5.58027 11.3632 5.69866 11.0065 5.78709 10.7551C5.83122 10.6296 5.86766 10.5311 5.89257 10.4651C5.90502 10.4321 5.91457 10.4073 5.92075 10.3914C5.92383 10.3835 5.92607 10.3778 5.92741 10.3744C5.92807 10.3727 5.92851 10.3716 5.92872 10.3711C5.92882 10.3708 5.92886 10.3707 5.92885 10.3708C5.92884 10.3708 5.92882 10.3709 5.92878 10.3709C5.92876 10.371 5.92872 10.3711 5.92871 10.3711C5.92867 10.3712 5.92862 10.3713 5 10.0003ZM14.9264 7.3769C15.6149 5.68324 15.0839 4.18126 14.2328 3.11143C13.4087 2.07553 12.2312 1.35672 11.3162 1.05174L10.6838 2.94911C11.2688 3.14413 12.1083 3.65344 12.6677 4.35658C13.2001 5.02578 13.4191 5.77375 13.0736 6.62373L14.9264 7.3769ZM8.44098 5.17116C7.37612 5.88909 6.76789 6.75519 6.51458 7.69086C6.26818 8.60098 6.38686 9.46966 6.57158 10.1603C6.74693 10.816 7.03612 11.4693 7.13824 11.7466C7.21797 11.963 7.17841 11.924 7.18505 11.7912C7.19023 11.6876 7.23013 11.4317 7.46501 11.2186C7.69011 11.0145 7.93002 11.0003 8 11.0003V13.0003C8.19498 13.0003 8.52422 12.9581 8.80868 12.7001C9.10293 12.4332 9.17222 12.0977 9.18255 11.8911C9.1995 11.5522 9.07324 11.2135 9.01498 11.0553C8.84111 10.5832 8.64911 10.1874 8.50367 9.64361C8.3676 9.13485 8.32588 8.6538 8.44508 8.2135C8.55736 7.79876 8.84072 7.31375 9.55902 6.82947L8.44098 5.17116ZM11.9572 24C13.8616 24.0177 15.6374 23.3782 17.0957 22.3062L15.9111 20.6947C14.771 21.5328 13.4116 22.0134 11.9758 22L11.9572 24ZM17.0957 22.3062C19.443 20.5807 21 17.7126 21 14.5437H19C19 17.0583 17.7604 19.3353 15.9111 20.6947L17.0957 22.3062ZM12.1056 12.5528C11.8835 12.9969 11.6308 13.3917 11.3562 13.8155C11.0901 14.226 10.7915 14.6809 10.5431 15.1778C10.0152 16.2334 9.72735 17.4469 10.0136 19.1644L11.9864 18.8356C11.7726 17.5531 11.9848 16.7666 12.3319 16.0722C12.521 15.6941 12.7536 15.3366 13.0345 14.9033C13.3067 14.4833 13.6165 14.0032 13.8944 13.4473L12.1056 12.5528ZM11 19C11.6 18.2 11.6002 18.2001 11.6004 18.2003C11.6004 18.2003 11.6006 18.2004 11.6007 18.2005C11.6009 18.2006 11.601 18.2008 11.6011 18.2009C11.6014 18.2011 11.6016 18.2012 11.6016 18.2012C11.6016 18.2012 11.6012 18.2009 11.6004 18.2003C11.5987 18.199 11.5952 18.1963 11.5901 18.1924C11.5798 18.1844 11.563 18.1712 11.5405 18.1531C11.4953 18.1168 11.428 18.0614 11.346 17.9896C11.1805 17.8448 10.9624 17.64 10.7474 17.3981C10.2705 16.8616 10 16.355 10 16.0001H8C8 17.1451 8.72954 18.1384 9.2526 18.7269C9.53758 19.0475 9.81946 19.3114 10.029 19.4948C10.1345 19.5871 10.2234 19.6605 10.2877 19.7121C10.3198 19.738 10.3459 19.7585 10.365 19.7732C10.3745 19.7806 10.3822 19.7865 10.3881 19.791C10.3911 19.7932 10.3935 19.7951 10.3955 19.7966C10.3965 19.7974 10.3974 19.798 10.3981 19.7986C10.3985 19.7989 10.3988 19.7991 10.3992 19.7994C10.3993 19.7995 10.3995 19.7996 10.3996 19.7997C10.3998 19.7999 10.4 19.8 11 19ZM3 14.5437C3 17.4732 4.31539 20.1163 6.34979 21.8574L7.65021 20.3379C6.04486 18.964 5 16.8695 5 14.5437H3ZM6.34979 21.8574C7.88344 23.1699 9.83868 23.9802 11.9572 24L11.9758 22C10.3656 21.985 8.85625 21.37 7.65021 20.3379L6.34979 21.8574ZM8.37532 15.2192C6.88646 16.4102 6.29638 17.9302 6.07884 19.1188C5.97028 19.7119 5.95213 20.2319 5.96123 20.6067C5.9658 20.7948 5.97729 20.9486 5.98828 21.0593C5.99378 21.1148 5.99918 21.1597 6.00355 21.1929C6.00574 21.2095 6.00768 21.2233 6.00926 21.234C6.01004 21.2394 6.01074 21.244 6.01133 21.2478C6.01163 21.2497 6.0119 21.2514 6.01214 21.253C6.01226 21.2537 6.01237 21.2545 6.01248 21.2551C6.01253 21.2555 6.01261 21.2559 6.01263 21.2561C6.01271 21.2566 6.01278 21.257 7 21.0976C7.98722 20.9383 7.98729 20.9387 7.98735 20.9391C7.98737 20.9392 7.98744 20.9396 7.98748 20.9399C7.98755 20.9403 7.98762 20.9408 7.98768 20.9412C7.98781 20.942 7.9879 20.9426 7.98796 20.943C7.98809 20.9438 7.98811 20.9439 7.98803 20.9434C7.98786 20.9423 7.9873 20.9384 7.98644 20.9318C7.98471 20.9187 7.9818 20.8951 7.97851 20.8619C7.97192 20.7955 7.96389 20.6916 7.96064 20.5581C7.95412 20.2896 7.96723 19.9101 8.04616 19.4789C8.20362 18.6186 8.61354 17.5898 9.62468 16.7809L8.37532 15.2192ZM16.5034 21.5004C17.3259 22.0692 17.3261 22.0689 17.3264 22.0686C17.3264 22.0685 17.3266 22.0681 17.3268 22.0679C17.3271 22.0675 17.3274 22.067 17.3278 22.0665C17.3285 22.0654 17.3293 22.0643 17.3301 22.0631C17.3318 22.0606 17.3338 22.0577 17.3361 22.0543C17.3406 22.0476 17.3463 22.0391 17.353 22.0289C17.3663 22.0085 17.3839 21.9812 17.4047 21.9475C17.4463 21.8803 17.5015 21.7867 17.5637 21.6705C17.6872 21.4394 17.8425 21.1108 17.9716 20.7141C18.2255 19.9337 18.4075 18.7943 17.925 17.6199L16.075 18.3801C16.3096 18.9509 16.2433 19.5617 16.0697 20.0952C15.985 20.3555 15.8816 20.5747 15.8 20.7273C15.7596 20.8029 15.7256 20.8601 15.7037 20.8956C15.6927 20.9134 15.6848 20.9255 15.6808 20.9317C15.6788 20.9348 15.6777 20.9364 15.6777 20.9364C15.6777 20.9364 15.6779 20.936 15.6785 20.9352C15.6787 20.9348 15.6791 20.9343 15.6795 20.9337C15.6797 20.9335 15.6799 20.9331 15.6801 20.9328C15.6803 20.9326 15.6805 20.9323 15.6805 20.9322C15.6807 20.932 15.6809 20.9317 16.5034 21.5004ZM17.925 17.6199C17.5964 16.8204 17.0246 15.9809 16.3192 15.1183C15.6067 14.2468 14.7165 13.3023 13.7071 12.2929L12.2929 13.7072C13.2835 14.6977 14.12 15.5882 14.7709 16.3842C15.4289 17.189 15.857 17.8496 16.075 18.3801L17.925 17.6199Z" fill="currentColor"/>
</g>
<defs>
<clipPath id="clip0_3644_91605">
<rect width="24" height="24" fill="white" transform="translate(0 0.000976562)"/>
</clipPath>
</defs>
</svg>
