<svg width="24" height="24" viewBox="0 0 24 24" fill="none" xmlns="http://www.w3.org/2000/svg">
<path d="M12 22.001C17.5228 22.001 22 17.5238 22 12.001C22 6.47813 17.5228 2.00098 12 2.00098C6.47715 2.00098 2 6.47813 2 12.001C2 17.5238 6.47715 22.001 12 22.001Z" stroke="currentColor" stroke-width="2" stroke-linecap="round" stroke-linejoin="round"/>
<path d="M15.2929 16.7081C15.6834 17.0986 16.3166 17.0986 16.7071 16.7081C17.0976 16.3176 17.0976 15.6844 16.7071 15.2939L15.2929 16.7081ZM7.2 15.401C6.86863 15.8428 6.95817 16.4696 7.4 16.801C7.84183 17.1323 8.46863 17.0428 8.8 16.601L7.2 15.401ZM16.7071 15.2939C16.5771 15.1639 16.0419 14.4971 15.3235 13.9942C14.5434 13.4482 13.4706 13.001 12 13.001V15.001C13.0294 15.001 13.7066 15.3037 14.1765 15.6327C14.7081 16.0048 14.9229 16.3381 15.2929 16.7081L16.7071 15.2939ZM12 13.001C10.4745 13.001 9.27227 13.6119 8.47433 14.1922C8.07343 14.4838 7.76353 14.7753 7.55145 14.9966C7.445 15.1076 7.36201 15.2023 7.30336 15.2722C7.27401 15.3071 7.25065 15.336 7.23341 15.3578C7.22479 15.3687 7.21768 15.3778 7.21211 15.3851C7.20933 15.3887 7.20692 15.3918 7.2049 15.3945C7.20389 15.3958 7.20298 15.397 7.20216 15.3981C7.20175 15.3986 7.20137 15.3992 7.20101 15.3996C7.20083 15.3999 7.20058 15.4002 7.20049 15.4003C7.20024 15.4007 7.2 15.401 8 16.001C8.8 16.601 8.79977 16.6013 8.79955 16.6016C8.79948 16.6017 8.79926 16.602 8.79913 16.6021C8.79886 16.6025 8.79861 16.6028 8.79839 16.6031C8.79793 16.6037 8.79757 16.6042 8.79729 16.6046C8.79673 16.6053 8.79652 16.6056 8.79665 16.6054C8.79691 16.6051 8.79853 16.603 8.8015 16.5992C8.80745 16.5917 8.81877 16.5776 8.83531 16.5579C8.86846 16.5184 8.92219 16.4568 8.99543 16.3804C9.14272 16.2267 9.36407 16.0182 9.65067 15.8097C10.2277 15.39 11.0255 15.001 12 15.001V13.001Z" fill="currentColor"/>
<path d="M9 9.00098H9.01" stroke="currentColor" stroke-width="2" stroke-linecap="round" stroke-linejoin="round"/>
<path d="M15 9.00098H15.01" stroke="currentColor" stroke-width="2" stroke-linecap="round" stroke-linejoin="round"/>
</svg>
