<svg width="24" height="24" viewBox="0 0 24 24" fill="none" xmlns="http://www.w3.org/2000/svg">
<path d="M20 13.001V22.001H4V13.001" stroke="currentColor" stroke-width="2" stroke-linecap="round" stroke-linejoin="round"/>
<path d="M2 7.00098H22V12.001H2V7.00098Z" stroke="currentColor" stroke-width="2" stroke-linecap="round" stroke-linejoin="round"/>
<path d="M12 21.001V8.00098" stroke="currentColor" stroke-width="2" stroke-linecap="round" stroke-linejoin="round"/>
<path d="M12 7.00098H7.5C6.83696 7.00098 6.20107 6.73758 5.73223 6.26874C5.26339 5.7999 5 5.16402 5 4.50098C5 3.83794 5.26339 3.20205 5.73223 2.73321C6.20107 2.26437 6.83696 2.00098 7.5 2.00098C11 2.00098 12 7.00098 12 7.00098Z" stroke="currentColor" stroke-width="2" stroke-linecap="round" stroke-linejoin="round"/>
<path d="M12 7.00098H16.5C17.163 7.00098 17.7989 6.73758 18.2678 6.26874C18.7366 5.7999 19 5.16402 19 4.50098C19 3.83794 18.7366 3.20205 18.2678 2.73321C17.7989 2.26437 17.163 2.00098 16.5 2.00098C13 2.00098 12 7.00098 12 7.00098Z" stroke="currentColor" stroke-width="2" stroke-linecap="round" stroke-linejoin="round"/>
</svg>
