<svg width="24" height="24" viewBox="0 0 24 24" fill="none" xmlns="http://www.w3.org/2000/svg">
<path d="M18 21.001C19.6569 21.001 21 19.6578 21 18.001C21 16.3441 19.6569 15.001 18 15.001C16.3431 15.001 15 16.3441 15 18.001C15 19.6578 16.3431 21.001 18 21.001Z" stroke="currentColor" stroke-width="2" stroke-linecap="round" stroke-linejoin="round"/>
<path d="M6 9.00098C7.65685 9.00098 9 7.65783 9 6.00098C9 4.34412 7.65685 3.00098 6 3.00098C4.34315 3.00098 3 4.34412 3 6.00098C3 7.65783 4.34315 9.00098 6 9.00098Z" stroke="currentColor" stroke-width="2" stroke-linecap="round" stroke-linejoin="round"/>
<path d="M6 21.001V9.00098C6 11.3879 6.94821 13.6771 8.63604 15.3649C10.3239 17.0528 12.6131 18.001 15 18.001" stroke="currentColor" stroke-width="2" stroke-linecap="round" stroke-linejoin="round"/>
</svg>
