<svg width="24" height="24" viewBox="0 0 24 24" fill="none" xmlns="http://www.w3.org/2000/svg">
<path d="M18 21.001C19.6569 21.001 21 19.6578 21 18.001C21 16.3441 19.6569 15.001 18 15.001C16.3431 15.001 15 16.3441 15 18.001C15 19.6578 16.3431 21.001 18 21.001Z" stroke="currentColor" stroke-width="2" stroke-linecap="round" stroke-linejoin="round"/>
<path d="M6 9.00098C7.65685 9.00098 9 7.65783 9 6.00098C9 4.34412 7.65685 3.00098 6 3.00098C4.34315 3.00098 3 4.34412 3 6.00098C3 7.65783 4.34315 9.00098 6 9.00098Z" stroke="currentColor" stroke-width="2" stroke-linecap="round" stroke-linejoin="round"/>
<path d="M13 6.00098H16C16.5304 6.00098 17.0391 6.21169 17.4142 6.58676C17.7893 6.96184 18 7.47054 18 8.00098V14.001" stroke="currentColor" stroke-width="2" stroke-linecap="round" stroke-linejoin="round"/>
<path d="M6 10.001V21.001" stroke="currentColor" stroke-width="2" stroke-linecap="round" stroke-linejoin="round"/>
</svg>
