<svg width="24" height="24" viewBox="0 0 24 24" fill="none" xmlns="http://www.w3.org/2000/svg">
<path d="M6 3.00098V14.001" stroke="currentColor" stroke-width="2" stroke-linecap="round" stroke-linejoin="round"/>
<path d="M18 9.00098C19.6569 9.00098 21 7.65783 21 6.00098C21 4.34412 19.6569 3.00098 18 3.00098C16.3431 3.00098 15 4.34412 15 6.00098C15 7.65783 16.3431 9.00098 18 9.00098Z" stroke="currentColor" stroke-width="2" stroke-linecap="round" stroke-linejoin="round"/>
<path d="M6 21.001C7.65685 21.001 9 19.6578 9 18.001C9 16.3441 7.65685 15.001 6 15.001C4.34315 15.001 3 16.3441 3 18.001C3 19.6578 4.34315 21.001 6 21.001Z" stroke="currentColor" stroke-width="2" stroke-linecap="round" stroke-linejoin="round"/>
<path d="M18 9.00098C18 11.3879 17.0518 13.6771 15.364 15.3649C13.6761 17.0528 11.3869 18.001 9 18.001" stroke="currentColor" stroke-width="2" stroke-linecap="round" stroke-linejoin="round"/>
</svg>
