<svg width="24" height="24" viewBox="0 0 24 24" fill="none" xmlns="http://www.w3.org/2000/svg">
<g clip-path="url(#clip0_3545_1453)">
<path d="M9 19.001C4 20.501 4 16.501 2 16.001M16 22.001V18.131C16.0375 17.6541 15.9731 17.1748 15.811 16.7248C15.6489 16.2748 15.3929 15.8644 15.06 15.521C19 15.001 21.5664 12.5792 21.5 9.00098C21.469 7.33294 20.9627 6.01218 20 5.00098C21 3.00098 20 1.00098 20 1.00098C20 1.00098 18 1.00098 16 2.48098C14 2.00098 11 2.00098 9 2.48098C7 1.00098 5 1.00098 5 1.00098C5 1.00098 4 3.00098 5 5.00098C4.03013 6.01968 3.53297 7.33298 3.5 9.00098C3.42911 12.5875 6 15.001 9.94 15.551C9.611 15.8909 9.35726 16.2964 9.19531 16.7409C9.03335 17.1854 8.96681 17.659 9 18.131V22.001" stroke="currentColor" stroke-width="2" stroke-linecap="round" stroke-linejoin="round"/>
</g>
<defs>
<clipPath id="clip0_3545_1453">
<rect width="24" height="24" fill="white" transform="translate(0 0.000976562)"/>
</clipPath>
</defs>
</svg>
