<svg width="24" height="24" viewBox="0 0 24 24" fill="none" xmlns="http://www.w3.org/2000/svg">
<g clip-path="url(#clip0_3545_1450)">
<path d="M22.65 14.3909L12 22.1309L1.34999 14.3909C1.20722 14.2859 1.10131 14.1385 1.04743 13.9696C0.993542 13.8008 0.99444 13.6192 1.04999 13.4509L2.26999 9.67094L4.70999 2.16094C4.73366 2.09974 4.77133 2.04495 4.81999 2.00094C4.89923 1.92856 5.00267 1.88843 5.10999 1.88843C5.21731 1.88843 5.32075 1.92856 5.39999 2.00094C5.45137 2.0506 5.48924 2.11256 5.50999 2.18094L7.94999 9.67094H16.05L18.49 2.16094C18.5137 2.09974 18.5513 2.04495 18.6 2.00094C18.6792 1.92856 18.7827 1.88843 18.89 1.88843C18.9973 1.88843 19.1008 1.92856 19.18 2.00094C19.2314 2.0506 19.2692 2.11256 19.29 2.18094L21.73 9.69094L23 13.4509C23.0505 13.6244 23.0437 13.8096 22.9807 13.9789C22.9176 14.1482 22.8017 14.2927 22.65 14.3909V14.3909Z" stroke="currentColor" stroke-width="2" stroke-linecap="round" stroke-linejoin="round"/>
</g>
<defs>
<clipPath id="clip0_3545_1450">
<rect width="24" height="24" fill="white" transform="translate(0 0.000976562)"/>
</clipPath>
</defs>
</svg>
