<svg width="24" height="24" viewBox="0 0 24 24" fill="none" xmlns="http://www.w3.org/2000/svg">
<g clip-path="url(#clip0_4988_249)">
<path d="M23 16C22.7182 13.6697 20.8472 12.0131 18.5 12.0156C15.8776 12.0184 13.7356 14.3909 14 17M23 16C23 15 22 9.00436 22 9.00436C21.5 6.00437 21 5.00021 20 4.00021C18.8748 2.87499 17 3.00437 17 3.00437M23 16C23.274 18.6126 21.127 20.9982 18.5 21C16.1487 21.0016 14.2741 19.3352 14 17M14 17C12.4379 17 11.5621 17 10 17M10 17C9.73194 19.3359 7.85126 21.0076 5.5 21C3.01473 20.9919 1.0081 18.9852 1 16.5M10 17C10.2834 14.3883 8.12697 11.9923 5.5 12C3.01473 12.0072 1.00725 14.0147 1 16.5M1 16.5C1 15 2 9.00437 2 9.00437C2 9.00437 2.011 8.96566 2.01649 8.94631C2.5 5.99997 3.00956 4.99041 4 4.00021C5.14088 2.85961 7 3.00436 7 3.00436" stroke="currentColor" stroke-width="2" stroke-linecap="round" stroke-linejoin="round"/>
<path d="M1 16.0002L2 9.00513C2.5 6.00513 3 5.00098 4 4.00098C5.12522 2.87576 7 3.00513 7 3.00513" stroke="currentColor" stroke-width="2" stroke-linecap="round" stroke-linejoin="round"/>
</g>
<defs>
<clipPath id="clip0_4988_249">
<rect width="24" height="24" fill="white" transform="translate(0 0.000976562)"/>
</clipPath>
</defs>
</svg>
