<svg width="24" height="24" viewBox="0 0 24 24" fill="none" xmlns="http://www.w3.org/2000/svg">
<g clip-path="url(#clip0_3545_1026)">
<path fill-rule="evenodd" clip-rule="evenodd" d="M6.78947 1.00098H17.2105C18.746 1.00098 20.2186 1.61453 21.3043 2.70665C22.39 3.79877 23 5.45648 23 7.00098H1C1 5.45648 1.60996 3.79877 2.6957 2.70665C3.78143 1.61453 5.25401 1.00098 6.78947 1.00098ZM23 17.001C23 18.5455 22.39 20.2032 21.3043 21.2953C20.2186 22.3874 18.746 23.001 17.2105 23.001H6.78947C5.25401 23.001 3.78143 22.3874 2.6957 21.2953C1.60996 20.2032 1 18.5455 1 17.001H23ZM13.1579 10.001L15.4737 12.001L17.7895 10.001H21C22.317 10.001 23 10.8964 23 12.001C23 13.1055 22.045 14.001 21 14.001H3.00002C1.95502 14.001 1 13.1056 1 12.001C1 10.8964 1.68308 10.001 3.00002 10.001H13.1579Z" stroke="currentColor" stroke-width="2"/>
</g>
<defs>
<clipPath id="clip0_3545_1026">
<rect width="24" height="24" fill="white" transform="translate(0 0.000976562)"/>
</clipPath>
</defs>
</svg>
