<svg width="24" height="24" viewBox="0 0 24 24" fill="none" xmlns="http://www.w3.org/2000/svg">
<path d="M3 14.001V12.001C3 9.61403 3.94821 7.32484 5.63604 5.63702C7.32387 3.94919 9.61305 3.00098 12 3.00098C14.3869 3.00098 16.6761 3.94919 18.364 5.63702C20.0518 7.32484 21 9.61403 21 12.001V14.001" stroke="currentColor" stroke-width="2" stroke-linecap="round" stroke-linejoin="round"/>
<path d="M21 19.001C21 19.5314 20.7893 20.0401 20.4142 20.4152C20.0391 20.7903 19.5304 21.001 19 21.001H18C17.4696 21.001 16.9609 20.7903 16.5858 20.4152C16.2107 20.0401 16 19.5314 16 19.001V16.001C16 15.4705 16.2107 14.9618 16.5858 14.5868C16.9609 14.2117 17.4696 14.001 18 14.001H21V19.001ZM3 19.001C3 19.5314 3.21071 20.0401 3.58579 20.4152C3.96086 20.7903 4.46957 21.001 5 21.001H6C6.53043 21.001 7.03914 20.7903 7.41421 20.4152C7.78929 20.0401 8 19.5314 8 19.001V16.001C8 15.4705 7.78929 14.9618 7.41421 14.5868C7.03914 14.2117 6.53043 14.001 6 14.001H3V19.001Z" stroke="currentColor" stroke-width="2" stroke-linecap="round" stroke-linejoin="round"/>
</svg>
