<svg width="56" height="56" viewBox="0 0 56 56" fill="none" xmlns="http://www.w3.org/2000/svg">
<path d="M8 9.00001C7.00001 11 7 11 5 12C7 13 7.00001 13 8.00001 15C9.00001 13 9.00001 13 11 12C9.00001 11 9.00001 11 8 9.00001ZM46.9999 43C45.9999 45 44.9999 46 42.9999 47C44.9999 48 45.9999 49 46.9999 51C47.9999 49 48.9999 48 50.9999 47C48.9999 46 47.9999 45 46.9999 43ZM16.5 4.99999C15.6716 4.99999 15 5.67157 15 6.49999C15 7.32842 15.6716 8 16.5 8C17.3284 8 18 7.32842 18 6.49999C18 5.67157 17.3284 4.99999 16.5 4.99999Z" stroke="currentColor" stroke-width="2" stroke-linecap="round" stroke-linejoin="round"/>
<path d="M15.0763 26C14.9391 23.6937 14.992 21.7412 15.194 20.6007C15.9718 16.2088 17.0704 14.5812 18.6126 13.3015C22.1415 10.3731 25.5301 13.3015 29.9599 13.3015C34.3897 13.3015 37.7317 10.3921 41.2378 13.3015C42.7799 14.5812 43.9477 16.2088 44.7258 20.6007C45.0316 22.327 45.1254 25.7123 44.7786 29.3846C44.096 36.6128 41.7726 44.7565 35.8662 43.9437C32.2335 43.4439 34.3897 36.7045 29.9599 36.7045C25.5301 36.7045 27.6863 43.4439 24.0535 43.9437C22.5647 44.1486 21.3339 43.7803 20.3111 43" stroke="currentColor" stroke-width="2" stroke-linecap="round" stroke-linejoin="round"/>
<path d="M14.1545 30H13.8455C12.8415 30 11.9932 30.7442 11.8625 31.7396L11.6999 32.9774C11.582 33.8754 10.8754 34.582 9.97736 34.6999L8.73961 34.8625C7.74424 34.9932 7 35.8415 7 36.8455V37.1545C7 38.1585 7.74424 39.0068 8.73961 39.1375L9.97736 39.3001C10.8754 39.418 11.582 40.1246 11.6999 41.0226L11.8625 42.2604C11.9932 43.2558 12.8415 44 13.8455 44H14.1545C15.1585 44 16.0068 43.2558 16.1375 42.2604L16.3001 41.0226C16.418 40.1246 17.1246 39.418 18.0226 39.3001L19.2604 39.1375C20.2558 39.0068 21 38.1585 21 37.1545V36.8455C21 35.8415 20.2558 34.9932 19.2604 34.8625L18.0226 34.6999C17.1246 34.582 16.418 33.8754 16.3001 32.9774L16.1375 31.7396C16.0068 30.7442 15.1585 30 14.1545 30Z" stroke="currentColor" stroke-width="2"/>
<path d="M24 21V22.3846M36 21V22.3846M24 28C24 28 27 30 30 30C33 30 36 28 36 28" stroke="currentColor" stroke-width="2" stroke-linecap="round" stroke-linejoin="round"/>
</svg>
