<svg width="24" height="24" viewBox="0 0 24 24" fill="none" xmlns="http://www.w3.org/2000/svg">
<path d="M21.3036 3.76912C20.766 3.20857 20.1278 2.7639 19.4253 2.46051C18.7228 2.15713 17.9699 2.00098 17.2095 2.00098C16.4491 2.00098 15.6961 2.15713 14.9936 2.46051C14.2912 2.7639 13.6529 3.20857 13.1153 3.76912L11.9997 4.93192L10.8841 3.76912C9.79827 2.63737 8.32556 2.00156 6.78997 2.00156C5.25437 2.00156 3.78167 2.63737 2.69584 3.76912C1.61001 4.90087 1 6.43585 1 8.03638C1 9.63692 1.61001 11.1719 2.69584 12.3036L3.81147 13.4664L11.9997 22.001L20.188 13.4664L21.3036 12.3036C21.8414 11.7434 22.268 11.0781 22.5591 10.3459C22.8502 9.61373 23 8.82894 23 8.03638C23 7.24383 22.8502 6.45904 22.5591 5.72685C22.268 4.99466 21.8414 4.32941 21.3036 3.76912V3.76912Z" stroke="currentColor" stroke-width="2" stroke-linecap="round" stroke-linejoin="round"/>
</svg>
