<svg width="24" height="24" viewBox="0 0 24 24" fill="none" xmlns="http://www.w3.org/2000/svg">
<path d="M12 22.001C17.5228 22.001 22 17.5238 22 12.001C22 6.47813 17.5228 2.00098 12 2.00098C6.47715 2.00098 2 6.47813 2 12.001C2 17.5238 6.47715 22.001 12 22.001Z" stroke="currentColor" stroke-width="2" stroke-linecap="round" stroke-linejoin="round"/>
<path d="M8 8.67162C8.32261 7.78117 8.95939 7.03032 9.79754 6.55204C10.6357 6.07377 11.6211 5.89894 12.5793 6.05852C13.5375 6.2181 14.4066 6.70179 15.0327 7.42392C15.6588 8.14605 16.0014 9.06003 16 10.004C16 12.6686 11.8834 14.001 11.8834 14.001" stroke="currentColor" stroke-width="2" stroke-linecap="round" stroke-linejoin="round"/>
<path d="M12 18.001H12.01" stroke="currentColor" stroke-width="2" stroke-linecap="round" stroke-linejoin="round"/>
</svg>
