<svg width="24" height="24" viewBox="0 0 24 24" fill="none" xmlns="http://www.w3.org/2000/svg">
<path d="M21 16.001V8.001C20.9996 7.65028 20.9071 7.30581 20.7315 7.00216C20.556 6.69852 20.3037 6.44636 20 6.271L13 2.271C12.696 2.09546 12.3511 2.00305 12 2.00305C11.6489 2.00305 11.304 2.09546 11 2.271L4 6.271C3.69626 6.44636 3.44398 6.69852 3.26846 7.00216C3.09294 7.30581 3.00036 7.65028 3 8.001V16.001C3.00036 16.3517 3.09294 16.6962 3.26846 16.9998C3.44398 17.3035 3.69626 17.5556 4 17.731L11 21.731C11.304 21.9065 11.6489 21.999 12 21.999C12.3511 21.999 12.696 21.9065 13 21.731L20 17.731C20.3037 17.5556 20.556 17.3035 20.7315 16.9998C20.9071 16.6962 20.9996 16.3517 21 16.001Z" stroke="currentColor" stroke-width="2" stroke-linecap="round" stroke-linejoin="round"/>
</svg>
