<svg width="56" height="56" viewBox="0 0 56 56" fill="none" xmlns="http://www.w3.org/2000/svg">
<path d="M9 48C11 47 11 47 12 45C13 47 13 47 15 48C13 49 13 49 12 51C11 49 11 49 9 48Z" stroke="currentColor" stroke-width="2" stroke-linecap="round" stroke-linejoin="round"/>
<path d="M43 8.99999C45 7.99999 46 6.99999 47 4.99997C48 6.99999 49 7.99999 51 8.99999C49 9.99999 48 11 47 13C46 11 45 9.99999 43 8.99999Z" stroke="currentColor" stroke-width="2" stroke-linecap="round" stroke-linejoin="round"/>
<path d="M5 39.5C5 38.6716 5.67157 38 6.5 38C7.32843 38 8 38.6716 8 39.5C8 40.3284 7.32843 41 6.5 41C5.67157 41 5 40.3284 5 39.5Z" stroke="currentColor" stroke-width="2" stroke-linecap="round" stroke-linejoin="round"/>
<path d="M22 43L23.3813 38.1656C23.7106 37.0134 24.9749 36.412 26.1347 36.7133C26.7537 36.874 27.4143 36.9986 27.9788 37C28.5566 37.0014 29.2343 36.8744 29.8671 36.7104C31.0263 36.41 32.2892 37.012 32.6182 38.1634L34 43M14.0364 41C14.0364 41 20.9788 44 27.9788 44C34.9788 44 42.0001 41 42.0001 41M21 40C21 40 24.7797 41 28 41C31.2203 41 35 40 35 40M39.2426 11.3015C40.7828 12.5812 41.9491 14.2088 42.7262 18.6007C43.0317 20.327 43.1254 23.7123 42.779 27.3846C42.6975 28.249 42.4608 30 42.4608 30C42.4608 30 34.9575 33 27.9788 33C21.0001 33 14.0364 30 14.0364 30C14.0364 30 13.5909 28.2443 13.4554 27.3846C12.8428 23.5 12.9335 20.2849 13.2314 18.6007C14.0082 14.2088 15.1055 12.5812 16.6457 11.3015C20.1702 8.37308 23.5546 11.3015 27.9788 11.3015C32.4031 11.3015 35.7409 8.39209 39.2426 11.3015Z" stroke="currentColor" stroke-width="2" stroke-linecap="round" stroke-linejoin="round"/>
<path d="M22.0001 18V19.3846M34.0001 18V19.3846M22.0001 25C22.0001 25 25.0001 27 28.0001 27C31.0001 27 34.0001 25 34.0001 25" stroke="currentColor" stroke-width="2" stroke-linecap="round" stroke-linejoin="round"/>
</svg>
