<svg width="56" height="56" viewBox="0 0 56 56" fill="none" xmlns="http://www.w3.org/2000/svg">
<path d="M13.2314 16.6007C14.0082 12.2088 15.1055 10.5812 16.6457 9.30153C20.1702 6.37308 23.5546 9.30154 27.9788 9.30153C32.4031 9.30153 35.7409 6.39209 39.2426 9.30153C40.7828 10.5812 41.9491 12.2088 42.7262 16.6007C43.0317 18.327 43.1254 21.7123 42.779 25.3846C42.6975 26.249 42.4608 28 42.4608 28C42.4608 28 34.9575 31 27.9788 31C21.0001 31 14.0364 28 14.0364 28C14.0364 28 13.5909 26.2443 13.4554 25.3846C12.8428 21.5 12.9335 18.2849 13.2314 16.6007Z" stroke="currentColor" stroke-width="2" stroke-linecap="round" stroke-linejoin="round"/>
<path d="M21 35L23.5665 50.2619C23.7803 51.5331 25.1281 52.2688 26.3823 51.9714C26.9221 51.8434 27.4784 51.7512 27.9636 51.75C28.4634 51.7487 29.038 51.8436 29.5936 51.9754C30.8456 52.2724 32.1908 51.5382 32.4063 50.2696L35 35M21.5 45L27.9636 47L34 49M20.5 40L27.9636 42L35 44M16 29L17 33C17 33 20.9636 35 27.9636 35C34.9636 35 39 33 39 33L40 29M36 39L20 35" stroke="currentColor" stroke-width="2" stroke-linecap="round" stroke-linejoin="round"/>
<path d="M22.0001 16V17.3846M34.0001 16V17.3846M22.0001 23C22.0001 23 25.0001 25 28.0001 25C31.0001 25 34.0001 23 34.0001 23" stroke="currentColor" stroke-width="2" stroke-linecap="round" stroke-linejoin="round"/>
<path d="M47 45C49 44 49 44 50 42C51 44 51 44 53 45C51 46 51 46 50 48C49 46 49 46 47 45Z" stroke="currentColor" stroke-width="2" stroke-linecap="round" stroke-linejoin="round"/>
<path d="M43 51.5C43 50.6716 43.6716 50 44.5 50C45.3284 50 46 50.6716 46 51.5C46 52.3284 45.3284 53 44.5 53C43.6716 53 43 52.3284 43 51.5Z" stroke="currentColor" stroke-width="2" stroke-linecap="round" stroke-linejoin="round"/>
</svg>
