<svg width="24" height="24" viewBox="0 0 24 24" fill="none" xmlns="http://www.w3.org/2000/svg">
<path d="M21 12.001H16L14 15.001H10L8 12.001H3" stroke="currentColor" stroke-width="2" stroke-linecap="round" stroke-linejoin="round"/>
<path d="M5.45 5.11101L2 12.001V18.001C2 18.5314 2.21071 19.0401 2.58579 19.4152C2.96086 19.7903 3.46957 20.001 4 20.001H20C20.5304 20.001 21.0391 19.7903 21.4142 19.4152C21.7893 19.0401 22 18.5314 22 18.001V12.001L18.55 5.11101C18.3844 4.77779 18.1292 4.49738 17.813 4.30129C17.4967 4.1052 17.1321 4.0012 16.76 4.00101H7.24C6.86792 4.0012 6.50326 4.1052 6.18704 4.30129C5.87083 4.49738 5.61558 4.77779 5.45 5.11101V5.11101Z" stroke="currentColor" stroke-width="2" stroke-linecap="round" stroke-linejoin="round"/>
</svg>
