<svg width="24" height="24" viewBox="0 0 24 24" fill="none" xmlns="http://www.w3.org/2000/svg">
<path d="M17 2.00098H7C4.23858 2.00098 2 4.23955 2 7.00098V17.001C2 19.7624 4.23858 22.001 7 22.001H17C19.7614 22.001 22 19.7624 22 17.001V7.00098C22 4.23955 19.7614 2.00098 17 2.00098Z" stroke="currentColor" stroke-width="2" stroke-linecap="round" stroke-linejoin="round"/>
<path d="M16 11.371C16.1234 12.2033 15.9813 13.0533 15.5938 13.8C15.2063 14.5468 14.5932 15.1524 13.8416 15.5307C13.0901 15.909 12.2385 16.0406 11.4078 15.907C10.5771 15.7733 9.80977 15.3811 9.21485 14.7862C8.61993 14.1913 8.22774 13.4239 8.09408 12.5932C7.96042 11.7626 8.09208 10.9109 8.47034 10.1594C8.8486 9.40789 9.4542 8.79477 10.201 8.40728C10.9478 8.01978 11.7978 7.87762 12.63 8.00103C13.4789 8.12692 14.2649 8.5225 14.8717 9.12934C15.4785 9.73618 15.8741 10.5221 16 11.371Z" stroke="currentColor" stroke-width="2" stroke-linecap="round" stroke-linejoin="round"/>
<path d="M17.5 6.50098H17.51" stroke="currentColor" stroke-width="2" stroke-linecap="round" stroke-linejoin="round"/>
</svg>
