<svg width="24" height="24" viewBox="0 0 24 24" fill="none" xmlns="http://www.w3.org/2000/svg">
<path d="M16 3.00098H18C18.5304 3.00098 19.0391 3.21169 19.4142 3.58676C19.7893 3.96184 20 4.47054 20 5.00098V8C20 8 20 10 22 12.001C20 14 20 16 20 16V19.001C20 19.5314 19.7893 20.0401 19.4142 20.4152C19.0391 20.7903 18.5304 21.001 18 21.001H16" stroke="currentColor" stroke-width="2" stroke-linecap="round" stroke-linejoin="round"/>
<path d="M8 3.00098H6C5.46957 3.00098 4.96086 3.21169 4.58579 3.58676C4.21071 3.96184 4 4.47054 4 5.00098V8C4 8 4 10 2 12.001C4 14 4 16 4 16V19.001C4 19.5314 4.21071 20.0401 4.58579 20.4152C4.96086 20.7903 5.46957 21.001 6 21.001H8" stroke="currentColor" stroke-width="2" stroke-linecap="round" stroke-linejoin="round"/>
<path d="M8 11C7.44772 11 7 11.4477 7 12C7 12.5523 7.44772 13 8 13V11ZM8.01 13C8.56228 13 9.01 12.5523 9.01 12C9.01 11.4477 8.56228 11 8.01 11V13ZM8 13H8.01V11H8V13Z" fill="currentColor"/>
<path d="M12 11C11.4477 11 11 11.4477 11 12C11 12.5523 11.4477 13 12 13V11ZM12.01 13C12.5623 13 13.01 12.5523 13.01 12C13.01 11.4477 12.5623 11 12.01 11V13ZM12 13H12.01V11H12V13Z" fill="currentColor"/>
<path d="M16 11C15.4477 11 15 11.4477 15 12C15 12.5523 15.4477 13 16 13V11ZM16.01 13C16.5623 13 17.01 12.5523 17.01 12C17.01 11.4477 16.5623 11 16.01 11V13ZM16 13H16.01V11H16V13Z" fill="currentColor"/>
</svg>
