<svg width="72" height="72" viewBox="0 0 72 72" fill="none" xmlns="http://www.w3.org/2000/svg">
<path d="M44.9999 2H8.99988C6.79074 2 4.99988 3.79086 4.99988 6V66C4.99988 68.2091 6.79074 70 8.99988 70H13.9999M44.9999 2V9C44.9999 11.2091 46.7907 13 48.9999 13H54.9999M44.9999 2L54.9999 13M54.9999 13V21M27.9999 70H50.9999C53.209 70 54.9999 68.2091 54.9999 66V64" stroke="currentColor" stroke-width="2" stroke-linecap="round" stroke-linejoin="round"/>
<path d="M11.9999 30H42.9999M11.9999 35H41.9999M11.9999 40H41.9999M31.9999 45H42.9999" stroke="currentColor" stroke-width="2" stroke-linecap="round" stroke-linejoin="round"/>
<path d="M23.0905 12.7628C23.4535 10.8414 23.9662 10.1293 24.6859 9.56942C26.3327 8.28822 27.9141 9.56942 29.9813 9.56942C32.0485 9.56942 33.6081 8.29654 35.2443 9.56942C35.9639 10.1293 36.5089 10.8413 36.872 12.7628C37.0148 13.5181 37.0585 14.9991 36.8967 16.6058C36.5781 19.7681 35.4939 23.3309 32.7376 22.9754C31.0423 22.7567 32.0485 19.8082 29.9813 19.8082C27.9141 19.8082 28.9203 22.7567 27.225 22.9754C24.4687 23.3309 23.6078 19.7402 23.1834 16.6058C22.9636 14.9828 22.9527 13.4927 23.0905 12.7628Z" stroke="currentColor" stroke-width="2" stroke-linejoin="round"/>
<path d="M23.9999 62V70L20.9999 66.8571L17.9999 70V62" stroke="currentColor" stroke-width="2" stroke-linecap="round" stroke-linejoin="round"/>
<path d="M15.059 47.3426C15.4218 45.6226 17.2417 44.5972 18.9496 45.1506C20.4502 45.6369 21.5069 45.6507 23.0502 45.1506C24.758 44.5972 26.578 45.6226 26.9408 47.3426C27.269 48.8983 27.8095 49.7832 28.9911 50.808C30.3361 51.9746 30.3361 54.0254 28.9911 55.192C27.7758 56.2461 27.2599 57.1447 26.9408 58.6574C26.578 60.3774 24.758 61.4028 23.0502 60.8494C21.507 60.3493 20.4502 60.3631 18.9496 60.8494C17.2417 61.4028 15.4218 60.3774 15.059 58.6574C14.7308 57.1017 14.1902 56.2168 13.0086 55.192C11.6636 54.0254 11.6636 51.9746 13.0086 50.808C14.2239 49.7539 14.7399 48.8553 15.059 47.3426Z" stroke="currentColor" stroke-width="2"/>
<path d="M63.9999 60H64.9999C66.1044 60 66.9999 59.1046 66.9999 58V56C66.9999 53.7909 65.209 52 62.9999 52H44.9999C42.7907 52 40.9999 53.7909 40.9999 56V58C40.9999 59.1046 41.8953 60 42.9999 60H43.9999M63.9999 60V62C63.9999 63.1046 63.1044 64 61.9999 64H45.9999C44.8953 64 43.9999 63.1046 43.9999 62V60M63.9999 60H43.9999" stroke="currentColor" stroke-width="2"/>
<path d="M46.9999 52L47.5001 50.9996C48.4864 49.027 48.9999 46.8518 48.9999 44.6463V44.6463C48.9999 42.8972 48.6768 41.163 48.047 39.5312L47.0701 37M47.0701 37C46.3895 35.8233 45.9999 34.4571 45.9999 33C45.9999 28.5817 49.5816 25 53.9999 25C58.4182 25 61.9999 28.5817 61.9999 33C61.9999 33.7243 61.9036 34.4261 61.7232 35.0934C61.3634 36.4242 60.6803 37.646 60.1839 38.9321L59.9698 39.4868C59.3287 41.148 58.9999 42.9133 58.9999 44.6939V44.6939C58.9999 46.8699 59.4909 49.0178 60.4364 50.9777L60.9296 52M47.0701 37C47.9578 38.5345 49.3405 39.7468 50.9999 40.4185" stroke="currentColor" stroke-width="2" stroke-linecap="round" stroke-linejoin="round"/>
</svg>
