<svg width="24" height="24" viewBox="0 0 24 24" fill="none" xmlns="http://www.w3.org/2000/svg">
<path d="M16 8.00098C17.5913 8.00098 19.1174 8.63312 20.2426 9.75834C21.3679 10.8836 22 12.4097 22 14.001V21.001H18V14.001C18 13.4705 17.7893 12.9618 17.4142 12.5868C17.0391 12.2117 16.5304 12.001 16 12.001C15.4696 12.001 14.9609 12.2117 14.5858 12.5868C14.2107 12.9618 14 13.4705 14 14.001V21.001H10V14.001C10 12.4097 10.6321 10.8836 11.7574 9.75834C12.8826 8.63312 14.4087 8.00098 16 8.00098V8.00098Z" stroke="currentColor" stroke-width="2" stroke-linecap="round" stroke-linejoin="round"/>
<path d="M2 9.00098H6V21.001H2V9.00098Z" stroke="currentColor" stroke-width="2" stroke-linecap="round" stroke-linejoin="round"/>
<path d="M4 6.00098C5.10457 6.00098 6 5.10555 6 4.00098C6 2.89641 5.10457 2.00098 4 2.00098C2.89543 2.00098 2 2.89641 2 4.00098C2 5.10555 2.89543 6.00098 4 6.00098Z" stroke="currentColor" stroke-width="2" stroke-linecap="round" stroke-linejoin="round"/>
</svg>
