<svg width="24" height="24" viewBox="0 0 24 24" fill="none" xmlns="http://www.w3.org/2000/svg">
<path d="M10 13.001C10.4295 13.5751 10.9774 14.0502 11.6066 14.3939C12.2357 14.7377 12.9315 14.9421 13.6467 14.9933C14.3618 15.0446 15.0796 14.9414 15.7513 14.6908C16.4231 14.4402 17.0331 14.0481 17.54 13.541L20.54 10.541C21.4508 9.59799 21.9548 8.33498 21.9434 7.024C21.932 5.71301 21.4061 4.45895 20.4791 3.53191C19.5521 2.60487 18.298 2.07902 16.987 2.06763C15.676 2.05624 14.413 2.56021 13.47 3.471L11.75 5.181" stroke="currentColor" stroke-width="2" stroke-linecap="round" stroke-linejoin="round"/>
<path d="M14 11.001C13.5705 10.4269 13.0226 9.95182 12.3935 9.60806C11.7643 9.26431 11.0685 9.05989 10.3534 9.00867C9.63821 8.95745 8.92041 9.06064 8.24866 9.31122C7.5769 9.56181 6.96689 9.95393 6.46 10.461L3.46 13.461C2.54921 14.404 2.04524 15.667 2.05663 16.978C2.06802 18.289 2.59387 19.5431 3.52091 20.4701C4.44795 21.3971 5.70201 21.923 7.013 21.9344C8.32398 21.9458 9.58699 21.4418 10.53 20.531L12.24 18.821" stroke="currentColor" stroke-width="2" stroke-linecap="round" stroke-linejoin="round"/>
</svg>
