<svg width="24" height="24" viewBox="0 0 24 24" fill="none" xmlns="http://www.w3.org/2000/svg">
<path d="M15 7.00101H18C18.6566 7.00101 19.3068 7.13034 19.9134 7.38161C20.52 7.63288 21.0712 8.00118 21.5355 8.46547C21.9998 8.92977 22.3681 9.48096 22.6194 10.0876C22.8707 10.6942 23 11.3444 23 12.001C23 12.6576 22.8707 13.3078 22.6194 13.9144C22.3681 14.5211 21.9998 15.0722 21.5355 15.5365C21.0712 16.0008 20.52 16.3691 19.9134 16.6204C19.3068 16.8717 18.6566 17.001 18 17.001H15M9 17.001H6C5.34339 17.001 4.69321 16.8717 4.08658 16.6204C3.47995 16.3691 2.92876 16.0008 2.46447 15.5365C1.52678 14.5989 1 13.3271 1 12.001C1 10.6749 1.52678 9.40316 2.46447 8.46547C3.40215 7.52779 4.67392 7.00101 6 7.00101H9" stroke="currentColor" stroke-width="2" stroke-linecap="round" stroke-linejoin="round"/>
<path d="M8 12.001H16" stroke="currentColor" stroke-width="2" stroke-linecap="round" stroke-linejoin="round"/>
</svg>
