<svg width="24" height="24" viewBox="0 0 24 24" fill="none" xmlns="http://www.w3.org/2000/svg">
<path d="M19 11.001H5C3.89543 11.001 3 11.8964 3 13.001V20.001C3 21.1055 3.89543 22.001 5 22.001H19C20.1046 22.001 21 21.1055 21 20.001V13.001C21 11.8964 20.1046 11.001 19 11.001Z" stroke="currentColor" stroke-width="2" stroke-linecap="round" stroke-linejoin="round"/>
<path d="M7 10.001V7.00098C7 5.67489 7.52678 4.40312 8.46447 3.46544C9.40215 2.52776 10.6739 2.00098 12 2.00098C13.3261 2.00098 14.5979 2.52776 15.5355 3.46544C16.4732 4.40312 17 5.67489 17 7.00098V10.001" stroke="currentColor" stroke-width="2" stroke-linecap="round" stroke-linejoin="round"/>
</svg>
