<svg width="32" height="32" viewBox="0 0 32 32" fill="none" xmlns="http://www.w3.org/2000/svg">
<path d="M16.857 6.95626C17.5714 7.03647 18.0654 6.95058 18.5872 6.85988C19.0393 6.78128 19.49 6.67986 19.948 6.64306C20.1533 6.62657 20.465 6.59482 20.5931 6.79854C20.7619 7.06715 20.4363 7.278 20.2366 7.38486C20.0116 7.50528 19.663 7.65455 19.1855 7.83182C18.6318 8.04305 18.0298 8.14669 17.6545 8.19787L17.6431 8.19942L17.6316 8.1999C16.3713 8.2522 14.8538 7.83567 13.4395 7.43574C12.59 7.20769 11.758 6.97204 10.9718 6.82321C10.2793 6.69212 9.54975 6.602 8.85035 6.73552C7.05217 7.0573 6.39505 9.09614 6.3072 10.6887C6.20328 12.623 6.30502 14.569 6.62128 16.4804C6.93461 18.4739 7.50958 20.4211 8.24372 22.323C8.40281 22.7279 8.81684 23.7627 9.32876 24.5444C9.5934 24.9485 9.83246 25.2589 10.0998 25.429L10.1087 25.4346C10.2742 25.5611 10.4974 25.6348 10.6911 25.5239C10.7714 25.4779 10.8376 25.4245 10.9046 25.3607C11.609 24.639 12.1207 23.6197 12.597 22.6096L12.5999 22.6035C12.9662 21.8793 13.3321 21.141 13.7754 20.5356C14.2206 19.9278 14.7602 19.4304 15.487 19.2071C16.4388 18.8781 17.5876 18.8162 18.5695 19.0748C18.7644 19.1262 19.0184 19.2102 19.0832 19.4264C19.1622 19.6904 18.9062 19.8503 18.6955 19.9226C18.3673 20.0354 18.0181 20.0583 17.6765 20.1039C16.9995 20.1944 16.4548 20.2672 15.7677 20.7906C15.4394 21.0604 15.1423 21.5012 14.8502 22.0649C14.0813 23.5489 13.6259 25.1965 12.714 26.6061C12.2349 27.3467 11.6365 27.9363 10.8308 27.9955C10.0278 28.0544 9.27249 27.5268 8.63118 26.8637L8.62855 26.861C7.70675 25.8777 6.95408 24.492 6.62811 23.6643C5.82755 21.8292 5.13798 19.3444 4.60926 16.8718L4.60817 16.8664C4.18466 14.6434 3.91647 12.354 4.02363 10.5611L4.0259 10.5155C4.07737 9.48246 4.1338 8.34985 4.51553 7.41156C4.91044 6.39008 5.64848 5.58394 6.92703 5.10647L6.93125 5.10493C8.20646 4.65516 9.63054 4.73957 10.99 5.03356C12.3502 5.32772 13.6725 5.83803 14.7534 6.26575C15.7153 6.62279 16.4429 6.91235 16.8555 6.9561L16.857 6.95626Z" fill="currentColor"/>
<path d="M22.0006 24.6309C22.1368 24.798 22.2339 24.8777 22.3006 24.9031C22.4717 24.9685 22.5888 24.8859 22.7173 24.7722C22.9576 24.5597 23.2712 24.1474 23.6912 23.446C24.4657 22.1151 25.0916 20.3284 25.5103 18.4301L25.5112 18.4261C26.035 16.2267 26.2963 13.9287 26.2963 12.1864C26.2963 10.939 26.1382 9.16836 25.527 7.80577C25.0722 6.84212 24.4305 6.14637 23.4568 5.82059C22.7523 5.59722 21.5666 5.72871 20.2446 5.93058L20.2392 5.9314C19.0858 6.08151 17.7971 6.23645 16.6602 6.13486C16.276 6.13387 15.7792 6.08147 15.3284 5.92128C15.0082 5.82506 14.5101 5.64904 14.3829 5.30011C14.2958 5.06126 14.4752 4.86805 14.699 4.81887C15.0521 4.74127 15.3783 4.8895 15.7213 4.8895H15.7289L15.7364 4.88997C17.3334 4.9883 18.6755 4.69406 19.8846 4.39304L19.8905 4.39157C21.4586 4.04236 22.9693 3.71268 24.4299 4.40966C25.6636 4.99836 26.4885 6.1142 27.0295 7.35351L27.0304 7.35557C27.7325 9.00488 28 10.9029 28 12.3879C28 14.4266 27.6798 16.6626 27.1487 18.8425C26.6171 21.0748 25.8197 23.2575 24.8612 25.1386C24.641 25.6104 24.3089 26.1401 23.8602 26.5684C23.5264 26.8869 23.1202 27.1692 22.6409 27.2839C22.6409 27.2839 22.2908 27.3473 21.8776 27.2653C21.551 27.102 20.8279 26.4904 20.4082 25.7959C19.7041 24.6309 19.0248 23.7109 18.578 23.1582C17.6738 22.4786 16.9164 22.408 16.3973 22.3596H16.3973C15.8782 22.3112 15.4467 22.0853 15.4467 22.0853C15.1719 21.4278 16.1637 21.2923 16.5839 21.2121C18.2546 21.0527 19.8102 21.7763 20.8715 23.0619C21.2812 23.5582 21.5933 24.131 22.0006 24.6309Z" fill="currentColor"/>
</svg>
