<svg width="24" height="24" viewBox="0 0 24 24" fill="none" xmlns="http://www.w3.org/2000/svg">
<path d="M21.9999 11.4455C21.9964 13.1399 21.7582 14.1523 20.9999 15.6677C20.0981 17.47 19.2334 18.4179 17.5193 19.478C15.8052 20.538 14.5709 20.8904 12.5555 20.8899C10.861 20.8895 9.64233 20.5511 8.33331 19.8899L2 22.001L4.1111 15.6677C3.44992 14.3587 3.10728 12.912 3.11111 11.4455C3.11179 9.69186 3.60067 7.97308 4.52301 6.48164C6.22531 3.72898 8.96363 2.01047 12.5555 2.00104C15.3828 1.99361 17.2553 2.74723 19.2545 4.74643C21.2538 6.74563 22.0058 8.61816 21.9999 11.4455Z" stroke="currentColor" stroke-width="2" stroke-linecap="round" stroke-linejoin="round"/>
</svg>
