<svg width="24" height="24" viewBox="0 0 24 24" fill="none" xmlns="http://www.w3.org/2000/svg">
<g clip-path="url(#clip0_3545_784)">
<path d="M1 1.00098L23 23.001" stroke="currentColor" stroke-width="2" stroke-linecap="round" stroke-linejoin="round"/>
<path d="M15 9.34097V4.00097C15 2.00093 13.6985 0.98877 12 1.00096C10.3015 1.01316 9.36272 1.91016 9.06 3.40097M9 9.00097V12.001C9.00162 13.8448 10.7555 15.3042 12.5845 14.9408C13.1661 14.8253 13.7005 14.54 14.12 14.121L9 9.00097Z" stroke="currentColor" stroke-width="2" stroke-linecap="round" stroke-linejoin="round"/>
<path d="M5 12.001L6 12.0083V12.001H5ZM6 10.001C6 9.44869 5.55229 9.00098 5 9.00098C4.44772 9.00098 4 9.44869 4 10.001H6ZM20 10.001C20 9.44869 19.5523 9.00098 19 9.00098C18.4477 9.00098 18 9.44869 18 10.001H20ZM19 12.001L20 12.0018V12.001H19ZM17.9057 13.0544C17.8082 13.598 18.1698 14.1177 18.7134 14.2153C19.257 14.3128 19.7768 13.9512 19.8743 13.4076L17.9057 13.0544ZM16.2857 16.2512C15.4489 17.1052 14.3761 17.6898 13.2048 17.9299L13.6064 19.8892C15.1682 19.569 16.5986 18.7896 17.7143 17.6508L16.2857 16.2512ZM13.2048 17.9299C12.0335 18.1701 10.8171 18.0548 9.71183 17.5988L8.94917 19.4477C10.4229 20.0556 12.0447 20.2094 13.6064 19.8892L13.2048 17.9299ZM9.71183 17.5988C8.60651 17.1429 7.66263 16.3671 7.00127 15.371L5.33508 16.4773C6.2169 17.8054 7.47541 18.8398 8.94917 19.4477L9.71183 17.5988ZM7.00127 15.371C6.3399 14.3749 5.99123 13.2039 5.99998 12.0083L4.00003 11.9937C3.98837 13.5878 4.45327 15.1491 5.33508 16.4773L7.00127 15.371ZM6 12.001V10.001H4V12.001H6ZM18 10.001V12.001H20V10.001H18ZM18 12.0001C17.9997 12.3536 17.9681 12.7064 17.9057 13.0544L19.8743 13.4076C19.9575 12.9436 19.9996 12.4732 20 12.0018L18 12.0001Z" fill="currentColor"/>
<path d="M12 20.001V22.001" stroke="currentColor" stroke-width="2" stroke-linecap="round" stroke-linejoin="round"/>
<path d="M8 23.001H16" stroke="currentColor" stroke-width="2" stroke-linecap="round" stroke-linejoin="round"/>
</g>
<defs>
<clipPath id="clip0_3545_784">
<rect width="24" height="24" fill="white" transform="translate(0 0.000976562)"/>
</clipPath>
</defs>
</svg>
