<svg width="24" height="24" viewBox="0 0 24 24" fill="none" xmlns="http://www.w3.org/2000/svg">
<path d="M8 3.00098V6.00098C8 6.53141 7.78929 7.04012 7.41421 7.41519C7.03914 7.79026 6.53043 8.00098 6 8.00098H3M21 8.00098H18C17.4696 8.00098 16.9609 7.79026 16.5858 7.41519C16.2107 7.04012 16 6.53141 16 6.00098V3.00098M16 21.001V18.001C16 17.4705 16.2107 16.9618 16.5858 16.5868C16.9609 16.2117 17.4696 16.001 18 16.001H21M3 16.001H6C6.53043 16.001 7.03914 16.2117 7.41421 16.5868C7.78929 16.9618 8 17.4705 8 18.001V21.001" stroke="currentColor" stroke-width="2" stroke-linecap="round" stroke-linejoin="round"/>
</svg>
