<svg width="24" height="24" viewBox="0 0 24 24" fill="none" xmlns="http://www.w3.org/2000/svg">
<g clip-path="url(#clip0_3545_764)">
<ellipse cx="7.5" cy="6.00098" rx="6.5" ry="5" stroke="currentColor" stroke-width="2"/>
<path d="M15.7458 8.13227C16.1503 8.04624 16.5699 8.00098 17 8.00098C20.3137 8.00098 23 10.6873 23 14.001C23 17.3147 20.3137 20.001 17 20.001C16.5699 20.001 16.1503 19.9557 15.7458 19.8697" stroke="currentColor" stroke-width="2"/>
<path d="M2 8.00098C1.36657 8.70559 1 9.54038 1 10.4353C1 12.9569 3.91015 15.001 7.5 15.001C11.0899 15.001 14 12.9569 14 10.4353C14 9.54038 13.6334 8.70559 13 8.00098" stroke="currentColor" stroke-width="2"/>
<path d="M2 12.001C1.36657 12.7056 1 13.5404 1 14.4353C1 16.9569 3.91015 19.001 7.5 19.001C11.0899 19.001 14 16.9569 14 14.4353C14 13.5404 13.6334 12.7056 13 12.001" stroke="currentColor" stroke-width="2"/>
<path d="M2 16.001C1.36657 16.7056 1 17.5404 1 18.4353C1 20.9569 3.91015 23.001 7.5 23.001C11.0899 23.001 14 20.9569 14 18.4353C14 17.5404 13.6334 16.7056 13 16.001" stroke="currentColor" stroke-width="2"/>
</g>
<defs>
<clipPath id="clip0_3545_764">
<rect width="24" height="24" fill="white" transform="translate(0 0.000976562)"/>
</clipPath>
</defs>
</svg>
