<svg width="24" height="24" viewBox="0 0 24 24" fill="none" xmlns="http://www.w3.org/2000/svg">
<path d="M21 12.791C20.8427 14.4932 20.2039 16.1154 19.1583 17.4678C18.1127 18.8201 16.7035 19.8468 15.0957 20.4275C13.4879 21.0083 11.748 21.1191 10.0795 20.7471C8.41104 20.375 6.88302 19.5355 5.67425 18.3268C4.46548 17.118 3.62596 15.59 3.25393 13.9215C2.8819 12.253 2.99274 10.5131 3.57348 8.90527C4.15423 7.29749 5.18085 5.88834 6.53324 4.84273C7.88562 3.79712 9.50782 3.15828 11.21 3.00098C10.2134 4.34924 9.73387 6.01043 9.85856 7.68239C9.98324 9.35436 10.7039 10.926 11.8894 12.1116C13.075 13.2971 14.6466 14.0178 16.3186 14.1424C17.9906 14.2671 19.6518 13.7876 21 12.791Z" stroke="currentColor" stroke-width="2" stroke-linecap="round" stroke-linejoin="round"/>
</svg>
