<svg width="24" height="24" viewBox="0 0 24 24" fill="none" xmlns="http://www.w3.org/2000/svg">
<path d="M12 13.001C12.5523 13.001 13 12.5533 13 12.001C13 11.4487 12.5523 11.001 12 11.001C11.4477 11.001 11 11.4487 11 12.001C11 12.5533 11.4477 13.001 12 13.001Z" stroke="currentColor" stroke-width="2" stroke-linecap="round" stroke-linejoin="round"/>
<path d="M12 6.00101C12.5523 6.00101 13 5.55329 13 5.00101C13 4.44872 12.5523 4.00101 12 4.00101C11.4477 4.00101 11 4.44872 11 5.00101C11 5.55329 11.4477 6.00101 12 6.00101Z" stroke="currentColor" stroke-width="2" stroke-linecap="round" stroke-linejoin="round"/>
<path d="M12 20.001C12.5523 20.001 13 19.5533 13 19.001C13 18.4487 12.5523 18.001 12 18.001C11.4477 18.001 11 18.4487 11 19.001C11 19.5533 11.4477 20.001 12 20.001Z" stroke="currentColor" stroke-width="2" stroke-linecap="round" stroke-linejoin="round"/>
</svg>
