<svg width="24" height="24" viewBox="0 0 24 24" fill="none" xmlns="http://www.w3.org/2000/svg">
<path d="M9 17.501V5.00098L21 3.00098V16.001" stroke="currentColor" stroke-width="2" stroke-linecap="round" stroke-linejoin="round"/>
<path d="M6 21.001C7.65685 21.001 9 19.6578 9 18.001C9 16.3441 7.65685 15.001 6 15.001C4.34315 15.001 3 16.3441 3 18.001C3 19.6578 4.34315 21.001 6 21.001Z" stroke="currentColor" stroke-width="2" stroke-linecap="round" stroke-linejoin="round"/>
<path d="M18 19.001C19.6569 19.001 21 17.6578 21 16.001C21 14.3441 19.6569 13.001 18 13.001C16.3431 13.001 15 14.3441 15 16.001C15 17.6578 16.3431 19.001 18 19.001Z" stroke="currentColor" stroke-width="2" stroke-linecap="round" stroke-linejoin="round"/>
</svg>
