<svg width="72" height="72" viewBox="0 0 72 72" fill="none" xmlns="http://www.w3.org/2000/svg">
<path d="M14 21H9C7.89543 21 7 21.8954 7 23V55C7 58.866 10.134 62 14 62M14 21V13.5C14 11.567 15.567 10 17.5 10C19.433 10 21 11.567 21 13.5V55C21 58.866 17.866 62 14 62M14 21V40C14 41.1046 14.8954 42 16 42H20M28 17H58M28 23H58M14 62H57C61.4183 62 65 58.4183 65 54V14C65 11.7909 63.2091 10 61 10H18M28 29H37M28 35H37M28 41H37M28 49H40M46 49H58M28 55H40M46 55H58M45 29H56C57.1046 29 58 29.8954 58 31V41C58 42.1046 57.1046 43 56 43H45C43.8954 43 43 42.1046 43 41V31C43 29.8954 43.8954 29 45 29ZM49 33L53 36L49 39V33Z" stroke="currentColor" stroke-width="2" stroke-linecap="round" stroke-linejoin="round"/>
</svg>
