<svg width="24" height="24" viewBox="0 0 24 24" fill="none" xmlns="http://www.w3.org/2000/svg">
<g clip-path="url(#clip0_3545_259)">
<path d="M21.44 11.051L12.25 20.241C11.1242 21.3669 9.59718 21.9994 8.005 21.9994C6.41282 21.9994 4.88584 21.3669 3.76 20.241C2.63416 19.1152 2.00166 17.5882 2.00166 15.996C2.00166 14.4038 2.63416 12.8769 3.76 11.751L12.95 2.56102C13.7006 1.81046 14.7185 1.38879 15.78 1.38879C16.8415 1.38879 17.8594 1.81046 18.61 2.56102C19.3606 3.31158 19.7822 4.32956 19.7822 5.39102C19.7822 6.45247 19.3606 7.47046 18.61 8.22102L9.41 17.411C9.03472 17.7863 8.52573 17.9971 7.995 17.9971C7.46427 17.9971 6.95528 17.7863 6.58 17.411C6.20472 17.0357 5.99389 16.5267 5.99389 15.996C5.99389 15.4653 6.20472 14.9563 6.58 14.581L15.07 6.10102" stroke="currentColor" stroke-width="2" stroke-linecap="round" stroke-linejoin="round"/>
</g>
<defs>
<clipPath id="clip0_3545_259">
<rect width="24" height="24" fill="white" transform="translate(0 0.00100708)"/>
</clipPath>
</defs>
</svg>
