<svg width="24" height="24" viewBox="0 0 24 24" fill="none" xmlns="http://www.w3.org/2000/svg">
<g clip-path="url(#clip0_3545_523)">
<path d="M23 7.00098V1.00098H17" stroke="currentColor" stroke-width="2" stroke-linecap="round" stroke-linejoin="round"/>
<path d="M16 8.00098L22 2.00098" stroke="currentColor" stroke-width="2" stroke-linecap="round" stroke-linejoin="round"/>
<path d="M21.3521 21.4028C19.0379 23.5259 13.1725 20.1366 11.19 18.851C8.77383 17.3156 6.72534 15.2671 5.19 12.851C3.76477 10.6509 0.297452 5.21305 2.63477 2.65257C3.64955 1.5409 7.20908 1.43126 8.43376 2.48449C9.40208 3.31724 10.1805 6.30795 9.89391 7.65183C9.69177 8.59961 8.73826 9.26269 8.09 9.91095C9.51356 12.4145 11.5865 14.4874 14.09 15.911C14.7383 15.2627 15.4013 14.3092 16.3491 14.107C17.5649 13.8477 20.6322 14.5229 21.5265 15.5784C22.6103 16.8575 22.679 20.1855 21.3521 21.4028Z" stroke="currentColor" stroke-width="2" stroke-linecap="round" stroke-linejoin="round"/>
</g>
<defs>
<clipPath id="clip0_3545_523">
<rect width="24" height="24" fill="white" transform="translate(0 0.000976562)"/>
</clipPath>
</defs>
</svg>
