<svg width="24" height="24" viewBox="0 0 24 24" fill="none" xmlns="http://www.w3.org/2000/svg">
<g clip-path="url(#clip0_3545_537)">
<path d="M22.0337 22.155C19.2682 24.6623 13.393 20.9445 11.0153 19.4207C8.39558 17.7756 6.17449 15.5806 4.50978 12.9917C3.11283 10.8607 -0.560426 4.55375 1.73925 2.06415C3.05368 0.64117 6.64916 0.713164 8.02686 1.88404C9.07522 2.77502 9.92072 5.98122 9.61004 7.42086C9.39075 8.43694 8.35666 9.14725 7.65413 9.84151C9.19764 12.5241 11.4452 14.7452 14.1597 16.2705C14.8629 15.5755 15.5821 14.5541 16.6092 14.3376C18.0698 14.0298 21.3237 14.8656 22.2228 15.9142C23.3471 17.2255 23.2235 21.0763 22.0337 22.155Z" stroke="currentColor" stroke-width="2" stroke-linecap="round" stroke-linejoin="round"/>
</g>
<defs>
<clipPath id="clip0_3545_537">
<rect width="24" height="24" fill="white" transform="translate(0 0.000976562)"/>
</clipPath>
</defs>
</svg>
