<svg width="24" height="24" viewBox="0 0 24 24" fill="none" xmlns="http://www.w3.org/2000/svg">
<g clip-path="url(#clip0_3545_510)">
<path d="M15.05 5.00098C16.0267 5.19154 16.9244 5.66923 17.6281 6.37291C18.3317 7.07659 18.8094 7.97424 19 8.95098M15.05 1.00098C17.0793 1.22641 18.9716 2.13515 20.4162 3.57798C21.8609 5.02082 22.772 6.91199 23 8.94098M21.3521 21.4028C22.4594 20.3869 22.5694 16.8093 21.5265 15.5785C20.6986 14.6013 17.696 13.8198 16.3491 14.1071C15.4013 14.3092 14.7383 15.2627 14.09 15.911C11.5865 14.4874 9.51356 12.4145 8.09001 9.91098C8.73827 9.26271 9.69178 8.59963 9.89391 7.65186C10.1528 6.43791 9.47992 3.3842 8.43377 2.48451C7.31805 1.52499 3.74331 1.43822 2.63477 2.6526C0.512954 4.977 3.90033 10.8602 5.19001 12.851C6.72534 15.2671 8.77383 17.3156 11.19 18.851C13.1725 20.1366 19.0379 23.5259 21.3521 21.4028Z" stroke="currentColor" stroke-width="2" stroke-linecap="round" stroke-linejoin="round"/>
</g>
<defs>
<clipPath id="clip0_3545_510">
<rect width="24" height="24" fill="white" transform="translate(0 0.000976562)"/>
</clipPath>
</defs>
</svg>
