<svg width="24" height="24" viewBox="0 0 24 24" fill="none" xmlns="http://www.w3.org/2000/svg">
<path d="M21.21 15.8909C20.5738 17.3954 19.5788 18.7211 18.3119 19.7522C17.0449 20.7833 15.5447 21.4884 13.9424 21.8057C12.3401 22.1231 10.6844 22.0431 9.12012 21.5727C7.55585 21.1024 6.1306 20.256 4.969 19.1076C3.80739 17.9592 2.94479 16.5437 2.45661 14.9849C1.96843 13.4261 1.86954 11.7714 2.16857 10.1656C2.46761 8.55971 3.15547 7.05156 4.17202 5.77296C5.18857 4.49436 6.50286 3.48425 7.99998 2.83093" stroke="currentColor" stroke-width="2" stroke-linecap="round" stroke-linejoin="round"/>
<path d="M22 12.001C22 10.6878 21.7413 9.3874 21.2388 8.17414C20.7362 6.96089 19.9997 5.85849 19.0711 4.92991C18.1425 4.00132 17.0401 3.26473 15.8268 2.76218C14.6136 2.25963 13.3132 2.00098 12 2.00098V12.001H22Z" stroke="currentColor" stroke-width="2" stroke-linecap="round" stroke-linejoin="round"/>
</svg>
