<svg width="24" height="24" viewBox="0 0 24 24" fill="none" xmlns="http://www.w3.org/2000/svg">
<path d="M4 3.00098H20C20.5304 3.00098 21.0391 3.21169 21.4142 3.58676C21.7893 3.96184 22 4.47054 22 5.00098V11.001C22 13.6531 20.9464 16.1967 19.0711 18.072C17.1957 19.9474 14.6522 21.001 12 21.001C10.6868 21.001 9.38642 20.7423 8.17317 20.2398C6.95991 19.7372 5.85752 19.0006 4.92893 18.072C3.05357 16.1967 2 13.6531 2 11.001V5.00098C2 4.47054 2.21071 3.96184 2.58579 3.58676C2.96086 3.21169 3.46957 3.00098 4 3.00098V3.00098Z" stroke="currentColor" stroke-width="2" stroke-linecap="round" stroke-linejoin="round"/>
<path d="M8 10.001L12 14.001L16 10.001" stroke="currentColor" stroke-width="2" stroke-linecap="round" stroke-linejoin="round"/>
</svg>
