<svg width="24" height="24" viewBox="0 0 24 24" fill="none" xmlns="http://www.w3.org/2000/svg">
<path d="M14 2.20104C13.3538 2.06987 12.6849 2.00101 12 2.00101C6.47715 2.00101 2 6.47816 2 12.001C2 17.5239 6.47715 22.001 12 22.001C17.5228 22.001 22 17.5239 22 12.001C22 11.6632 21.9832 11.3292 21.9505 11" stroke="currentColor" stroke-width="2" stroke-linecap="round" stroke-linejoin="round"/>
<path d="M18 12.001C18 15.3147 15.3137 18.001 12 18.001C8.68629 18.001 6 15.3147 6 12.001C6 8.6873 8.68629 6.00101 12 6.00101" stroke="currentColor" stroke-width="2" stroke-linecap="round" stroke-linejoin="round"/>
<path d="M12 12L17 7M12 12L12.5 10L14 11.5L12 12ZM17 7V5L19.5 2L22 5L19 7.5L17 7Z" stroke="currentColor" stroke-width="2" stroke-linecap="round" stroke-linejoin="round"/>
</svg>
