<svg width="56" height="56" viewBox="0 0 56 56" fill="none" xmlns="http://www.w3.org/2000/svg">
<g clip-path="url(#clip0_6133_77870)">
<path d="M46.6527 18.7509C47.0401 20.9087 47.1589 25.1403 46.7196 29.7308C45.8549 38.766 42.912 48.9456 35.4306 47.9297C30.8291 47.3048 33.5603 38.8807 27.9492 38.8807C22.3381 38.8807 25.0693 47.3048 20.4678 47.9297C18.5819 48.1858 17.0229 47.7254 15.7274 46.75M9.09661 25.5C8.92288 22.6171 8.98992 20.1765 9.24574 18.7509C10.2309 13.261 11.6226 11.2265 13.5759 9.62692C18.0459 5.96635 22.3381 9.62693 27.9492 9.62692C30.5414 9.62692 32.8396 8.85071 35 8.37409" stroke="currentColor" stroke-width="2" stroke-linecap="round" stroke-linejoin="round"/>
<path d="M19 28C19 28 23 30 28 30C33 30 37 28 37 28" stroke="currentColor" stroke-width="2" stroke-linecap="round" stroke-linejoin="round"/>
<path d="M22 20.5V18.5C22 17.6716 21.3284 17 20.5 17C19.6716 17 19 17.6716 19 18.5V20.5C19 21.3284 19.6716 22 20.5 22C21.3284 22 22 21.3284 22 20.5Z" stroke="currentColor" stroke-width="2" stroke-linecap="round"/>
<path d="M37 20.5V18.5C37 17.6716 36.3284 17 35.5 17C34.6716 17 34 17.6716 34 18.5V20.5C34 21.3284 34.6716 22 35.5 22C36.3284 22 37 21.3284 37 20.5Z" stroke="currentColor" stroke-width="2" stroke-linecap="round"/>
<path d="M6.33508 29.2601C6.33508 29.2601 5.83508 27.2601 8.33508 26.2601C10.8351 25.2601 13.3351 27.2601 13.3351 30.2601C15.8351 30.7601 18.3351 34.2602 16.3351 38.2602C19.3351 40.2602 19.5 45.5 16 46C13.3351 46.3807 10.8351 44.2602 10.3351 41.2602C7.83508 42.7601 5.13507 41.1602 4.33508 38.7602C3.66843 36.7602 3.83506 33.7601 6.33508 33.2601C8.33508 32.8601 10 35 10 35" stroke="currentColor" stroke-width="2" stroke-linecap="round" stroke-linejoin="round"/>
<path d="M46 9.00003C49 12.825 51.5 7.25002 48.5 5.00005C46.4999 3.50003 43.0001 3.50003 42 5C39.5 4.35968 37.5022 4.99785 36.5 6.00004C35.5 7.00004 34.3077 10.4135 39 11C45 11.75 43.9757 18.2951 47.5 19C49.2367 19.3473 50.9999 16.5 49.5 13" stroke="currentColor" stroke-width="2" stroke-linecap="round" stroke-linejoin="round"/>
<path d="M47 45C49 44 49 44 50 42C51 44 51 44 53 45C51 46 51 46 50 48C49 46 49 46 47 45Z" stroke="currentColor" stroke-width="2" stroke-linecap="round" stroke-linejoin="round"/>
<path d="M43 51.5C43 50.6716 43.6716 50 44.5 50C45.3284 50 46 50.6716 46 51.5C46 52.3284 45.3284 53 44.5 53C43.6716 53 43 52.3284 43 51.5Z" stroke="currentColor" stroke-width="2" stroke-linecap="round" stroke-linejoin="round"/>
</g>
<defs>
<clipPath id="clip0_6133_77870">
<rect width="56" height="56" fill="white" transform="translate(0 0.00100708)"/>
</clipPath>
</defs>
</svg>
