<svg width="72" height="72" viewBox="0 0 72 72" fill="none" xmlns="http://www.w3.org/2000/svg">
<g clip-path="url(#clip0_6155_73912)">
<path d="M36.0259 36.0002C36.5404 35.9935 36.9926 36.224 37.3962 36.8068C37.8279 37.4302 38.1091 38.3591 38.1091 39.3336C38.1091 40.3081 37.8279 41.2369 37.3962 41.8604C36.9926 42.4432 36.5404 42.6737 36.0259 42.667C35.509 42.6603 35.0695 42.4222 34.6837 41.8482C34.2689 41.2311 34 40.3122 34 39.3336C34 38.3549 34.2689 37.4361 34.6837 36.819C35.0695 36.2449 35.509 36.0069 36.0259 36.0002Z" fill="#E0EEF8"/>
<path d="M50 52.6667C50 51.6864 50.2697 50.7579 50.6858 50.1362C51.0725 49.5584 51.5029 49.3335 52 49.3335C52.4971 49.3335 52.9275 49.5584 53.3142 50.1362C53.7303 50.7579 54 51.6864 54 52.6667C54 53.6471 53.7303 54.5756 53.3142 55.1973C52.9275 55.7751 52.4971 56 52 56C51.5029 56 51.0725 55.7751 50.6858 55.1973C50.2697 54.5756 50 53.6471 50 52.6667Z" fill="#E0EEF8"/>
<path fill-rule="evenodd" clip-rule="evenodd" d="M32 20C28.6863 20 26 22.6863 26 26V66C26 69.3137 28.6863 72 32 72H56C59.3137 72 62 69.3137 62 66V26C62 22.6863 59.3137 20 56 20H32ZM31 22C29.8954 22 29 22.8954 29 24H59C59 22.8954 58.1046 22 57 22H31ZM29 68H59C59 69.1046 58.1046 70 57 70H31C29.8954 70 29 69.1046 29 68ZM42.1091 39.3336C42.1091 37.6788 41.6503 35.924 40.6847 34.5296C39.691 33.0945 38.0886 31.9731 35.9741 32.0005C33.8877 32.0275 32.3272 33.1544 31.3639 34.5876C30.4295 35.9779 30 37.7088 30 39.3336C30 40.9584 30.4295 42.6893 31.3639 44.0795C32.3272 45.5128 33.8877 46.6396 35.9741 46.6667C38.0886 46.6941 39.691 45.5726 40.6847 44.1376C41.6503 42.7432 42.1091 40.9884 42.1091 39.3336ZM51.0698 37.6592C51.6178 36.7002 51.2847 35.4785 50.3256 34.9305C49.3666 34.3825 48.1449 34.7156 47.5969 35.6747L36.9302 54.3411C36.3822 55.3001 36.7153 56.5218 37.6744 57.0699C38.6334 57.6179 39.8551 57.2847 40.4031 56.3257L51.0698 37.6592ZM52 45.3335C49.8936 45.3335 48.324 46.4735 47.3616 47.9114C46.4285 49.3055 46 51.0437 46 52.6667C46 54.2898 46.4285 56.028 47.3616 57.4221C48.324 58.86 49.8936 60 52 60C54.1064 60 55.676 58.86 56.6384 57.4221C57.5715 56.028 58 54.2898 58 52.6667C58 51.0437 57.5715 49.3055 56.6384 47.9114C55.676 46.4735 54.1064 45.3335 52 45.3335Z" fill="#E0EEF8"/>
<path d="M54 22.1286C45 19.1479 34.9999 11.1993 28 17.1608C19.9999 11.1993 10 19.1479 2 22.1286M54 22.1286C45.9999 27.0965 38.9999 23.1222 33.9999 23.1222C29.9999 23.1222 28 25.1093 28 25.1093C28 25.1093 25.9999 23.1222 20.9999 23.1222C15.9999 23.1222 9.99988 27.0965 2 22.1286M54 22.1286C54 22.1286 49.78 34.108 38.9999 39.4644M2 22.1286C2 22.1286 9.00012 42 28 42C30.5446 42 32.8739 41.6436 35 41.0262M7.99988 27.0965C10.3263 29.6681 14.0015 31.5085 18 32.6475M47.9999 27.0965C43.7501 31.7942 35.0001 34.0514 28 34.0514C24.832 34.0514 21.3055 33.5891 18 32.6475M16.4999 24.6125L16.8713 26.4578C16.9495 26.846 17.2493 27.1515 17.636 27.2369L20.429 27.8536C21.0038 27.9805 21.5633 27.586 21.6368 27.0019L21.9999 24.1158V27.6731C21.9999 28.1905 22.3946 28.6225 22.9099 28.669L26.5551 28.9983C27.0848 29.0461 27.5592 28.6711 27.6349 28.1447L28 25.6061L28.3649 28.1446C28.4406 28.671 28.915 29.0461 29.4447 28.9983L33.0898 28.669C33.6052 28.6225 33.9999 28.1905 33.9999 27.6731V24.1158L34.363 27.0019C34.4365 27.586 34.996 27.9805 35.5708 27.8536L38.3637 27.2369C38.7504 27.1515 39.0503 26.846 39.1284 26.4578L39.4999 24.6125M18 32.6475C17.5 34 17.5 36 17.5 36M35 41.0262C35 41.0262 35.5 39.5 35 36M35 41.0262C36.4231 40.613 37.7552 40.0828 38.9999 39.4644M38.9999 39.4644C38.9999 39.4644 39.3235 39.3006 38.9999 36.5" stroke="url(#paint0_linear_6155_73912)" stroke-width="2" stroke-linecap="round" stroke-linejoin="round"/>
</g>
<defs>
<linearGradient id="paint0_linear_6155_73912" x1="28" y1="14.9997" x2="28" y2="42" gradientUnits="userSpaceOnUse">
<stop stop-color="#00BDD6"/>
<stop offset="1" stop-color="#06A8BD"/>
</linearGradient>
<clipPath id="clip0_6155_73912">
<rect width="72" height="72" fill="white" transform="translate(0 0.000976562)"/>
</clipPath>
</defs>
</svg>
