<svg width="24" height="24" viewBox="0 0 24 24" fill="none" xmlns="http://www.w3.org/2000/svg">
<path d="M6 8.00098V2.00098H18V8.00098" stroke="currentColor" stroke-width="2" stroke-linecap="round" stroke-linejoin="round"/>
<path d="M5 18.001H4C3.46957 18.001 2.96086 17.7903 2.58579 17.4152C2.21071 17.0401 2 16.5314 2 16.001V11.001C2 10.4705 2.21071 9.96184 2.58579 9.58676C2.96086 9.21169 3.46957 9.00098 4 9.00098H20C20.5304 9.00098 21.0391 9.21169 21.4142 9.58676C21.7893 9.96184 22 10.4705 22 11.001V16.001C22 16.5314 21.7893 17.0401 21.4142 17.4152C21.0391 17.7903 20.5304 18.001 20 18.001H19" stroke="currentColor" stroke-width="2" stroke-linecap="round" stroke-linejoin="round"/>
<path d="M6 14.001H18V22.001H6V14.001Z" stroke="currentColor" stroke-width="2" stroke-linecap="round" stroke-linejoin="round"/>
</svg>
