<svg width="56" height="56" viewBox="0 0 56 56" fill="none" xmlns="http://www.w3.org/2000/svg">
<path d="M3 50C5 49 5 49 5.99999 47C7 49 7 49 9 50C7 51 7 51 6 53C5 51 5 51 3 50Z" stroke="currentColor" stroke-width="2" stroke-linecap="round" stroke-linejoin="round"/>
<path d="M13 46.5C13 45.6716 13.6716 45 14.5 45C15.3284 45 16 45.6716 16 46.5C16 47.3284 15.3284 48 14.5 48C13.6716 48 13 47.3284 13 46.5Z" stroke="currentColor" stroke-width="2" stroke-linecap="round" stroke-linejoin="round"/>
<path d="M3 33L2.58579 32.5858C2.21071 32.2107 2 31.702 2 31.1716V25.8735C2 24.6864 2.54297 23.5699 3.60293 23.0354C6.48429 21.5823 13.6269 19 28 19C42.3731 19 49.5157 21.5823 52.3971 23.0354C53.457 23.5699 54 24.6864 54 25.8735V31.1716C54 31.702 53.7893 32.2107 53.4142 32.5858L53 33" stroke="currentColor" stroke-width="2" stroke-linejoin="round"/>
<path d="M28 38.2929V32.9225M28 38.2929C28 39.2227 27.2227 40 26.2929 40H21.7071C20.7773 40 20 39.2227 20 38.2929V32.2209C20 31.4284 20.2571 30.6573 20.7326 30.0232C21.9732 28.369 24.3363 28.069 25.951 29.3608C27.1009 30.2807 28 31.3542 28 32.9225M28 38.2929C28 39.2227 28.7773 40 29.7071 40H34.2929C35.2227 40 36 39.2227 36 38.2929V32.2209C36 31.4284 35.743 30.6573 35.2674 30.0232C34.0268 28.369 31.6637 28.069 30.049 29.3608C28.8991 30.2807 28 31.3542 28 32.9225M36 37.465V32.4069C36 31.065 36.7235 30.0817 37.6991 29.2584C39.1397 28.0426 41.3116 28.3175 42.4039 29.8538C42.7917 30.3993 43 31.0519 43 31.7211V37.465C43 38.3007 42.3014 39 41.465 39H37.535C36.6986 39 36 38.3007 36 37.465ZM20 37.465V32.4069C20 31.065 19.2765 30.0817 18.3009 29.2584C16.8603 28.0426 14.6884 28.3175 13.5961 29.8538C13.2083 30.3993 13 31.0519 13 31.7211V37.465C13 38.3007 13.6986 39 14.535 39H18.465C19.3014 39 20 38.3007 20 37.465ZM43 36.7032V32.5763C43 31.4056 43.6386 30.553 44.4986 29.8473C45.7212 28.8441 47.5355 29.0742 48.469 30.3508C48.814 30.8226 49 31.392 49 31.9765V36.7032C49 37.4094 48.4097 38 47.7032 38H44.2968C43.5903 38 43 37.4094 43 36.7032ZM13 36.7032V32.5763C13 31.4056 12.3614 30.553 11.5014 29.8473C10.2788 28.8441 8.46448 29.0742 7.53101 30.3508C7.18597 30.8226 7 31.392 7 31.9765V36.7032C7 37.4094 7.59032 38 8.29679 38H11.7032C12.4097 38 13 37.4094 13 36.7032ZM49 35.179V32.9208C49 31.873 49.9391 30.7911 51 30.684C52.0568 30.5773 53 31.4339 53 32.4909V35.179C53 35.6264 52.6259 36 52.179 36H49.821C49.3741 36 49 35.6264 49 35.179ZM7 35.179V32.9208C7 31.8729 6.06036 30.7915 5 30.6822C3.55911 30.5337 3 31.9765 3 33V35C3 35.5014 3.27145 36 3.821 36H6.179C6.62586 36 7 35.6264 7 35.179Z" stroke="currentColor" stroke-width="2"/>
<path d="M7 21V19C7 17.8954 7.89543 17 9 17H10C11.1046 17 12 17.8954 12 19V20M20 19V17C20 15.8954 20.8954 15 22 15H23C24.1046 15 25 15.8954 25 17V19M31 19V17C31 15.8954 31.8954 15 33 15H34C35.1046 15 36 15.8954 36 17V19M44 20V19C44 17.8954 44.8954 17 46 17H47C48.1046 17 49 17.8954 49 19V21" stroke="currentColor" stroke-width="2"/>
</svg>
