<svg width="24" height="24" viewBox="0 0 24 24" fill="none" xmlns="http://www.w3.org/2000/svg">
<path fill-rule="evenodd" clip-rule="evenodd" d="M6 13.001C6.79112 13.001 7.56448 13.2356 8.22228 13.6751C8.88008 14.1146 9.39277 14.7393 9.69552 15.4702C9.99827 16.2011 10.0775 17.0054 9.92314 17.7813C9.7688 18.5573 9.38784 19.27 8.82843 19.8294C8.26902 20.3888 7.55628 20.7698 6.78036 20.9241C6.00444 21.0785 5.20017 20.9992 4.46926 20.6965C3.73836 20.3937 3.11365 19.8811 2.67412 19.2233C2.23459 18.5655 2 17.7921 2 17.001C2 15.5723 3.25391 11.1392 5.76266 3.70246C5.9041 3.28316 6.29768 3.00097 6.74019 3.00097V3.00097C7.39193 3.00097 7.88075 3.59723 7.75293 4.23632L6 13.001ZM18 13.001C18.7911 13.001 19.5645 13.2356 20.2223 13.6751C20.8801 14.1146 21.3928 14.7393 21.6955 15.4702C21.9983 16.2011 22.0775 17.0054 21.9231 17.7813C21.7688 18.5573 21.3878 19.27 20.8284 19.8294C20.269 20.3888 19.5563 20.7698 18.7804 20.9241C18.0044 21.0785 17.2002 20.9992 16.4693 20.6965C15.7384 20.3937 15.1136 19.8811 14.6741 19.2233C14.2346 18.5655 14 17.7921 14 17.001C14 15.5723 15.2539 11.1392 17.7627 3.70246C17.9041 3.28316 18.2977 3.00097 18.7402 3.00097V3.00097C19.3919 3.00097 19.8807 3.59723 19.7529 4.23632L18 13.001Z" stroke="currentColor" stroke-width="2" stroke-linecap="round" stroke-linejoin="round"/>
</svg>
