<svg width="24" height="24" viewBox="0 0 24 24" fill="none" xmlns="http://www.w3.org/2000/svg">
<path fill-rule="evenodd" clip-rule="evenodd" d="M18 11.001C17.2089 11.001 16.4355 10.7664 15.7777 10.3269C15.1199 9.88733 14.6072 9.26262 14.3045 8.53171C14.0017 7.80081 13.9225 6.99654 14.0769 6.22062C14.2312 5.44469 14.6122 4.73196 15.1716 4.17255C15.731 3.61314 16.4437 3.23218 17.2196 3.07784C17.9956 2.9235 18.7998 3.00271 19.5307 3.30546C20.2616 3.60821 20.8864 4.1209 21.3259 4.7787C21.7654 5.43649 22 6.20985 22 7.00098C22 8.42962 20.7461 12.8628 18.2373 20.2995C18.0959 20.7188 17.7023 21.001 17.2598 21.001V21.001C16.6081 21.001 16.1193 20.4047 16.2471 19.7656L18 11.001ZM6 11.001C5.20888 11.001 4.43552 10.7664 3.77772 10.3269C3.11992 9.88733 2.60723 9.26262 2.30448 8.53171C2.00173 7.80081 1.92252 6.99654 2.07686 6.22062C2.2312 5.44469 2.61216 4.73196 3.17157 4.17255C3.73098 3.61314 4.44372 3.23218 5.21964 3.07784C5.99556 2.9235 6.79983 3.00271 7.53074 3.30546C8.26164 3.60821 8.88635 4.1209 9.32588 4.7787C9.76541 5.43649 10 6.20985 10 7.00098C10 8.42962 8.74609 12.8628 6.23734 20.2995C6.0959 20.7188 5.70232 21.001 5.25981 21.001V21.001C4.60807 21.001 4.11925 20.4047 4.24707 19.7656L6 11.001Z" stroke="currentColor" stroke-width="2" stroke-linecap="round" stroke-linejoin="round"/>
</svg>
