<svg width="24" height="24" viewBox="0 0 24 24" fill="none" xmlns="http://www.w3.org/2000/svg">
<path d="M12 14.001C13.1046 14.001 14 13.1055 14 12.001C14 10.8964 13.1046 10.001 12 10.001C10.8954 10.001 10 10.8964 10 12.001C10 13.1055 10.8954 14.001 12 14.001Z" stroke="currentColor" stroke-width="2" stroke-linecap="round" stroke-linejoin="round"/>
<path d="M16.24 7.76103C16.7979 8.31827 17.2404 8.98 17.5424 9.70839C17.8443 10.4368 17.9997 11.2175 17.9997 12.006C17.9997 12.7945 17.8443 13.5753 17.5424 14.3037C17.2404 15.0321 16.7979 15.6938 16.24 16.251M7.76 16.241C7.20214 15.6838 6.75959 15.0221 6.45764 14.2937C6.1557 13.5653 6.00028 12.7845 6.00028 11.996C6.00028 11.2075 6.1557 10.4268 6.45764 9.69839C6.75959 8.97 7.20214 8.30827 7.76 7.75103M19.07 4.93103C20.9447 6.80631 21.9979 9.34939 21.9979 12.001C21.9979 14.6527 20.9447 17.1958 19.07 19.071M4.93 19.071C3.05529 17.1958 2.00214 14.6527 2.00214 12.001C2.00214 9.34939 3.05529 6.80631 4.93 4.93103" stroke="currentColor" stroke-width="2" stroke-linecap="round" stroke-linejoin="round"/>
</svg>
