<svg width="24" height="24" viewBox="0 0 24 24" fill="none" xmlns="http://www.w3.org/2000/svg">
<path d="M23 4.00099V10.001M23 10.001H17M23 10.001L18.36 5.64099C17.2853 4.5657 15.9556 3.7802 14.4952 3.35776C13.0348 2.93533 11.4911 2.88974 10.0083 3.22525C8.52547 3.56076 7.1518 4.26642 6.01547 5.27641C4.87913 6.28639 4.01717 7.56778 3.51 9.00099M1 20.001V14.001M1 14.001H7M1 14.001L5.64 18.361C6.71475 19.4363 8.04437 20.2218 9.50481 20.6442C10.9652 21.0667 12.5089 21.1122 13.9917 20.7767C15.4745 20.4412 16.8482 19.7356 17.9845 18.7256C19.1209 17.7156 19.9828 16.4342 20.49 15.001" stroke="currentColor" stroke-width="2" stroke-linecap="round" stroke-linejoin="round"/>
</svg>
