<svg width="72" height="72" viewBox="0 0 72 72" fill="none" xmlns="http://www.w3.org/2000/svg">
<g clip-path="url(#clip0_6152_73743)">
<g clip-path="url(#clip1_6152_73743)">
<path fill-rule="evenodd" clip-rule="evenodd" d="M44 16C28.536 16 16 28.536 16 44C16 59.464 28.536 72 44 72C59.464 72 72 59.464 72 44C72 28.536 59.464 16 44 16ZM28.0001 44C26.8273 44 25.9251 44.2944 25.3028 44.6056C24.9933 44.7603 24.755 44.9182 24.5876 45.0438C24.057 45.4417 23.7388 46.153 24.2929 46.7071C24.6955 47.1097 25.2963 47.0676 25.7054 46.7096C25.7767 46.6472 26.2224 46.2758 27.0611 46.096C27.0995 46.521 27.1619 47.0538 27.2637 47.6644C27.5246 49.2299 28.0483 51.3325 29.1056 53.4472C30.1649 55.5658 31.7696 57.7149 34.1954 59.3321C36.6273 60.9534 39.8251 62 44.0001 62C48.175 62 51.3728 60.9534 53.8048 59.3321C56.2305 57.7149 57.8352 55.5658 58.8945 53.4472C59.9518 51.3325 60.4755 49.2299 60.7365 47.6644C60.8382 47.0538 60.9006 46.521 60.939 46.096C61.8253 46.286 62.2746 46.6911 62.303 46.717C62.6943 47.0976 63.32 47.0943 63.7072 46.7071C64.0977 46.3166 64.097 45.6827 63.7065 45.2922C63.4147 45.0088 63.0593 44.7866 62.6973 44.6056C62.075 44.2944 61.1728 44 60.0001 44C58.8273 44 57.9251 44.2944 57.3028 44.6056C56.9302 44.7919 56.5918 44.9941 56.2929 45.2929C55.9024 45.6834 55.9024 46.3166 56.2929 46.7071C56.6801 47.0943 57.3058 47.0976 57.6971 46.717C57.7241 46.6924 58.13 46.3271 58.9267 46.1272C58.8917 46.4695 58.84 46.8776 58.7637 47.3356C58.5246 48.7701 58.0483 50.6675 57.1056 52.5528C56.1649 54.4342 54.7696 56.2851 52.6954 57.6679C50.6273 59.0466 47.8251 60 44.0001 60C40.175 60 37.3728 59.0466 35.3048 57.6679C33.2305 56.2851 31.8352 54.4342 30.8945 52.5528C29.9518 50.6675 29.4755 48.7701 29.2364 47.3356C29.1601 46.8776 29.1084 46.4695 29.0734 46.1272C29.825 46.3158 30.2273 46.6507 30.2947 46.7096C30.7038 47.0676 31.3046 47.1097 31.7072 46.7071C32.2484 46.1659 31.9381 45.4379 31.4126 45.0438C31.2451 44.9182 31.0068 44.7603 30.6973 44.6056C30.075 44.2944 29.1728 44 28.0001 44Z" fill="#E0EEF8"/>
</g>
<path d="M9.0027 22C8.97733 24.1514 9.1296 26.8688 9.49776 29.7308C10.6498 38.6862 12.9864 48.9456 20.4678 47.9297C25.0693 47.3048 22.3381 38.8807 27.9492 38.8807C33.5603 38.8807 30.8291 47.3048 35.4306 47.9297C42.912 48.9456 45.8549 38.766 46.7196 29.7308C47.1589 25.1403 47.0401 20.9087 46.6527 18.7509C45.6671 13.261 44.1878 11.2265 42.2345 9.62692C37.7935 5.99011 33.5603 9.62692 27.9492 9.62692C24.6029 9.62692 21.7256 8.32498 19 8.05044M19 28C19 28 23 30 28 30C33 30 37 28 37 28M22 18.5V20.5C22 21.3284 21.3284 22 20.5 22C19.6716 22 19 21.3284 19 20.5V18.5C19 17.6716 19.6716 17 20.5 17C21.3284 17 22 17.6716 22 18.5ZM37 18.5V20.5C37 21.3284 36.3284 22 35.5 22C34.6716 22 34 21.3284 34 20.5V18.5C34 17.6716 34.6716 17 35.5 17C36.3284 17 37 17.6716 37 18.5Z" stroke="url(#paint0_linear_6152_73743)" stroke-width="2" stroke-linecap="round" stroke-linejoin="round"/>
<path d="M3 11C8.71429 9.85714 9.85714 8.71429 11 3C12.1429 8.71429 13.2857 9.85714 19 11C13.2857 12.1429 12.1429 13.2857 11 19C9.85714 13.2857 8.71429 12.1429 3 11Z" stroke="url(#paint1_linear_6152_73743)" stroke-width="2" stroke-linecap="round" stroke-linejoin="round"/>
</g>
<defs>
<linearGradient id="paint0_linear_6152_73743" x1="28" y1="8.01007" x2="28" y2="48" gradientUnits="userSpaceOnUse">
<stop stop-color="#00BDD6"/>
<stop offset="1" stop-color="#06A8BD"/>
</linearGradient>
<linearGradient id="paint1_linear_6152_73743" x1="11" y1="2.9998" x2="11" y2="19" gradientUnits="userSpaceOnUse">
<stop stop-color="#00BDD6"/>
<stop offset="1" stop-color="#06A8BD"/>
</linearGradient>
<clipPath id="clip0_6152_73743">
<rect width="72" height="72" fill="white" transform="translate(0 0.000976562)"/>
</clipPath>
<clipPath id="clip1_6152_73743">
<rect width="56" height="56" fill="white" transform="translate(16 16.001)"/>
</clipPath>
</defs>
</svg>
