<svg width="24" height="24" viewBox="0 0 24 24" fill="none" xmlns="http://www.w3.org/2000/svg">
<path d="M23 4.00099V10.001M23 10.001H17M23 10.001L18.37 5.64099C16.9906 4.26073 15.2 3.36618 13.268 3.09213C11.3359 2.81809 9.36717 3.17941 7.65836 4.12163C5.94954 5.06385 4.59325 6.53594 3.79386 8.31606C2.99448 10.0962 2.79531 12.0879 3.22637 13.991C3.65743 15.8942 4.69536 17.6057 6.18376 18.8677C7.67216 20.1296 9.53038 20.8736 11.4784 20.9876C13.4265 21.1015 15.3588 20.5793 16.9842 19.4995C18.6096 18.4197 19.84 16.8409 20.49 15.001" stroke="currentColor" stroke-width="2" stroke-linecap="round" stroke-linejoin="round"/>
</svg>
