<svg width="24" height="24" viewBox="0 0 24 24" fill="none" xmlns="http://www.w3.org/2000/svg">
<path d="M1 4.00099V10.001M1 10.001H7M1 10.001L5.64 5.64099C7.02091 4.26241 8.81245 3.36996 10.7447 3.0981C12.6769 2.82625 14.6451 3.18972 16.3528 4.13375C18.0605 5.07778 19.4152 6.55123 20.2126 8.33209C21.0101 10.1129 21.2072 12.1047 20.7742 14.0073C20.3413 15.91 19.3017 17.6203 17.8121 18.8807C16.3226 20.1412 14.4637 20.8833 12.5157 20.9955C10.5677 21.1076 8.63598 20.5836 7.01166 19.5024C5.38734 18.4212 4.15839 16.8414 3.51 15.001" stroke="currentColor" stroke-width="2" stroke-linecap="round" stroke-linejoin="round"/>
</svg>
