<svg width="24" height="24" viewBox="0 0 24 24" fill="none" xmlns="http://www.w3.org/2000/svg">
<path d="M20 2.00098H4C2.89543 2.00098 2 2.89641 2 4.00098V8.00098C2 9.10555 2.89543 10.001 4 10.001H20C21.1046 10.001 22 9.10555 22 8.00098V4.00098C22 2.89641 21.1046 2.00098 20 2.00098Z" stroke="currentColor" stroke-width="2" stroke-linecap="round" stroke-linejoin="round"/>
<path d="M20 14.001H4C2.89543 14.001 2 14.8964 2 16.001V20.001C2 21.1055 2.89543 22.001 4 22.001H20C21.1046 22.001 22 21.1055 22 20.001V16.001C22 14.8964 21.1046 14.001 20 14.001Z" stroke="currentColor" stroke-width="2" stroke-linecap="round" stroke-linejoin="round"/>
<path d="M6 6.00098H6.01" stroke="currentColor" stroke-width="2" stroke-linecap="round" stroke-linejoin="round"/>
<path d="M6 18.001H6.01" stroke="currentColor" stroke-width="2" stroke-linecap="round" stroke-linejoin="round"/>
</svg>
