<svg width="24" height="24" viewBox="0 0 24 24" fill="none" xmlns="http://www.w3.org/2000/svg">
<g clip-path="url(#clip0_3545_26)">
<path d="M12 15.001C13.6569 15.001 15 13.6579 15 12.001C15 10.3442 13.6569 9.00101 12 9.00101C10.3431 9.00101 9 10.3442 9 12.001C9 13.6579 10.3431 15.001 12 15.001Z" stroke="currentColor" stroke-width="2" stroke-linecap="round" stroke-linejoin="round"/>
<path d="M19.4 15.001C19.2669 15.3026 19.2272 15.6372 19.286 15.9616C19.3448 16.286 19.4995 16.5853 19.73 16.821L19.79 16.881C19.976 17.0668 20.1235 17.2873 20.2241 17.5301C20.3248 17.7729 20.3766 18.0332 20.3766 18.296C20.3766 18.5588 20.3248 18.8191 20.2241 19.0619C20.1235 19.3047 19.976 19.5253 19.79 19.711C19.6043 19.897 19.3837 20.0445 19.1409 20.1451C18.8981 20.2458 18.6378 20.2976 18.375 20.2976C18.1122 20.2976 17.8519 20.2458 17.6091 20.1451C17.3663 20.0445 17.1457 19.897 16.96 19.711L16.9 19.651C16.6643 19.4205 16.365 19.2658 16.0406 19.207C15.7162 19.1482 15.3816 19.1879 15.08 19.321C14.7842 19.4478 14.532 19.6583 14.3543 19.9265C14.1766 20.1948 14.0813 20.5092 14.08 20.831V21.001C14.08 21.5314 13.8693 22.0401 13.4942 22.4152C13.1191 22.7903 12.6104 23.001 12.08 23.001C11.5496 23.001 11.0409 22.7903 10.6658 22.4152C10.2907 22.0401 10.08 21.5314 10.08 21.001V20.911C10.0723 20.58 9.96512 20.259 9.77251 19.9897C9.5799 19.7204 9.31074 19.5153 9 19.401C8.69838 19.2679 8.36381 19.2282 8.03941 19.287C7.71502 19.3458 7.41568 19.5005 7.18 19.731L7.12 19.791C6.93425 19.977 6.71368 20.1245 6.47088 20.2251C6.22808 20.3258 5.96783 20.3776 5.705 20.3776C5.44217 20.3776 5.18192 20.3258 4.93912 20.2251C4.69632 20.1245 4.47575 19.977 4.29 19.791C4.10405 19.6053 3.95653 19.3847 3.85588 19.1419C3.75523 18.8991 3.70343 18.6388 3.70343 18.376C3.70343 18.1132 3.75523 17.8529 3.85588 17.6101C3.95653 17.3673 4.10405 17.1468 4.29 16.961L4.35 16.901C4.58054 16.6653 4.73519 16.366 4.794 16.0416C4.85282 15.7172 4.81312 15.3826 4.68 15.081C4.55324 14.7852 4.34276 14.533 4.07447 14.3553C3.80618 14.1776 3.49179 14.0823 3.17 14.081H3C2.46957 14.081 1.96086 13.8703 1.58579 13.4952C1.21071 13.1201 1 12.6114 1 12.081C1 11.5506 1.21071 11.0419 1.58579 10.6668C1.96086 10.2917 2.46957 10.081 3 10.081H3.09C3.42099 10.0733 3.742 9.96613 4.0113 9.77352C4.28059 9.58091 4.48572 9.31174 4.6 9.00101C4.73312 8.69939 4.77282 8.36481 4.714 8.04042C4.65519 7.71602 4.50054 7.41669 4.27 7.18101L4.21 7.12101C4.02405 6.93526 3.87653 6.71468 3.77588 6.47189C3.67523 6.22909 3.62343 5.96884 3.62343 5.70601C3.62343 5.44318 3.67523 5.18292 3.77588 4.94013C3.87653 4.69733 4.02405 4.47675 4.21 4.29101C4.39575 4.10505 4.61632 3.95754 4.85912 3.85689C5.10192 3.75624 5.36217 3.70443 5.625 3.70443C5.88783 3.70443 6.14808 3.75624 6.39088 3.85689C6.63368 3.95754 6.85425 4.10505 7.04 4.29101L7.1 4.35101C7.33568 4.58154 7.63502 4.73619 7.95941 4.79501C8.28381 4.85383 8.61838 4.81412 8.92 4.68101H9C9.29577 4.55424 9.54802 4.34376 9.72569 4.07547C9.90337 3.80718 9.99872 3.49279 10 3.17101V3.00101C10 2.47057 10.2107 1.96187 10.5858 1.58679C10.9609 1.21172 11.4696 1.00101 12 1.00101C12.5304 1.00101 13.0391 1.21172 13.4142 1.58679C13.7893 1.96187 14 2.47057 14 3.00101V3.09101C14.0013 3.41279 14.0966 3.72718 14.2743 3.99547C14.452 4.26376 14.7042 4.47424 15 4.60101C15.3016 4.73412 15.6362 4.77383 15.9606 4.71501C16.285 4.65619 16.5843 4.50154 16.82 4.27101L16.88 4.21101C17.0657 4.02505 17.2863 3.87754 17.5291 3.77689C17.7719 3.67624 18.0322 3.62443 18.295 3.62443C18.5578 3.62443 18.8181 3.67624 19.0609 3.77689C19.3037 3.87754 19.5243 4.02505 19.71 4.21101C19.896 4.39675 20.0435 4.61733 20.1441 4.86013C20.2448 5.10292 20.2966 5.36318 20.2966 5.62601C20.2966 5.88884 20.2448 6.14909 20.1441 6.39189C20.0435 6.63468 19.896 6.85526 19.71 7.04101L19.65 7.10101C19.4195 7.33669 19.2648 7.63602 19.206 7.96042C19.1472 8.28481 19.1869 8.61939 19.32 8.92101V9.00101C19.4468 9.29678 19.6572 9.54902 19.9255 9.7267C20.1938 9.90438 20.5082 9.99972 20.83 10.001H21C21.5304 10.001 22.0391 10.2117 22.4142 10.5868C22.7893 10.9619 23 11.4706 23 12.001C23 12.5314 22.7893 13.0401 22.4142 13.4152C22.0391 13.7903 21.5304 14.001 21 14.001H20.91C20.5882 14.0023 20.2738 14.0976 20.0055 14.2753C19.7372 14.453 19.5268 14.7052 19.4 15.001V15.001Z" stroke="currentColor" stroke-width="2" stroke-linecap="round" stroke-linejoin="round"/>
</g>
<defs>
<clipPath id="clip0_3545_26">
<rect width="24" height="24" fill="white" transform="translate(0 0.00100708)"/>
</clipPath>
</defs>
</svg>
