<svg width="24" height="24" viewBox="0 0 24 24" fill="none" xmlns="http://www.w3.org/2000/svg">
<path d="M18 8.001C19.6569 8.001 21 6.65785 21 5.001C21 3.34415 19.6569 2.001 18 2.001C16.3431 2.001 15 3.34415 15 5.001C15 6.65785 16.3431 8.001 18 8.001Z" stroke="currentColor" stroke-width="2" stroke-linecap="round" stroke-linejoin="round"/>
<path d="M6 15.001C7.65685 15.001 9 13.6579 9 12.001C9 10.3441 7.65685 9.001 6 9.001C4.34315 9.001 3 10.3441 3 12.001C3 13.6579 4.34315 15.001 6 15.001Z" stroke="currentColor" stroke-width="2" stroke-linecap="round" stroke-linejoin="round"/>
<path d="M18 22.001C19.6569 22.001 21 20.6579 21 19.001C21 17.3442 19.6569 16.001 18 16.001C16.3431 16.001 15 17.3442 15 19.001C15 20.6579 16.3431 22.001 18 22.001Z" stroke="currentColor" stroke-width="2" stroke-linecap="round" stroke-linejoin="round"/>
<path d="M8.59003 13.511L15.42 17.491" stroke="currentColor" stroke-width="2" stroke-linecap="round" stroke-linejoin="round"/>
<path d="M15.41 6.511L8.59003 10.491" stroke="currentColor" stroke-width="2" stroke-linecap="round" stroke-linejoin="round"/>
</svg>
