<svg width="24" height="24" viewBox="0 0 24 24" fill="none" xmlns="http://www.w3.org/2000/svg">
<path d="M14.5 10.001C13.67 10.001 13 9.33098 13 8.50098V3.50098C13 2.67098 13.67 2.00098 14.5 2.00098C15.33 2.00098 16 2.67098 16 3.50098V8.50098C16 9.33098 15.33 10.001 14.5 10.001Z" stroke="currentColor" stroke-width="2" stroke-linecap="round" stroke-linejoin="round"/>
<path d="M20.5 10.001H19V8.50098C19 7.67098 19.67 7.00098 20.5 7.00098C21.33 7.00098 22 7.67098 22 8.50098C22 9.33098 21.33 10.001 20.5 10.001Z" stroke="currentColor" stroke-width="2" stroke-linecap="round" stroke-linejoin="round"/>
<path d="M9.5 14.001C10.33 14.001 11 14.671 11 15.501V20.501C11 21.331 10.33 22.001 9.5 22.001C8.67 22.001 8 21.331 8 20.501V15.501C8 14.671 8.67 14.001 9.5 14.001Z" stroke="currentColor" stroke-width="2" stroke-linecap="round" stroke-linejoin="round"/>
<path d="M3.5 14.001H5V15.501C5 16.331 4.33 17.001 3.5 17.001C2.67 17.001 2 16.331 2 15.501C2 14.671 2.67 14.001 3.5 14.001Z" stroke="currentColor" stroke-width="2" stroke-linecap="round" stroke-linejoin="round"/>
<path d="M14 14.501C14 13.671 14.67 13.001 15.5 13.001H20.5C21.33 13.001 22 13.671 22 14.501C22 15.331 21.33 16.001 20.5 16.001H15.5C14.67 16.001 14 15.331 14 14.501Z" stroke="currentColor" stroke-width="2" stroke-linecap="round" stroke-linejoin="round"/>
<path d="M15.5 19.001H14V20.501C14 21.331 14.67 22.001 15.5 22.001C16.33 22.001 17 21.331 17 20.501C17 19.671 16.33 19.001 15.5 19.001Z" stroke="currentColor" stroke-width="2" stroke-linecap="round" stroke-linejoin="round"/>
<path d="M10 9.50098C10 8.67098 9.33 8.00098 8.5 8.00098H3.5C2.67 8.00098 2 8.67098 2 9.50098C2 10.331 2.67 11.001 3.5 11.001H8.5C9.33 11.001 10 10.331 10 9.50098Z" stroke="currentColor" stroke-width="2" stroke-linecap="round" stroke-linejoin="round"/>
<path d="M8.5 5.00098H10V3.50098C10 2.67098 9.33 2.00098 8.5 2.00098C7.67 2.00098 7 2.67098 7 3.50098C7 4.33098 7.67 5.00098 8.5 5.00098Z" stroke="currentColor" stroke-width="2" stroke-linecap="round" stroke-linejoin="round"/>
</svg>
