<svg width="24" height="24" viewBox="0 0 24 24" fill="none" xmlns="http://www.w3.org/2000/svg">
<path d="M16.2857 2.00098H7.71429C6.76751 2.00098 6 2.89641 6 4.00098V20.001C6 21.1055 6.76751 22.001 7.71429 22.001H16.2857C17.2325 22.001 18 21.1055 18 20.001V4.00098C18 2.89641 17.2325 2.00098 16.2857 2.00098Z" stroke="currentColor" stroke-width="2" stroke-linecap="round" stroke-linejoin="round"/>
<path d="M12 18.001H12.01" stroke="currentColor" stroke-width="2" stroke-linecap="round" stroke-linejoin="round"/>
<path d="M10 3.00098H14" stroke="currentColor" stroke-width="2" stroke-linecap="round" stroke-linejoin="round"/>
<path d="M2 16.001C1.35753 14.7806 1 13.4265 1 12.001C1 10.5754 1.35753 9.22137 2 8.00098" stroke="currentColor" stroke-width="2" stroke-linecap="round"/>
<path d="M22 8.00098C22.6425 9.22137 23 10.5754 23 12.001C23 13.4265 22.6425 14.7806 22 16.001" stroke="currentColor" stroke-width="2" stroke-linecap="round"/>
</svg>
