<svg width="32" height="32" viewBox="0 0 32 32" fill="none" xmlns="http://www.w3.org/2000/svg">
<path d="M20.2857 5H11.7143C10.7675 5 10 5.89543 10 7V25C10 26.1046 10.7675 27 11.7143 27H20.2857C21.2325 27 22 26.1046 22 25V7C22 5.89543 21.2325 5 20.2857 5Z" stroke="currentColor" stroke-width="2" stroke-linecap="round" stroke-linejoin="round"/>
<path d="M16 23.001H16.01" stroke="currentColor" stroke-width="2" stroke-linecap="round" stroke-linejoin="round"/>
<path d="M14 6.00098H18" stroke="currentColor" stroke-width="2" stroke-linecap="round" stroke-linejoin="round"/>
<path d="M6 20.001C5.35753 18.7806 5 17.4265 5 16.001C5 14.5754 5.35753 13.2214 6 12.001" stroke="currentColor" stroke-width="2" stroke-linecap="round"/>
<path d="M26 12.001C26.6425 13.2214 27 14.5754 27 16.001C27 17.4265 26.6425 18.7806 26 20.001" stroke="currentColor" stroke-width="2" stroke-linecap="round"/>
</svg>
