<svg width="56" height="56" viewBox="0 0 56 56" fill="none" xmlns="http://www.w3.org/2000/svg">
<path d="M54.0001 22C45.0001 19 35 11 28.0001 17C20 11 10.0001 19 2.00012 22M54.0001 22C54.0001 22 47 42 28.0001 42C9.00024 42 2.00012 22 2.00012 22M54.0001 22C46 27 39 23 34 23C30 23 28.0001 25 28.0001 25C28.0001 25 26 23 21 23C16 23 10 27 2.00012 22M8 27C12.2497 31.7281 21 34 28.0001 34C35.0002 34 43.7503 31.7281 48 27M16.5 24.5L16.8722 26.3612C16.9499 26.7495 17.2494 27.0554 17.6359 27.1413L20.4271 27.7616C21.0026 27.8895 21.5632 27.4944 21.6363 26.9094L22 24V27.5868C22 28.104 22.3944 28.5359 22.9095 28.5827L26.5539 28.914C27.0841 28.9622 27.5591 28.5866 27.6344 28.0596L28.0001 25.5L28.3657 28.0595C28.4409 28.5865 28.916 28.9622 29.4462 28.914L33.0905 28.5827C33.6056 28.5359 34 28.104 34 27.5868V24L34.3637 26.9094C34.4368 27.4944 34.9974 27.8895 35.5729 27.7616L38.3641 27.1413C38.7506 27.0554 39.0501 26.7495 39.1278 26.3612L39.5 24.5M48 41C47 43 47 43 45 44C47 45 47 45 48 47C49 45 49 45 51 44C49 43 49 43 48 41ZM9.00011 4.99997C8.00012 6.99999 7.00012 7.99999 5.00012 8.99999C7.00012 9.99999 8.00012 11 9.00012 13C10.0001 11 11.0001 9.99999 13.0001 8.99999C11.0001 7.99999 10.0001 6.99999 9.00011 4.99997ZM40 48C39.1716 48 38.5 48.6716 38.5 49.5C38.5 50.3284 39.1716 51 40 51C40.8284 51 41.5 50.3284 41.5 49.5C41.5 48.6716 40.8284 48 40 48Z" stroke="currentColor" stroke-width="2" stroke-linecap="round" stroke-linejoin="round"/>
</svg>
