<svg width="46" height="46" viewBox="0 0 46 46" fill="none" xmlns="http://www.w3.org/2000/svg">
<path d="M16 32C16.5523 32 17 31.5523 17 31C17 30.4477 16.5523 30 16 30V32ZM23.533 31.2724L24.0368 32.1362L23.533 31.2724ZM13 11H33V9H13V11ZM36 14V27H38V14H36ZM10 27V14H8V27H10ZM13.2824 36.0942L13.9899 31.1414L12.0101 30.8586L11.3025 35.8114L13.2824 36.0942ZM33 30H24.5407V32H33V30ZM23.0291 30.4087L13.2824 36.0942L14.2901 37.8218L24.0368 32.1362L23.0291 30.4087ZM13 32H16V30H13V32ZM24.5407 30C24.0095 30 23.4879 30.141 23.0291 30.4087L24.0368 32.1362C24.1898 32.047 24.3636 32 24.5407 32V30ZM8 27C8 29.7614 10.2386 32 13 32V30C11.3431 30 10 28.6569 10 27H8ZM36 27C36 28.6569 34.6569 30 33 30V32C35.7614 32 38 29.7614 38 27H36ZM33 11C34.6569 11 36 12.3431 36 14H38C38 11.2386 35.7614 9 33 9V11ZM11.3025 35.8114C11.066 37.4671 12.8454 38.6646 14.2901 37.8218L13.2824 36.0942H13.2824L11.3025 35.8114ZM13 9C10.2386 9 8 11.2386 8 14H10C10 12.3431 11.3431 11 13 11V9Z" fill="currentColor"/>
</svg>
