<svg width="46" height="46" viewBox="0 0 46 46" fill="none" xmlns="http://www.w3.org/2000/svg">
<path d="M31 32C30.4477 32 30 31.5523 30 31C30 30.4477 30.4477 30 31 30V32ZM23.467 31.2724L22.9632 32.1362L23.467 31.2724ZM34 9H12V7H34V9ZM9 12V27H7V12H9ZM37 27V12H39V27H37ZM33.7176 36.0942L33.0101 31.1414L34.9899 30.8586L35.6975 35.8114L33.7176 36.0942ZM12 30H22.4593V32H12V30ZM23.9709 30.4087L33.7176 36.0942L32.7099 37.8218L22.9632 32.1362L23.9709 30.4087ZM34 32H31V30H34V32ZM22.4593 30C22.9905 30 23.5121 30.141 23.9709 30.4087L22.9632 32.1362C22.8102 32.047 22.6364 32 22.4593 32V30ZM39 27C39 29.7614 36.7614 32 34 32V30C35.6569 30 37 28.6569 37 27H39ZM9 27C9 28.6569 10.3431 30 12 30V32C9.23858 32 7 29.7614 7 27H9ZM12 9C10.3431 9 9 10.3431 9 12H7C7 9.23858 9.23858 7 12 7V9ZM35.6975 35.8114C35.934 37.4671 34.1546 38.6646 32.7099 37.8218L33.7176 36.0942H33.7176L35.6975 35.8114ZM34 7C36.7614 7 39 9.23858 39 12H37C37 10.3431 35.6569 9 34 9V7Z" fill="currentColor"/>
</svg>
