<svg width="24" height="24" viewBox="0 0 24 24" fill="none" xmlns="http://www.w3.org/2000/svg">
<path d="M18 2.00098H6C4.89543 2.00098 4 2.89641 4 4.00098V20.001C4 21.1055 4.89543 22.001 6 22.001H18C19.1046 22.001 20 21.1055 20 20.001V4.00098C20 2.89641 19.1046 2.00098 18 2.00098Z" stroke="currentColor" stroke-width="2" stroke-linecap="round" stroke-linejoin="round"/>
<path d="M12 18.001C14.2091 18.001 16 16.2101 16 14.001C16 11.7918 14.2091 10.001 12 10.001C9.79086 10.001 8 11.7918 8 14.001C8 16.2101 9.79086 18.001 12 18.001Z" stroke="currentColor" stroke-width="2" stroke-linecap="round" stroke-linejoin="round"/>
<path d="M12 6.00098H12.01" stroke="currentColor" stroke-width="2" stroke-linecap="round" stroke-linejoin="round"/>
</svg>
