<svg width="24" height="24" viewBox="0 0 24 24" fill="none" xmlns="http://www.w3.org/2000/svg">
<path fill-rule="evenodd" clip-rule="evenodd" d="M12 1.00098C12.3806 1.00098 12.7282 1.21705 12.8967 1.55835L15.7543 7.34744L22.1446 8.28149C22.5212 8.33653 22.8339 8.60054 22.9512 8.96254C23.0686 9.32455 22.9703 9.72181 22.6977 9.98734L18.0745 14.4903L19.1656 20.8519C19.23 21.2271 19.0757 21.6063 18.7677 21.83C18.4598 22.0538 18.0515 22.0832 17.7145 21.906L12 18.9008L6.28545 21.906C5.94853 22.0832 5.54024 22.0538 5.23226 21.83C4.92429 21.6063 4.77004 21.2271 4.83439 20.8519L5.92548 14.4903L1.30227 9.98734C1.02965 9.72181 0.931375 9.32455 1.04875 8.96254C1.16613 8.60054 1.47881 8.33653 1.85537 8.28149L8.24574 7.34744L11.1033 1.55835C11.2718 1.21705 11.6194 1.00098 12 1.00098Z" fill="currentColor"/>
</svg>
