<svg width="72" height="72" viewBox="0 0 72 72" fill="none" xmlns="http://www.w3.org/2000/svg">
<g clip-path="url(#clip0_6150_74905)">
<g clip-path="url(#clip1_6150_74905)">
<path fill-rule="evenodd" clip-rule="evenodd" d="M27 31C27 28.7909 28.7909 27 31 27H58C60.2091 27 62 28.7909 62 31V41.6459C62 42.4637 61.5021 43.1992 60.7428 43.5029L58.2572 44.4971C57.4979 44.8008 57 45.5363 57 46.3541V49.6459C57 50.4637 57.4979 51.1992 58.2572 51.5029L60.7428 52.4971C61.5021 52.8008 62 53.5363 62 54.3541V68C62 70.2091 60.2091 72 58 72H31C28.7909 72 27 70.2091 27 68V54.3541C27 53.5363 27.4979 52.8008 28.2572 52.4971L30.7428 51.5029C31.5021 51.1992 32 50.4637 32 49.6459V46.3541C32 45.5363 31.5021 44.8008 30.7428 44.4971L28.2572 43.5029C27.4979 43.1992 27 42.4637 27 41.6459V31ZM29 31C29 29.8954 29.8954 29 31 29H58C59.1046 29 60 29.8954 60 31V37C60 37 50.6064 36.8688 45 35C39 33 29 33 29 33V31ZM60 68H29C29 69.1046 29.8954 70 31 70H58C59.1046 70 60 69.1046 60 68Z" fill="#E0EEF8"/>
<path fill-rule="evenodd" clip-rule="evenodd" d="M35 18C35 16.8954 35.8954 16 37 16H51C52.1046 16 53 16.8954 53 18V23C53 24.1046 52.1046 25 51 25H37C35.8954 25 35 24.1046 35 23V18ZM37 19C37 18.4477 37.4477 18 38 18C38.5523 18 39 18.4477 39 19V22C39 22.5523 38.5523 23 38 23C37.4477 23 37 22.5523 37 22V19ZM42 18C41.4477 18 41 18.4477 41 19V22C41 22.5523 41.4477 23 42 23C42.5523 23 43 22.5523 43 22V19C43 18.4477 42.5523 18 42 18ZM45 19C45 18.4477 45.4477 18 46 18C46.5523 18 47 18.4477 47 19V22C47 22.5523 46.5523 23 46 23C45.4477 23 45 22.5523 45 22V19ZM50 18C49.4477 18 49 18.4477 49 19V22C49 22.5523 49.4477 23 50 23C50.5523 23 51 22.5523 51 22V19C51 18.4477 50.5523 18 50 18Z" fill="#E0EEF8"/>
</g>
<g clip-path="url(#clip2_6150_74905)">
<path d="M43 3L45.8944 4.44721C46.572 4.786 47 5.47852 47 6.23607V49.7639C47 50.5215 46.572 51.214 45.8944 51.5528L43 53M43 3V3C43 1.89543 42.1046 1 41 1H15C13.8954 1 13 1.89543 13 3V3M43 3V3C43 3.55228 42.5523 4 42 4H14C13.4477 4 13 3.55228 13 3V3M13 3L10.1056 4.44721C9.428 4.786 9 5.47853 9 6.23607V49.7639C9 50.5215 9.428 51.214 10.1056 51.5528L13 53M13 53V53C13 54.1046 13.8954 55 15 55H41C42.1046 55 43 54.1046 43 53V53M13 53V53C13 52.4477 13.4477 52 14 52H42C42.5523 52 43 52.4477 43 53V53" stroke="url(#paint0_linear_6150_74905)" stroke-width="2" stroke-linecap="round" stroke-linejoin="round"/>
<path d="M25 42.001V23C25 22 24 21 23 21L21 21M25 42.001L25 45C25 46.5 23.5 48 22 48H20C18.5 48 17 46.5 17 45V42.001M25 42.001L20 42M17 42.001V23C17 22 18 21 19 21L21 21M17 42.001L20 42M21 21V17L17 13L22 8M20 42V40M20 37V32" stroke="url(#paint1_linear_6150_74905)" stroke-width="2" stroke-linecap="round" stroke-linejoin="round"/>
<path d="M31 42.001H39M31 42.001V45C31 46.5 32.5 48 34 48H36C37.7269 48 39 46.5 39 45L39 42.001M31 42.001V23C31 22 32 21 33 21H35M39 42.001V23C39 22 38 21 37 21H36M35 21V16M35 21H36M35 16C37.2091 16 39 14.2091 39 12C39 9.79086 37.2091 8 35 8C32.7909 8 31 9.79086 31 12C31 14.2091 32.7909 16 35 16ZM36 21V23M36 26V33" stroke="url(#paint2_linear_6150_74905)" stroke-width="2" stroke-linecap="round" stroke-linejoin="round"/>
</g>
</g>
<defs>
<linearGradient id="paint0_linear_6150_74905" x1="28" y1="0.999341" x2="28" y2="55" gradientUnits="userSpaceOnUse">
<stop stop-color="#00BDD6"/>
<stop offset="1" stop-color="#06A8BD"/>
</linearGradient>
<linearGradient id="paint1_linear_6150_74905" x1="21" y1="7.99951" x2="21" y2="48" gradientUnits="userSpaceOnUse">
<stop stop-color="#00BDD6"/>
<stop offset="1" stop-color="#06A8BD"/>
</linearGradient>
<linearGradient id="paint2_linear_6150_74905" x1="35" y1="7.99951" x2="35" y2="48" gradientUnits="userSpaceOnUse">
<stop stop-color="#00BDD6"/>
<stop offset="1" stop-color="#06A8BD"/>
</linearGradient>
<clipPath id="clip0_6150_74905">
<rect width="72" height="72" fill="white" transform="translate(0 0.000976562)"/>
</clipPath>
<clipPath id="clip1_6150_74905">
<rect width="56" height="56" fill="white" transform="translate(16 16.001)"/>
</clipPath>
<clipPath id="clip2_6150_74905">
<rect width="56" height="56" fill="white" transform="translate(0 0.000976562)"/>
</clipPath>
</defs>
</svg>
