<svg width="56" height="56" viewBox="0 0 56 56" fill="none" xmlns="http://www.w3.org/2000/svg">
<g clip-path="url(#clip0_6143_74127)">
<path d="M3 5.99999C5 4.99999 5 4.99999 5.99999 2.99997C7 4.99998 7 4.99999 9 5.99999C7 6.99999 7 6.99999 6 8.99999C5 6.99999 5 6.99999 3 5.99999Z" stroke="currentColor" stroke-width="2" stroke-linecap="round" stroke-linejoin="round"/>
<path d="M13 8.5C13 7.67157 13.6716 7 14.5 7C15.3284 7 16 7.67157 16 8.5C16 9.32843 15.3284 10 14.5 10C13.6716 10 13 9.32843 13 8.5Z" stroke="currentColor" stroke-width="2" stroke-linecap="round" stroke-linejoin="round"/>
<path d="M30.5 23C30.5 22.1716 31.1716 21.5 32 21.5C32.8284 21.5 33.5 22.1716 33.5 23C33.5 23.8284 32.8284 24.5 32 24.5C31.1716 24.5 30.5 23.8284 30.5 23Z" stroke="currentColor" stroke-width="2" stroke-linecap="round" stroke-linejoin="round"/>
<path d="M50 7C50.0493 6.45702 50.0168 5.74446 49.8323 4.99999M43 12.5C42.1752 13.9203 39.6857 15.6509 38.5197 14.5C37 13 39.5 11.5 40.5001 6C40.7586 4.57789 41.488 2.99612 42.5876 2M49.8323 4.99999C49.3938 3.23083 48.1096 0.99999 45 1C44.0725 1 43.2607 1.3903 42.5876 2M49.8323 4.99999C51.3882 5.16666 54.6 6.2 55 9C55.4 11.8 53.5 14.2857 51 15C47.5 16 45 17.5 43.5 19M42.5876 2C43.0584 2.33334 44.5 4.5 44.5 4.5M44.5 4.5L47 4.99999M44.5 4.5L44 7" stroke="currentColor" stroke-width="2" stroke-linecap="round" stroke-linejoin="round"/>
<path d="M3.5 34L1.78835 35.9969C1.07973 36.8236 1.18434 38.0703 2.02083 38.7674V38.7674C2.84105 39.4509 4.05822 39.3487 4.75307 38.5381L6.5 36.5M3.5 34C3.5 34 9.41876 26.9538 16.1777 24.5M3.5 34L6.5 36.5M6.5 36.5C11.0376 31.5843 15.2113 28.8793 18 28.0968M18 28.0968C20.3013 27.451 22 27.7738 23.0842 28.3414C23.6171 28.6203 24.3262 28.5806 24.6955 28.1058L27.5 24.5L31.1957 26.8758C33.2026 28.166 35.7946 28.1507 37.5458 26.5303C40.9146 23.4133 45.6622 17.6487 44 11L39.0571 18.4144C37.8967 20.155 35.5911 20.7075 33.7678 19.6819L31.8615 18.6096C30.1981 17.6739 28.1054 18.0437 26.8634 19.4927L23.414 23.517C23.1614 23.8117 22.7619 23.9287 22.3815 23.8519C20.33 23.4377 18.2156 23.7601 16.1777 24.5M18 28.0968C18 27.6194 16.7851 25.5 16.1777 24.5" stroke="currentColor" stroke-width="2" stroke-linecap="round" stroke-linejoin="round"/>
<path d="M24.7015 52.096L23.0167 54.1156C22.3191 54.9517 21.0724 55.0556 20.2461 54.3466C19.4358 53.6513 19.3343 52.4341 20.0183 51.6142L21.7379 49.553M24.7015 52.096C24.7015 52.096 30.6665 45.0889 31.9634 38.0163M24.7015 52.096L21.7379 49.553M21.7379 49.553C25.8315 44.2619 27.8055 39.6968 28.1139 36.8168M28.1139 36.8168C28.3685 34.4402 27.7679 32.8187 27.0281 31.8439C26.6645 31.3648 26.5859 30.6589 26.9927 30.2159L30 26.5C30 26.5 33.2567 28 34 28L31.7307 30.7172C31.482 31.0153 31.433 31.4286 31.572 31.7911C32.3212 33.7452 32.3545 35.8837 31.9634 38.0163M28.1139 36.8168C28.5847 36.7375 30.8764 37.5834 31.9634 38.0163M25.6729 20.5C25.5392 19.3994 25.7638 18.2718 26.4116 17.2823C28.7819 13.6623 33.269 8.44291 39.5 8.3053V9.42355L34.1637 14.4439C32.8947 15.6377 32.5704 17.4779 33.2567 19" stroke="currentColor" stroke-width="2" stroke-linecap="round" stroke-linejoin="round"/>
</g>
<defs>
<clipPath id="clip0_6143_74127">
<rect width="56" height="56" fill="white" transform="translate(0 0.00100708)"/>
</clipPath>
</defs>
</svg>
