<svg width="24" height="24" viewBox="0 0 24 24" fill="none" xmlns="http://www.w3.org/2000/svg">
<path d="M12 22.001C17.5228 22.001 22 17.5238 22 12.001C22 6.47813 17.5228 2.00098 12 2.00098C6.47715 2.00098 2 6.47813 2 12.001C2 17.5238 6.47715 22.001 12 22.001Z" stroke="currentColor" stroke-width="2" stroke-linecap="round" stroke-linejoin="round"/>
<path d="M12 18.001C15.3137 18.001 18 15.3147 18 12.001C18 8.68727 15.3137 6.00098 12 6.00098C8.68629 6.00098 6 8.68727 6 12.001C6 15.3147 8.68629 18.001 12 18.001Z" stroke="currentColor" stroke-width="2" stroke-linecap="round" stroke-linejoin="round"/>
<path d="M12 14.001C13.1046 14.001 14 13.1055 14 12.001C14 10.8964 13.1046 10.001 12 10.001C10.8954 10.001 10 10.8964 10 12.001C10 13.1055 10.8954 14.001 12 14.001Z" stroke="currentColor" stroke-width="2" stroke-linecap="round" stroke-linejoin="round"/>
</svg>
