<svg width="72" height="72" viewBox="0 0 72 72" fill="none" xmlns="http://www.w3.org/2000/svg">
<path d="M57.0699 57.6037L58.3339 63.6434C58.5391 64.5114 57.5913 65.1935 56.8334 64.7231L46.4093 58.254C46.1418 58.088 45.8332 58 45.5183 58H44C37.3726 58 32 52.6274 32 46C32 44.9641 32.1313 43.9589 32.3781 43M53 58H54C60.6274 58 66 52.6274 66 46C66 39.3726 60.6274 34 54 34H51M38 42H59M38 46H60M40 50H53" stroke="currentColor" stroke-width="2" stroke-linecap="round"/>
<path d="M17.0841 37.2306L15.5884 45.8421C15.4365 46.6859 16.3474 47.317 17.0841 46.8785L31.5272 38.2814C31.8367 38.0972 32.1901 38 32.5502 38H34C42.8366 38 50 30.8366 50 22C50 13.1634 42.8366 6 34 6H22C13.1634 6 6 13.1634 6 22C6 30.8366 13.1634 38 22 38H23" stroke="currentColor" stroke-width="2" stroke-linecap="round"/>
<path d="M32.8 13C31.0635 13.0018 29.3762 13.5644 28 14.6004C26.6238 13.5644 24.9365 13.0018 23.2 13C20.284 13 18 15.8745 18 19.3C18 23.2723 21.5 28.5 28 31C34.5 28.5 38 23.2731 38 19.3C38 15.8745 35.716 13 32.8 13Z" stroke="currentColor" stroke-width="2" stroke-linecap="round"/>
</svg>
