<svg width="24" height="24" viewBox="0 0 24 24" fill="none" xmlns="http://www.w3.org/2000/svg">
<g clip-path="url(#clip0_3545_1498)">
<path d="M14 14.761V3.50098C14 2.83794 13.7366 2.20205 13.2678 1.73321C12.7989 1.26437 12.163 1.00098 11.5 1.00098C10.837 1.00098 10.2011 1.26437 9.73223 1.73321C9.26339 2.20205 9 2.83794 9 3.50098V14.761C8.19728 15.2973 7.58832 16.0776 7.26307 16.9866C6.93782 17.8956 6.91352 18.885 7.19376 19.8089C7.47399 20.7327 8.04391 21.542 8.81934 22.1171C9.59476 22.6922 10.5346 23.0026 11.5 23.0026C12.4654 23.0026 13.4052 22.6922 14.1807 22.1171C14.9561 21.542 15.526 20.7327 15.8062 19.8089C16.0865 18.885 16.0622 17.8956 15.7369 16.9866C15.4117 16.0776 14.8027 15.2973 14 14.761Z" stroke="currentColor" stroke-width="2" stroke-linecap="round" stroke-linejoin="round"/>
</g>
<defs>
<clipPath id="clip0_3545_1498">
<rect width="24" height="24" fill="white" transform="translate(0 0.000976562)"/>
</clipPath>
</defs>
</svg>
