<svg width="24" height="24" viewBox="0 0 24 24" fill="none" xmlns="http://www.w3.org/2000/svg">
<path d="M17 2.00097H19.67C20.236 1.99096 20.7859 2.18911 21.2154 2.55779C21.6449 2.92647 21.9241 3.44003 22 4.00097V11.001C21.9241 11.5619 21.6449 12.0755 21.2154 12.4442C20.7859 12.8128 20.236 13.011 19.67 13.001H17M10 15.001V19.001C10 19.7966 10.3161 20.5597 10.8787 21.1223C11.4413 21.6849 12.2044 22.001 13 22.001L17 13.001V2.00097H5.72C5.23767 1.99552 4.76962 2.16457 4.40209 2.47697C4.03457 2.78936 3.79232 3.22407 3.72 3.70097L2.34 12.701C2.29649 12.9876 2.31583 13.2803 2.39666 13.5587C2.47749 13.8372 2.6179 14.0947 2.80814 14.3135C2.99839 14.5322 3.23392 14.707 3.49843 14.8258C3.76294 14.9445 4.05009 15.0043 4.34 15.001H10Z" stroke="currentColor" stroke-width="2" stroke-linecap="round" stroke-linejoin="round"/>
</svg>
