<svg width="24" height="24" viewBox="0 0 24 24" fill="none" xmlns="http://www.w3.org/2000/svg">
<path d="M7 11.001L11 2.00098C11.7956 2.00098 12.5587 2.31705 13.1213 2.87966C13.6839 3.44227 14 4.20533 14 5.00098V9.00098H19.66C19.9499 8.99769 20.2371 9.05748 20.5016 9.17619C20.7661 9.29491 21.0016 9.46971 21.1919 9.68849C21.3821 9.90727 21.5225 10.1648 21.6033 10.4432C21.6842 10.7217 21.7035 11.0143 21.66 11.301L20.28 20.301C20.2077 20.7779 19.9654 21.2126 19.5979 21.525C19.2304 21.8374 18.7623 22.0064 18.28 22.001H7M7 11.001V22.001M7 11.001H4C3.46957 11.001 2.96086 11.2117 2.58579 11.5868C2.21071 11.9618 2 12.4705 2 13.001V20.001C2 20.5314 2.21071 21.0401 2.58579 21.4152C2.96086 21.7903 3.46957 22.001 4 22.001H7" stroke="currentColor" stroke-width="2" stroke-linecap="round" stroke-linejoin="round"/>
</svg>
