<svg width="24" height="24" viewBox="0 0 24 24" fill="none" xmlns="http://www.w3.org/2000/svg">
<g clip-path="url(#clip0_4981_40342)">
<path d="M21.9893 6.5085C18.9725 6.5085 16.263 4.0465 16.2325 1H12.5156L12.5111 16.1918C12.5111 17.6292 11.5426 18.848 10.2 19.2766C8.14461 19.9327 5.80213 18.4715 5.76797 16.2409C5.7338 14.0103 8 12.5 9.99997 13.03V9.38282C6.11547 9.38282 2.283 11.5486 2.01366 15.7628C1.86879 18.0356 2.94576 20.223 4.75937 21.5725C6.00397 22.4982 7.52556 23 9.12819 23C11.0309 23 12.8223 22.2919 14.1685 21.0058C15.508 19.7263 16.2481 18.0277 16.2561 16.2198L16.2369 8.19117C17.8917 9.42483 19.9378 10.0846 22 10.0839L21.9893 6.5085Z" stroke="currentColor" stroke-width="2"/>
</g>
<defs>
<clipPath id="clip0_4981_40342">
<rect width="24" height="24" fill="white" transform="translate(0 0.000976562)"/>
</clipPath>
</defs>
</svg>
