<svg width="24" height="24" viewBox="0 0 24 24" fill="none" xmlns="http://www.w3.org/2000/svg">
<g clip-path="url(#clip0_3545_208)">
<path d="M14.7 6.30102C14.5168 6.48795 14.4141 6.73926 14.4141 7.00102C14.4141 7.26277 14.5168 7.51409 14.7 7.70102L16.3 9.30102C16.4869 9.48424 16.7382 9.58687 17 9.58687C17.2617 9.58687 17.5131 9.48424 17.7 9.30102L21.47 5.53102C21.9728 6.64221 22.1251 7.88025 21.9065 9.08016C21.6878 10.2801 21.1087 11.3849 20.2463 12.2473C19.3838 13.1097 18.279 13.6888 17.0791 13.9075C15.8792 14.1261 14.6412 13.9739 13.53 13.471L6.61999 20.381C6.22217 20.7788 5.6826 21.0023 5.11999 21.0023C4.55738 21.0023 4.01782 20.7788 3.61999 20.381C3.22217 19.9832 2.99867 19.4436 2.99867 18.881C2.99867 18.3184 3.22217 17.7788 3.61999 17.381L10.53 10.471C10.0272 9.35983 9.87491 8.12178 10.0935 6.92187C10.3122 5.72196 10.8913 4.61717 11.7537 3.75474C12.6161 2.8923 13.7209 2.31319 14.9208 2.09456C16.1208 1.87593 17.3588 2.02818 18.47 2.53102L14.71 6.29102L14.7 6.30102Z" stroke="currentColor" stroke-width="2" stroke-linecap="round" stroke-linejoin="round"/>
</g>
<defs>
<clipPath id="clip0_3545_208">
<rect width="24" height="24" fill="white" transform="translate(0 0.00100708)"/>
</clipPath>
</defs>
</svg>
