<svg width="24" height="24" viewBox="0 0 24 24" fill="none" xmlns="http://www.w3.org/2000/svg">
<path d="M3 6.001H21" stroke="currentColor" stroke-width="2" stroke-linecap="round" stroke-linejoin="round"/>
<path d="M8 6.001V4.001C8 3.47057 8.21071 2.96186 8.58579 2.58679C8.96086 2.21171 9.46957 2.001 10 2.001H14C14.5304 2.001 15.0391 2.21171 15.4142 2.58679C15.7893 2.96186 16 3.47057 16 4.001V6.001M19 6.001V20.001C19 20.5314 18.7893 21.0401 18.4142 21.4152C18.0391 21.7903 17.5304 22.001 17 22.001H7C6.46957 22.001 5.96086 21.7903 5.58579 21.4152C5.21071 21.0401 5 20.5314 5 20.001V6.001H19Z" stroke="currentColor" stroke-width="2" stroke-linecap="round" stroke-linejoin="round"/>
<path d="M10 11.001V17.001" stroke="currentColor" stroke-width="2" stroke-linecap="round" stroke-linejoin="round"/>
<path d="M14 11.001V17.001" stroke="currentColor" stroke-width="2" stroke-linecap="round" stroke-linejoin="round"/>
</svg>
