<svg width="24" height="24" viewBox="0 0 24 24" fill="none" xmlns="http://www.w3.org/2000/svg">
<path d="M3 6.00101H21" stroke="currentColor" stroke-width="2" stroke-linecap="round" stroke-linejoin="round"/>
<path d="M8 6.00101V4.00101C8 3.47057 8.21071 2.96187 8.58579 2.58679C8.96086 2.21172 9.46957 2.00101 10 2.00101H14C14.5304 2.00101 15.0391 2.21172 15.4142 2.58679C15.7893 2.96187 16 3.47057 16 4.00101V6.00101M19 6.00101V20.001C19 20.5314 18.7893 21.0401 18.4142 21.4152C18.0391 21.7903 17.5304 22.001 17 22.001H7C6.46957 22.001 5.96086 21.7903 5.58579 21.4152C5.21071 21.0401 5 20.5314 5 20.001V6.00101H19Z" stroke="currentColor" stroke-width="2" stroke-linecap="round" stroke-linejoin="round"/>
</svg>
