<svg width="56" height="56" viewBox="0 0 56 56" fill="none" xmlns="http://www.w3.org/2000/svg">
<path d="M5.29748 16.9011C6.49005 10.3132 8.17468 7.87185 10.5392 5.9523C15.9503 1.55962 21.1462 5.95231 27.9385 5.9523C34.7308 5.9523 39.8553 1.58813 45.2312 5.9523C47.5958 7.87185 49.3864 10.3132 50.5795 16.9011C51.0485 19.4905 51.1923 24.5684 50.6606 30.0769C50.4066 32.7076 50.0045 35.4191 49.4118 38C48.7098 41.0568 44.6667 38 44 39C42 42 48 42.9006 47.5 44.0769C45.3489 49.1372 42.0164 52.5915 36.9949 51.9156C31.4247 51.1658 34.7308 41.0568 27.9385 41.0568C21.1462 41.0568 24.4523 51.1658 18.8821 51.9156C9.8257 53.1347 6.99709 40.8234 5.60255 30.0769C4.88048 24.5126 4.84446 19.4036 5.29748 16.9011Z" stroke="currentColor" stroke-width="2" stroke-linejoin="round"/>
<path d="M31.0001 6C31.0001 8 33.2001 12.2 38.0001 11C42.8001 9.8 43.3349 13.7798 45 16C46.4999 18 48 18.5 50 18M11 48C11.3333 46.6667 15 45.5 13 41M13 41C13.8334 41 15.8 40.4 17 38M13 41C11.9726 38.6882 12.3334 35.3333 13 34M19 9C16 8 14 9 14 9M10 7L14 9M14 9L12 12" stroke="currentColor" stroke-width="2" stroke-linecap="round"/>
<path d="M19 31C19 31 22.8571 29 28 29C33.1429 29 37 31 37 31" stroke="currentColor" stroke-width="2" stroke-linecap="round" stroke-linejoin="round"/>
<path d="M22 21.5V19.5C22 18.6716 21.3284 18 20.5 18C19.6716 18 19 18.6716 19 19.5V21.5C19 22.3284 19.6716 23 20.5 23C21.3284 23 22 22.3284 22 21.5Z" stroke="currentColor" stroke-width="2" stroke-linecap="round"/>
<path d="M37 21.5V19.5C37 18.6716 36.3284 18 35.5 18C34.6716 18 34 18.6716 34 19.5V21.5C34 22.3284 34.6716 23 35.5 23C36.3284 23 37 22.3284 37 21.5Z" stroke="currentColor" stroke-width="2" stroke-linecap="round"/>
</svg>
