<svg width="24" height="24" viewBox="0 0 24 24" fill="none" xmlns="http://www.w3.org/2000/svg">
<path d="M1 3.00098H16V16.001H1V3.00098Z" stroke="currentColor" stroke-width="2" stroke-linecap="round" stroke-linejoin="round"/>
<path d="M16 8.00098H20L23 11.001V16.001H16V8.00098Z" stroke="currentColor" stroke-width="2" stroke-linecap="round" stroke-linejoin="round"/>
<path d="M5.5 21.001C6.88071 21.001 8 19.8817 8 18.501C8 17.1203 6.88071 16.001 5.5 16.001C4.11929 16.001 3 17.1203 3 18.501C3 19.8817 4.11929 21.001 5.5 21.001Z" stroke="currentColor" stroke-width="2" stroke-linecap="round" stroke-linejoin="round"/>
<path d="M18.5 21.001C19.8807 21.001 21 19.8817 21 18.501C21 17.1203 19.8807 16.001 18.5 16.001C17.1193 16.001 16 17.1203 16 18.501C16 19.8817 17.1193 21.001 18.5 21.001Z" stroke="currentColor" stroke-width="2" stroke-linecap="round" stroke-linejoin="round"/>
</svg>
