<svg width="24" height="24" viewBox="0 0 24 24" fill="none" xmlns="http://www.w3.org/2000/svg">
<path d="M23 3.001C22.0424 3.67648 20.9821 4.19311 19.86 4.531C18.6399 3.12807 16.6191 2.62246 14.8821 3.28545C12.5741 4.16635 12 6.3204 12 8.531C10.2426 8.57657 8.50127 8.18681 6.93101 7.39645C5.36074 6.60608 4.01032 5.43964 3 4.001C3 4.001 -1 13.001 8 17.001C5.94053 18.399 3.48716 19.0999 1 19.001C10 24.001 21 19.001 21 7.501C20.9991 7.22245 20.9723 6.94459 20.92 6.671C21.9406 5.66449 22.6608 4.39371 23 3.001Z" stroke="currentColor" stroke-width="2" stroke-linecap="round" stroke-linejoin="round"/>
</svg>
