<svg width="24" height="24" viewBox="0 0 24 24" fill="none" xmlns="http://www.w3.org/2000/svg">
<path d="M17 21.001V19.001C17 17.9401 16.5786 16.9227 15.8284 16.1726C15.0783 15.4224 14.0609 15.001 13 15.001H5C3.93913 15.001 2.92172 15.4224 2.17157 16.1726C1.42143 16.9227 1 17.9401 1 19.001V21.001" stroke="currentColor" stroke-width="2" stroke-linecap="round" stroke-linejoin="round"/>
<path d="M9 11.001C11.2091 11.001 13 9.21012 13 7.00098C13 4.79184 11.2091 3.00098 9 3.00098C6.79086 3.00098 5 4.79184 5 7.00098C5 9.21012 6.79086 11.001 9 11.001Z" stroke="currentColor" stroke-width="2" stroke-linecap="round" stroke-linejoin="round"/>
<path d="M23 21.001V19.001C22.9993 18.1147 22.7044 17.2538 22.1614 16.5533C21.6184 15.8528 20.8581 15.3525 20 15.131" stroke="currentColor" stroke-width="2" stroke-linecap="round" stroke-linejoin="round"/>
<path d="M16 3.13098C16.8604 3.35128 17.623 3.85168 18.1676 4.55329C18.7122 5.2549 19.0078 6.11781 19.0078 7.00598C19.0078 7.89415 18.7122 8.75706 18.1676 9.45867C17.623 10.1603 16.8604 10.6607 16 10.881" stroke="currentColor" stroke-width="2" stroke-linecap="round" stroke-linejoin="round"/>
</svg>
