<svg width="24" height="24" viewBox="0 0 24 24" fill="none" xmlns="http://www.w3.org/2000/svg">
<g clip-path="url(#clip0_3545_598)">
<path d="M11.398 0.00293117C9.47297 0.0289312 5.33097 0.344931 3.01397 2.46793C1.29397 4.17793 0.692973 6.69893 0.622973 9.82093C0.562973 12.9309 0.492973 18.7709 6.12297 20.3619V22.7819C6.12297 22.7819 6.08497 23.7519 6.72497 23.9519C7.51497 24.2019 7.96497 23.4529 8.71497 22.6529L10.115 21.0729C13.965 21.3929 16.915 20.6539 17.255 20.5439C18.035 20.2939 22.436 19.7329 23.156 13.8919C23.896 7.86093 22.796 4.06093 20.816 2.34093L20.806 2.33893C20.206 1.78893 17.806 0.0389312 12.436 0.0189312C12.436 0.0189312 12.04 -0.00606883 11.398 0.00293117ZM11.465 1.69993C12.01 1.69693 12.345 1.71993 12.345 1.71993C16.885 1.72993 19.056 3.09993 19.566 3.55993C21.236 4.98893 22.094 8.41593 21.466 13.4519C20.866 18.3319 17.296 18.6419 16.636 18.8519C16.356 18.9419 13.756 19.5819 10.484 19.3719C10.484 19.3719 8.04497 22.3129 7.28497 23.0729C7.16497 23.2029 7.02497 23.2429 6.93497 23.2229C6.80497 23.1929 6.76497 23.0329 6.77497 22.8129L6.79497 18.7939C2.02397 17.4739 2.30397 12.4919 2.35397 9.89193C2.41397 7.29193 2.90397 5.15993 4.35397 3.71993C6.31097 1.94993 9.82897 1.70993 11.464 1.69993H11.465ZM11.825 4.29993C11.7856 4.2998 11.7466 4.30744 11.7102 4.3224C11.6739 4.33737 11.6408 4.35937 11.6129 4.38715C11.585 4.41493 11.5629 4.44794 11.5478 4.48428C11.5327 4.52062 11.525 4.55958 11.525 4.59893C11.525 4.6785 11.5566 4.7548 11.6128 4.81106C11.6691 4.86732 11.7454 4.89893 11.825 4.89893C12.5684 4.88475 13.3073 5.01795 13.999 5.29085C14.6907 5.56375 15.3215 5.97095 15.855 6.48893C16.945 7.54893 17.476 8.96893 17.496 10.8289C17.496 10.8683 17.5037 10.9073 17.5188 10.9437C17.5339 10.9801 17.556 11.0132 17.5838 11.0411C17.6117 11.0689 17.6448 11.091 17.6812 11.1061C17.7176 11.1212 17.7566 11.1289 17.796 11.1289V11.1199C17.8755 11.1199 17.9518 11.0883 18.0081 11.0321C18.0644 10.9758 18.096 10.8995 18.096 10.8199C18.1331 9.94522 17.9917 9.0721 17.6805 8.25377C17.3694 7.43543 16.8949 6.689 16.286 6.05993C15.096 4.89993 13.595 4.29993 11.825 4.29993ZM7.87097 4.98993C7.65831 4.95963 7.44164 5.0019 7.25597 5.10993H7.24397C6.83397 5.34993 6.45597 5.64993 6.09597 6.04993C5.82597 6.36993 5.67497 6.68893 5.63497 6.99893C5.61144 7.18074 5.62852 7.36551 5.68497 7.53993L5.70497 7.54993C6.0132 8.45608 6.41539 9.32749 6.90497 10.1499C7.53959 11.3018 8.31928 12.3674 9.22497 13.3209L9.25497 13.3609L9.29497 13.3909L9.32497 13.4209L9.35497 13.4509C10.3122 14.3589 11.3807 15.1418 12.535 15.7809C13.855 16.5009 14.657 16.8409 15.137 16.9809V16.9909C15.277 17.0309 15.405 17.0509 15.535 17.0509C15.9447 17.021 16.3326 16.8549 16.637 16.5789C17.027 16.2289 17.337 15.8409 17.567 15.4309V15.4209C17.797 14.9909 17.717 14.5799 17.387 14.2999C16.7219 13.7181 16.0019 13.2024 15.237 12.7599C14.727 12.4799 14.207 12.6499 13.997 12.9299L13.547 13.4989C13.317 13.7789 12.897 13.7389 12.897 13.7389L12.885 13.7489C9.76497 12.9489 8.93497 9.78993 8.93497 9.78993C8.93497 9.78993 8.89497 9.35993 9.18497 9.13993L9.74497 8.68993C10.015 8.46993 10.205 7.94993 9.91497 7.43993C9.47312 6.67467 8.95732 5.95456 8.37497 5.28993C8.2483 5.13283 8.06947 5.02638 7.87097 4.98993ZM12.344 5.87993C12.2644 5.8802 12.1882 5.91206 12.1321 5.96851C12.0761 6.02495 12.0447 6.10137 12.045 6.18093C12.0452 6.2605 12.0771 6.3367 12.1335 6.39277C12.19 6.44884 12.2664 6.4802 12.346 6.47993C13.3467 6.4973 14.2997 6.91087 14.996 7.62993C15.3101 7.97645 15.5516 8.3824 15.7062 8.82382C15.8607 9.26523 15.9253 9.73315 15.896 10.1999C15.8962 10.2793 15.928 10.3554 15.9842 10.4114C16.0404 10.4675 16.1166 10.4989 16.196 10.4989L16.206 10.5109C16.2455 10.5109 16.2845 10.5031 16.321 10.488C16.3575 10.4729 16.3906 10.4507 16.4185 10.4227C16.4463 10.3947 16.4684 10.3616 16.4834 10.325C16.4984 10.2885 16.5061 10.2494 16.506 10.2099C16.536 9.01993 16.166 8.01993 15.436 7.21993C14.706 6.41993 13.686 5.96993 12.386 5.87993C12.372 5.87895 12.358 5.87895 12.344 5.87993ZM12.834 7.49893C12.7939 7.49775 12.7539 7.50448 12.7164 7.51874C12.6789 7.533 12.6445 7.55451 12.6153 7.58205C12.5861 7.60958 12.5626 7.64259 12.5462 7.67921C12.5297 7.71582 12.5207 7.75531 12.5195 7.79543C12.5183 7.83555 12.525 7.87551 12.5393 7.91303C12.5535 7.95054 12.5751 7.98488 12.6026 8.01409C12.6301 8.04329 12.6631 8.06679 12.6997 8.08323C12.7364 8.09968 12.7759 8.10875 12.816 8.10993C13.806 8.15993 14.286 8.65993 14.346 9.68993C14.3486 9.76775 14.3813 9.84151 14.4373 9.89563C14.4933 9.94974 14.5681 9.97997 14.646 9.97993H14.656C14.6963 9.97868 14.7359 9.96932 14.7725 9.95241C14.8091 9.93551 14.8419 9.9114 14.8689 9.88153C14.896 9.85166 14.9168 9.81665 14.93 9.77857C14.9433 9.7405 14.9487 9.70015 14.946 9.65993C14.876 8.31993 14.146 7.56893 12.846 7.49893C12.842 7.49885 12.838 7.49885 12.834 7.49893Z" fill="currentColor"/>
</g>
<defs>
<clipPath id="clip0_3545_598">
<rect width="24" height="24" fill="white" transform="translate(0 0.000976562)"/>
</clipPath>
</defs>
</svg>
