<svg width="24" height="24" viewBox="0 0 24 24" fill="none" xmlns="http://www.w3.org/2000/svg">
<g clip-path="url(#clip0_3545_594)">
<path d="M12 23.001C5.9247 23.001 1 18.0763 1 12.001C1 5.92568 5.9247 1.00098 12 1.00098C18.0753 1.00098 23 5.92568 23 12.001C23 18.0763 18.0753 23.001 12 23.001Z" stroke="currentColor" stroke-width="2"/>
<path d="M16.3795 11.0361C16.3939 9.34446 14.9145 7.79344 13.0817 7.57915L12.9615 7.56215C12.8696 7.54493 12.7764 7.53507 12.6827 7.53267C12.3065 7.53267 12.2068 7.7889 12.1803 7.94197C12.1653 8.00553 12.164 8.07129 12.1764 8.13536C12.1888 8.19942 12.2146 8.2605 12.2525 8.31498C12.3774 8.47938 12.5962 8.50772 12.7716 8.53267C12.8233 8.53947 12.8726 8.54514 12.9122 8.55534C14.5599 8.91249 15.1152 9.47598 15.3856 11.0667C15.3928 11.1064 15.3952 11.154 15.3976 11.205C15.4096 11.3943 15.4348 11.79 15.8723 11.79C15.9084 11.79 15.9468 11.7878 15.9877 11.781C16.3951 11.7209 16.3819 11.3592 16.3759 11.1857C16.3728 11.1438 16.3728 11.1018 16.3759 11.0599C16.3772 11.0524 16.378 11.0448 16.3783 11.0372L16.3795 11.0361Z" fill="currentColor"/>
<path d="M12.577 6.95789C12.625 6.96129 12.6731 6.9647 12.7104 6.97036C15.4144 7.37626 16.6595 8.62343 17.0044 11.2788C17.0104 11.3241 17.0104 11.3785 17.0116 11.4375C17.0153 11.645 17.0225 12.0758 17.4984 12.0849H17.5128C17.5781 12.0882 17.6435 12.0782 17.7044 12.0557C17.7653 12.0332 17.8205 11.9987 17.8661 11.9545C18.014 11.8037 18.0043 11.5803 17.9959 11.3989C17.9935 11.3559 17.9911 11.3139 17.9923 11.2776C18.026 8.5622 15.6127 6.09962 12.8269 6.00891L12.7933 6.01005C12.7826 6.01154 12.7717 6.0123 12.7608 6.01231C12.7332 6.01231 12.6984 6.01005 12.6623 6.00778C12.6143 6.00364 12.5662 6.00138 12.5181 6.00098C12.0746 6.00098 11.9905 6.3071 11.9797 6.49077C11.9556 6.91368 12.3751 6.94429 12.577 6.95789ZM16.8734 14.7096C16.8156 14.6668 16.7583 14.6234 16.7016 14.5792C16.4059 14.3479 16.0911 14.1348 15.7882 13.9284C15.7248 13.8854 15.6615 13.8423 15.5983 13.7992C15.2089 13.5339 14.8592 13.4035 14.5287 13.4035C14.084 13.4035 13.6959 13.6438 13.375 14.1166C13.2332 14.3252 13.0601 14.4273 12.8486 14.4273C12.7009 14.4223 12.5562 14.3871 12.4243 14.3241C11.1684 13.7685 10.2707 12.9182 9.75753 11.7958C9.50995 11.2515 9.58927 10.8978 10.0267 10.6087C10.2743 10.4454 10.7358 10.1404 10.7033 9.55653C10.6673 8.89327 9.16383 6.8978 8.53048 6.67104C8.2603 6.57485 7.96237 6.57405 7.69162 6.66878C6.96452 6.90687 6.44174 7.32637 6.18094 7.87853C5.92856 8.41368 5.94058 9.04066 6.21459 9.69372C7.00418 11.5826 8.11345 13.2289 9.51476 14.5871C10.8848 15.9171 12.5698 17.0055 14.5215 17.8241C14.697 17.8978 14.882 17.9375 15.0166 17.967L15.1308 17.9942C15.1465 17.9984 15.1626 18.0007 15.1789 18.001H15.1945C16.1127 18.001 17.2148 17.1846 17.5537 16.2527C17.8505 15.4363 17.3085 15.0339 16.8734 14.7107V14.7096ZM12.9832 9.11549C12.8269 9.11889 12.4989 9.12683 12.3835 9.45109C12.3306 9.60302 12.3366 9.73454 12.4027 9.84225C12.5001 10.001 12.6875 10.0497 12.857 10.0758C13.4723 10.1722 13.7896 10.5044 13.8521 11.1189C13.8821 11.4069 14.0804 11.6064 14.3352 11.6064C14.3545 11.6068 14.3737 11.606 14.3929 11.6041C14.6994 11.5679 14.8472 11.349 14.834 10.9522C14.8388 10.5373 14.6164 10.0679 14.2379 9.69372C13.8581 9.3173 13.4002 9.10528 12.9832 9.11549Z" fill="currentColor"/>
</g>
<defs>
<clipPath id="clip0_3545_594">
<rect width="24" height="24" fill="white" transform="translate(0 0.000976562)"/>
</clipPath>
</defs>
</svg>
