<svg width="24" height="24" viewBox="0 0 24 24" fill="none" xmlns="http://www.w3.org/2000/svg">
<g clip-path="url(#clip0_3545_1188)">
<path d="M10.66 5.00098H14C14.5304 5.00098 15.0391 5.21169 15.4142 5.58676C15.7893 5.96184 16 6.47054 16 7.00098V10.341L17 11.341L23 7.00098V17.001M16 16.001V17.001C16 17.5314 15.7893 18.0401 15.4142 18.4152C15.0391 18.7903 14.5304 19.001 14 19.001H3C2.46957 19.001 1.96086 18.7903 1.58579 18.4152C1.21071 18.0401 1 17.5314 1 17.001V7.00098C1 6.47054 1.21071 5.96184 1.58579 5.58676C1.96086 5.21169 2.46957 5.00098 3 5.00098H5L16 16.001Z" stroke="currentColor" stroke-width="2" stroke-linecap="round" stroke-linejoin="round"/>
<path d="M1 1.00098L23 23.001" stroke="currentColor" stroke-width="2" stroke-linecap="round" stroke-linejoin="round"/>
</g>
<defs>
<clipPath id="clip0_3545_1188">
<rect width="24" height="24" fill="white" transform="translate(0 0.000976562)"/>
</clipPath>
</defs>
</svg>
