<svg width="24" height="24" viewBox="0 0 24 24" fill="none" xmlns="http://www.w3.org/2000/svg">
<path d="M21.579 6.85593C21.719 6.39093 21.579 6.04993 20.917 6.04993H18.724C18.166 6.04993 17.911 6.34493 17.771 6.66893C17.771 6.66893 16.656 9.38793 15.076 11.1509C14.566 11.6639 14.333 11.8259 14.055 11.8259C13.916 11.8259 13.714 11.6639 13.714 11.1989V6.85593C13.714 6.29793 13.553 6.04993 13.088 6.04993H9.642C9.294 6.04993 9.084 6.30793 9.084 6.55393C9.084 7.08193 9.874 7.20393 9.955 8.69193V11.9199C9.955 12.6269 9.828 12.7559 9.548 12.7559C8.805 12.7559 6.997 10.0269 5.924 6.90293C5.715 6.29593 5.504 6.05093 4.944 6.05093H2.752C2.125 6.05093 2 6.34593 2 6.66993C2 7.25193 2.743 10.1319 5.461 13.9409C7.273 16.5419 9.824 17.9519 12.148 17.9519C13.541 17.9519 13.713 17.6389 13.713 17.0989V15.1329C13.713 14.5069 13.846 14.3809 14.287 14.3809C14.611 14.3809 15.169 14.5449 16.47 15.7979C17.956 17.2839 18.202 17.9509 19.037 17.9509H21.229C21.855 17.9509 22.168 17.6379 21.988 17.0199C21.791 16.4049 21.081 15.5099 20.139 14.4509C19.627 13.8469 18.862 13.1969 18.629 12.8719C18.304 12.4529 18.398 12.2679 18.629 11.8959C18.629 11.8959 21.301 8.13493 21.579 6.85593Z" stroke="currentColor" stroke-width="2" stroke-linecap="round"/>
</svg>
