<svg width="24" height="24" viewBox="0 0 24 24" fill="none" xmlns="http://www.w3.org/2000/svg">
<path d="M16 13.001C16 12.4487 16.4477 12.001 17 12.001C17.5523 12.001 18 12.4487 18 13.001V15.001C18 15.5533 17.5523 16.001 17 16.001C16.4477 16.001 16 15.5533 16 15.001V13.001Z" fill="currentColor"/>
<path d="M20 7.00098V5.00098C20 3.89798 19.103 3.00098 18 3.00098H5C3.346 3.00098 2 4.34698 2 6.00098V18.001C2 20.202 3.794 21.001 5 21.001H20C21.103 21.001 22 20.104 22 19.001V9.00098C22 7.89798 21.103 7.00098 20 7.00098ZM5 5.00098H18V7.00098H5C4.74252 6.98946 4.49941 6.87907 4.32128 6.69279C4.14315 6.50652 4.04373 6.25871 4.04373 6.00098C4.04373 5.74324 4.14315 5.49543 4.32128 5.30916C4.49941 5.12288 4.74252 5.01249 5 5.00098ZM20 19.001H5.012C4.55 18.989 4 18.806 4 18.001V8.81598C4.314 8.92898 4.647 9.00098 5 9.00098H20V19.001Z" fill="currentColor"/>
</svg>
