<svg width="24" height="24" viewBox="0 0 24 24" fill="none" xmlns="http://www.w3.org/2000/svg">
<path fill-rule="evenodd" clip-rule="evenodd" d="M12 2.00098C6.47715 2.00098 2.00222 6.5362 2 12.001C2 13.7475 2.62923 15.4973 3.5 17.001L2 22.001L7 20.501C8.45696 21.2903 9.96188 21.9569 12 22.001C17.5216 22.1203 22 17.5238 22 12.001C22 6.47813 17.5228 2.00098 12 2.00098Z" stroke="currentColor" stroke-width="2" stroke-linejoin="round"/>
<path d="M16.5608 16.6165C15.3037 17.7561 12.6332 16.0662 11.5524 15.3736C10.3616 14.6258 9.35205 13.6281 8.59536 12.4513C7.96038 11.4827 6.29072 8.61587 7.33603 7.48424C7.9335 6.83743 9.56781 6.87015 10.194 7.40237C10.6706 7.80736 11.0549 9.26472 10.9137 9.91911C10.814 10.381 10.3439 10.7038 10.0246 11.0194C10.7262 12.2387 11.7478 13.2483 12.9817 13.9417C13.3013 13.6258 13.6282 13.1615 14.0951 13.0631C14.759 12.9232 16.2381 13.3031 16.6467 13.7797C17.1578 14.3758 17.1016 16.1261 16.5608 16.6165Z" fill="currentColor"/>
</svg>
