<svg width="24" height="24" viewBox="0 0 24 24" fill="none" xmlns="http://www.w3.org/2000/svg">
<path d="M9.59 4.59096C9.82231 4.35727 10.1088 4.1846 10.4239 4.0883C10.739 3.992 11.073 3.97505 11.3963 4.03895C11.7195 4.10285 12.022 4.24564 12.2768 4.4546C12.5315 4.66357 12.7307 4.93225 12.8566 5.23675C12.9825 5.54126 13.0313 5.87215 12.9985 6.20002C12.9657 6.52789 12.8524 6.84258 12.6687 7.11612C12.4849 7.38965 12.2365 7.61356 11.9454 7.76792C11.6542 7.92229 11.3295 8.00234 11 8.00096H2M12.59 19.411C12.8223 19.6446 13.1088 19.8173 13.4239 19.9136C13.739 20.0099 14.073 20.0269 14.3963 19.963C14.7195 19.8991 15.022 19.7563 15.2768 19.5473C15.5315 19.3383 15.7307 19.0697 15.8566 18.7652C15.9825 18.4607 16.0313 18.1298 15.9985 17.8019C15.9657 17.474 15.8524 17.1593 15.6687 16.8858C15.4849 16.6123 15.2365 16.3884 14.9454 16.234C14.6542 16.0796 14.3295 15.9996 14 16.001H2M17.73 7.73096C18.0208 7.44084 18.3787 7.22687 18.7719 7.10797C19.1652 6.98907 19.5816 6.9689 19.9845 7.04925C20.3874 7.12959 20.7642 7.30798 21.0817 7.56863C21.3993 7.82928 21.6477 8.16416 21.805 8.54365C21.9623 8.92314 22.0236 9.33555 21.9836 9.74441C21.9436 10.1533 21.8035 10.546 21.5756 10.8878C21.3477 11.2296 21.0391 11.5099 20.6771 11.7041C20.3151 11.8983 19.9108 12.0002 19.5 12.001H2" stroke="currentColor" stroke-width="2" stroke-linecap="round" stroke-linejoin="round"/>
</svg>
