<svg width="24" height="24" viewBox="0 0 24 24" fill="none" xmlns="http://www.w3.org/2000/svg">
<path d="M22.54 6.42098C22.4212 5.94639 22.2309 5.56475 21.8386 5.16038C21.4464 4.75601 21.0707 4.55416 20.6 4.42098C18.88 4.00098 12 4.00098 12 4.00098C12 4.00098 5.11999 4.00098 3.39999 4.46098C2.92924 4.59416 2.55358 4.79601 2.16134 5.20038C1.7691 5.60475 1.57878 5.98639 1.45999 6.46098C1.14521 8.20653 0.991228 9.97729 0.999992 11.751C0.988771 13.538 1.14276 15.3223 1.45999 17.081C1.59095 17.5408 1.78651 17.9079 2.17814 18.2955C2.56976 18.683 2.93881 18.8748 3.39999 19.001C5.11999 19.461 12 19.461 12 19.461C12 19.461 18.88 19.461 20.6 19.001C21.0707 18.8678 21.4464 18.6659 21.8386 18.2616C22.2309 17.8572 22.4212 17.4756 22.54 17.001C22.8524 15.2686 23.0063 13.5113 23 11.751C23.0112 9.96393 22.8572 8.17967 22.54 6.42098Z" stroke="currentColor" stroke-width="2" stroke-linecap="round" stroke-linejoin="round"/>
<path d="M9.75 15.021L15.5 11.751L9.75 8.48096V15.021Z" stroke="currentColor" stroke-width="2" stroke-linecap="round" stroke-linejoin="round"/>
</svg>
